<mxfile host="www.draw.io" modified="2019-11-28T15:56:01.994Z" agent="Mozilla/5.0 (X11; Linux x86_64) AppleWebKit/537.36 (KHTML, like Gecko) Ubuntu Chromium/78.0.3904.97 Chrome/78.0.3904.97 Safari/537.36" etag="iYHCd4fL8gYhbTPuUCrU" version="12.3.3" type="github" pages="1">
  <diagram id="aa1lLa2fK6yxBbnHU1IT" name="Page-1">
    <mxGraphModel dx="4023" dy="2029" grid="1" gridSize="10" guides="1" tooltips="1" connect="1" arrows="1" fold="1" page="1" pageScale="1" pageWidth="850" pageHeight="1100" math="0" shadow="0">
      <root>
        <mxCell id="0"/>
        <mxCell id="1" parent="0"/>
        <mxCell id="GPzBYBWvHa93N3hvbvar-1" value="UI" style="rounded=1;whiteSpace=wrap;html=1;fontSize=23;labelPosition=center;verticalLabelPosition=middle;align=right;verticalAlign=top;fontStyle=1;spacingRight=9;strokeColor=#666666;glass=0;comic=0;shadow=0;strokeWidth=2;fillColor=#F5F5F5;" vertex="1" parent="1">
          <mxGeometry x="94" y="260" width="1110" height="138" as="geometry"/>
        </mxCell>
        <mxCell id="GPzBYBWvHa93N3hvbvar-2" value="JupyterLab" style="shape=component;align=left;spacingLeft=36;rounded=1;shadow=0;glass=1;comic=0;labelBackgroundColor=none;strokeColor=#666666;strokeWidth=2;fillColor=#FCFCFC;fontSize=18;fontColor=#000000;html=1;" vertex="1" parent="1">
          <mxGeometry x="504" y="273" width="157" height="76" as="geometry"/>
        </mxCell>
        <mxCell id="GPzBYBWvHa93N3hvbvar-3" value="Data" style="rounded=1;whiteSpace=wrap;html=1;fontSize=23;labelPosition=center;verticalLabelPosition=middle;align=right;verticalAlign=top;spacingRight=9;fontStyle=1;strokeColor=#666666;glass=0;comic=0;shadow=0;strokeWidth=2;fillColor=#F5F5F5;" vertex="1" parent="1">
          <mxGeometry x="94" y="630" width="1110" height="138" as="geometry"/>
        </mxCell>
        <mxCell id="GPzBYBWvHa93N3hvbvar-4" value="Services" style="rounded=1;whiteSpace=wrap;html=1;fontSize=23;labelPosition=center;verticalLabelPosition=middle;align=right;verticalAlign=top;spacingRight=9;fontStyle=1;spacingLeft=10;strokeColor=#666666;glass=0;comic=0;shadow=0;strokeWidth=2;fillColor=#F5F5F5;" vertex="1" parent="1">
          <mxGeometry x="94" y="433" width="1110" height="160" as="geometry"/>
        </mxCell>
        <mxCell id="GPzBYBWvHa93N3hvbvar-5" value="&lt;div style=&quot;font-size: 20px&quot;&gt;&lt;font style=&quot;font-size: 20px&quot;&gt;&lt;b&gt;Access Control&lt;/b&gt;&lt;/font&gt;&lt;/div&gt;" style="rounded=1;whiteSpace=wrap;html=1;rotation=-90;verticalAlign=top;strokeColor=#666666;glass=0;comic=0;shadow=0;strokeWidth=2;fillColor=#F5F5F5;" vertex="1" parent="1">
          <mxGeometry x="-70" y="423" width="555" height="182" as="geometry"/>
        </mxCell>
        <mxCell id="GPzBYBWvHa93N3hvbvar-6" style="rounded=1;html=1;exitX=0.65;exitY=0.517;jettySize=auto;orthogonalLoop=1;endArrow=block;dashed=0;endFill=1;exitDx=0;exitDy=0;exitPerimeter=0;edgeStyle=orthogonalEdgeStyle;strokeColor=#666666;" edge="1" parent="1" source="GPzBYBWvHa93N3hvbvar-31" target="GPzBYBWvHa93N3hvbvar-47">
          <mxGeometry relative="1" as="geometry">
            <mxPoint x="1423.8823529411766" y="327.9411764705883" as="targetPoint"/>
            <Array as="points">
              <mxPoint x="1080" y="610"/>
              <mxPoint x="1214" y="610"/>
              <mxPoint x="1214" y="311"/>
            </Array>
          </mxGeometry>
        </mxCell>
        <mxCell id="GPzBYBWvHa93N3hvbvar-7" style="edgeStyle=orthogonalEdgeStyle;rounded=1;comic=0;orthogonalLoop=1;jettySize=auto;html=1;entryX=0.488;entryY=0.55;entryDx=0;entryDy=0;entryPerimeter=0;shadow=0;fontSize=18;strokeColor=#666666;" edge="1" parent="1" source="GPzBYBWvHa93N3hvbvar-8" target="GPzBYBWvHa93N3hvbvar-30">
          <mxGeometry relative="1" as="geometry">
            <Array as="points">
              <mxPoint x="154" y="685"/>
            </Array>
          </mxGeometry>
        </mxCell>
        <mxCell id="GPzBYBWvHa93N3hvbvar-8" value="&lt;p style=&quot;margin: 0px ; text-align: center ; margin-top: 4px ; font-family: &amp;#34;times&amp;#34; , serif ; color: #000000&quot;&gt;Magpie&lt;/p&gt;&lt;p style=&quot;margin: 0px ; text-align: center ; margin-top: 4px ; font-family: &amp;#34;times&amp;#34; , serif ; color: #000000&quot;&gt;AuthN/&lt;span&gt;AuthZ&lt;/span&gt;&lt;/p&gt;" style="shape=component;align=center;spacingLeft=36;shadow=0;fontFamily=Helvetica;fontSize=18;fontColor=#000000;strokeColor=#666666;strokeWidth=2;fillColor=#ffffff;html=1;" vertex="1" parent="1">
          <mxGeometry x="132" y="288" width="157" height="76" as="geometry"/>
        </mxCell>
        <mxCell id="GPzBYBWvHa93N3hvbvar-9" style="edgeStyle=orthogonalEdgeStyle;rounded=0;comic=0;orthogonalLoop=1;jettySize=auto;html=1;shadow=0;fontSize=18;endArrow=none;endFill=0;strokeColor=#666666;" edge="1" parent="1" source="GPzBYBWvHa93N3hvbvar-10" target="GPzBYBWvHa93N3hvbvar-8">
          <mxGeometry relative="1" as="geometry">
            <Array as="points">
              <mxPoint x="211" y="450"/>
              <mxPoint x="211" y="450"/>
            </Array>
          </mxGeometry>
        </mxCell>
        <mxCell id="GPzBYBWvHa93N3hvbvar-10" value="&lt;p style=&quot;margin: 0px ; text-align: center ; margin-top: 4px ; font-family: &amp;#34;times&amp;#34; , serif ; color: #000000&quot;&gt;Twitcher&lt;/p&gt;&lt;p style=&quot;margin: 0px ; text-align: center ; margin-top: 4px ; font-family: &amp;#34;times&amp;#34; , serif ; color: #000000&quot;&gt;proxy&lt;/p&gt;" style="shape=component;align=center;spacingLeft=36;shadow=0;fontFamily=Helvetica;fontSize=18;fontColor=#000000;strokeColor=#666666;strokeWidth=2;fillColor=#ffffff;html=1;" vertex="1" parent="1">
          <mxGeometry x="162" y="483" width="127" height="62" as="geometry"/>
        </mxCell>
        <mxCell id="GPzBYBWvHa93N3hvbvar-11" value="Raven&lt;br style=&quot;font-size: 18px&quot;&gt;" style="verticalLabelPosition=bottom;html=1;verticalAlign=top;align=center;strokeColor=none;fillColor=#D72B32;shape=mxgraph.azure.cloud_service;fontSize=18;" vertex="1" parent="1">
          <mxGeometry x="999" y="448" width="85" height="70" as="geometry"/>
        </mxCell>
        <mxCell id="GPzBYBWvHa93N3hvbvar-12" value="Finch&lt;br style=&quot;font-size: 18px&quot;&gt;(xclim)" style="verticalLabelPosition=bottom;html=1;verticalAlign=top;align=center;strokeColor=none;fillColor=#D72B32;shape=mxgraph.azure.cloud_service;fontSize=18;" vertex="1" parent="1">
          <mxGeometry x="490" y="448" width="85" height="70" as="geometry"/>
        </mxCell>
        <mxCell id="GPzBYBWvHa93N3hvbvar-13" value="Flyingpigeon&lt;br style=&quot;font-size: 18px&quot;&gt;" style="verticalLabelPosition=bottom;html=1;verticalAlign=top;align=center;strokeColor=none;fillColor=#00BEF2;shape=mxgraph.azure.cloud_service;fontSize=18;" vertex="1" parent="1">
          <mxGeometry x="617" y="448" width="85" height="70" as="geometry"/>
        </mxCell>
        <mxCell id="GPzBYBWvHa93N3hvbvar-14" value="Malleefowl" style="verticalLabelPosition=bottom;html=1;verticalAlign=top;align=center;strokeColor=none;fillColor=#00BEF2;shape=mxgraph.azure.cloud_service;fontSize=18;" vertex="1" parent="1">
          <mxGeometry x="872" y="448" width="85" height="70" as="geometry"/>
        </mxCell>
        <mxCell id="GPzBYBWvHa93N3hvbvar-15" value="Hummingbird" style="verticalLabelPosition=bottom;html=1;verticalAlign=top;align=center;strokeColor=none;fillColor=#00BEF2;shape=mxgraph.azure.cloud_service;fontSize=18;" vertex="1" parent="1">
          <mxGeometry x="364" y="448.0000000000001" width="85" height="70" as="geometry"/>
        </mxCell>
        <mxCell id="GPzBYBWvHa93N3hvbvar-16" value="Catalog" style="verticalLabelPosition=bottom;html=1;verticalAlign=top;align=center;strokeColor=none;fillColor=#00BEF2;shape=mxgraph.azure.cloud_service;fontSize=18;" vertex="1" parent="1">
          <mxGeometry x="745" y="448" width="85" height="70" as="geometry"/>
        </mxCell>
        <mxCell id="GPzBYBWvHa93N3hvbvar-17" style="edgeStyle=orthogonalEdgeStyle;rounded=1;comic=0;orthogonalLoop=1;jettySize=auto;html=1;shadow=0;fontSize=10;entryX=0.05;entryY=0.7;entryDx=0;entryDy=0;entryPerimeter=0;strokeColor=#666666;" edge="1" parent="1" source="GPzBYBWvHa93N3hvbvar-18" target="GPzBYBWvHa93N3hvbvar-37">
          <mxGeometry relative="1" as="geometry">
            <Array as="points">
              <mxPoint x="334" y="682"/>
              <mxPoint x="376" y="682"/>
              <mxPoint x="376" y="694"/>
            </Array>
          </mxGeometry>
        </mxCell>
        <mxCell id="GPzBYBWvHa93N3hvbvar-18" value="&lt;p style=&quot;margin: 4px 0px 0px; font-family: times, serif; color: rgb(0, 0, 0); font-size: 18px;&quot;&gt;Phoenix&lt;/p&gt;&lt;p style=&quot;margin: 4px 0px 0px; font-family: times, serif; color: rgb(0, 0, 0); font-size: 18px;&quot;&gt;Job launch /&lt;/p&gt;&lt;p style=&quot;margin: 4px 0px 0px; font-family: times, serif; color: rgb(0, 0, 0); font-size: 18px;&quot;&gt;&amp;nbsp;monitoring&lt;/p&gt;" style="shape=component;align=center;spacingLeft=36;shadow=0;fontFamily=Helvetica;fontSize=18;fontColor=#000000;strokeColor=#666666;strokeWidth=2;fillColor=#ffffff;html=1;" vertex="1" parent="1">
          <mxGeometry x="314" y="274" width="157" height="76" as="geometry"/>
        </mxCell>
        <mxCell id="GPzBYBWvHa93N3hvbvar-19" value="Portainer" style="shape=image;verticalLabelPosition=bottom;labelBackgroundColor=#ffffff;verticalAlign=top;aspect=fixed;imageAspect=0;image=data:image/png,iVBORw0KGgoAAAANSUhEUgAAAMgAAADICAMAAACahl6sAAAC/VBMVEUAAAA42v842v842v842v842v842v842v842v842v842v842v842v842v842v842v842v842v842v842v842v842v842v842v842v842v842v842v842v842v842v842v842v842v842v842v842v842v842v842v842v842v842v842v842v842v842v842v842v842v842v842v842v842v842v842v842v842v842v842v842v842v842v842v842v842v842v842v842v842v842v842v842v842v842v842v842v842v842v842v842v842v842v842v842v842v842v842v842v842v842v842v842v842v842v842v842v842v842v842v842v842v842v842v842v842v842v842v842v842v842v842v842v842v842v842v842v842v842v842v842v842v842v842v842v842v842v842v842v842v842v842v842v842v842v842v842v842v842v842v842v842v842v842v842v842v842v842v842v842v842v842v842v842v842v842v842v842v842v842v842v842v842v842v842v842v842v842v842v842v842v842v842v842v842v842v842v842v842v842v842v842v842v842v842v842v842v842v842v842v842v842v842v842v842v842v842v842v842v842v842v842v842v842v842v842v842v842v842v842v842v842v842v842v842v842v842v842v842v842v842v842v842v842v842v842v842v842v842v842v842v842v842v842v842v842v842v842v842v842v842v842v842v842v842v842v842v842v842v842v842v842v842v842v842v+9ML1MAAAA/nRSTlMAAEWMiYIBgH9+JKyfEBNnzf30qT4FB0u2+OaLKAIymuvSbhcde935vFEIEV3H++2gNwNB9uAgLI/oz8v+2+xjEhly1OcliE64skgLVb8/FGnQljAEOqTvxVoPJ4fk2XgchuMbO6Xz/FsMFumXDsD68atA97NJBnPYjTRkK5IffYFErvW7X8jwNjhDr1B834QjkeoVm2XXCre0PPLCWQ3i3Np2xNGVLkxGcdbljioznMyQ1XAh3kKtvlJgnTVcoXW5eW1vlKdUnoqwwQlTwzloZoNHqmu6qJlqJqYiyeG10xhhxr1synQtznfuMS+TGimYhaJPYlhWXkoeV7E9egFd+XYAAAABb3JOVAHPoneaAAANj0lEQVR4Xu2dC1QUVQPHuQIrYqJAoIsu4KtVyEXXR64sCD4xTCzWRMAkH7siKqCCipYpPjCCClRIClHKfCRfmajl5zvzgZbmA9PU9EutTMvUSvu6p3tnd2dnl90ZWGDmjmd/5+hhZ2Zn/r+duXMfOzPr5OTAgZgBNFxLEg5o4uyCaCJ+EVeIcZWIXqQpJeLmECEFhwhhgMdEBFUfzSiRZqKuSHA16N6cEnmihYjrRJTco2UrT0rEy/tJH5GaoNi+rdtIoRG/tu1EuFNwZJl/QCBk0r5DR7Gp4LydOj8FLZB36RokJhOsEfx0N4WlByKkew+laPYKyunTs3kvKxqY3q59xGGCUz7TV0UH7xeK/1eHhRsneLbqHyECFZQwcsBAWmOQ82CqZlcPGRpFn8B6DXvWl3ATFC96+HMKY2Iv7xE+wI360w3EjHye9gt8IZbgnYKjaUa9ONqYVhE3Jh4w2logIXEsrfLSuCRSVXAu95fH01HDxk3ASRkiQDlxktY4Wxc3OZlEFZxpSst+nsacKVNjZcBSBIBpw6enGhdJS5/hQ5wKyhPUuo3cmHHmrIxMQ0RmMx7Hjpw9x7gU9JtLWKsFhZFkBYQY86lD50XQ+cz7I3jJ+a/QJ2f1QKJaLSjJqwvC6M+592vujHCWHSs0J3PhomzjwvLFXaMJMUEx4pcspQvHsu45Mmaymj1E6g3dGG9YLhNeBX/0vq/nehlTSbu8EW1+rFjp6uIF+uSZmpT5b74FBD7A8Obnv11ARxrYodAykNU+Oy4q/ivoGkfdamWwkCZ42xMGrFIb84zVn4RqIUK9tah18UzjW7PfyQgSTAVtN5nRHtF6z9BYiWJrFAXHRq0W+lMInBorEcQEbVS5elKJMYfu3fdKreawPRyEVdwT1xjXAMvGdRJgp6AtDh5iCrF2na0QbONa6B2aiS+m0R9G+eR4nk2ow+J902HxwXqbhwX7AB2waC6n91Typ0IV1A+jTAV11gaWgsox0ojfOGHjJvoz2fzRFglPBxjaiqziP6ZT58f9W7BtmHPIFMee/4npFL710ykNaQJY2Lagkt5spes2tkURbkYRNny37zBVqjs/izafyxWWDevbw0R8TrdH1IG7/mt7QQOmsV9WSnfH0X3hZXuW+zDncYVlA8gWfmqVvW1M4yPyffsPWF/KxIFiatFiruUOdnA2tTvh+C+M0wdkyOon4rMLkoG3Tz1FVnBtgScOOUQoHiORx6WMyL50bmuduRYzXA7nhwyca3hx5LlA1VEXxtwhcVScOPRXrg7/tfaTI225YGzio8nK+okAmcYGPhavJT3K4LEqwwvZEZ12noQx13Dlw2s+GnCcqigWtVBquGBuQlnPeqQOZOXDcroCOwJn9jebaxwyBeANSmSHRbVdC7jCNhAGEcMLSoQ51zRAZxBJ5itYXXGIkIZDhDQcIqThECENLHJCZqyFXUQs8tV42C/HX0/sHij/WqwiGWlQ2ruysjI/H/2XBuF+sYpsD4S6EjWE2SioIk3tOUCsIqiMLJq4Cz715clw3ant3aSiLSNIJA/Mg8c8BodJX1celotZZAFYCY9NSQiTNsl0iDQubB03I+IQkVSVmhEEfMwnRItEJDmvuTeDHSvBN4dOMyakvz2hQhQiHl2gGQHgjBoyKZvvLw6Rs1A1xNsz9dyRQfD5pnGwGpxX6HITx8KBrtOh9osA6dotohHZp1nupVot2QldwRksotPOCGoO54KV8rAWb5WFYZE8JDK98Nsw6cLMXeSKvKOp0G4eBc5ScbFIycSqCzARfC6dU3pxThkWaVu0F37nnnNJPtzjNLkilzVZepEFtEjRBTgEibykF+kN/dLzoXRfuQ5eyU0js4lSK5FLkIl8nkhFnvl+wClXBs0qRCqyvmZdz1yBmERYV+AQaVj0p9/HRKSNMkvrNwoshs3ASb3I6qpD0AVcRSLb1opI5NLGqTr51Nlr4LWW+/RNlCcOVsLQ88PgsmYvZ68Vi8j/oAnUXFwBfoBmPCUSkfhXQpcyaDUOHI/7jjHherq7OE6/Et8iMzKBxnxClQzUgLkCUkSqvtw7m8G6JiB2AHPCjf4eHVcyF7nx6U0iRTwWmxeJanBGZzYhDDcamUiJbWt57fsRqlst1sJBw3pTZy14pbgEplwug/Jj5WqqY4XnzNy5VAE3XU4jcxAbixyb8myv8A9jymHf5P1UPZLd9fs2sLp0tiL/YsUaqmOF57RKGDU+dUxhLrn9kXeU/iVjv0I1e2cwT18hjgqahDpWS6RzorfpO1Z4zvRCPNLoQ3APkbM/IpY+u0OEWoFDpGFxiNArcIg0LIZ6RLt5OTVAV6Me6aMXyRNFPXJlRIdU7cEZA2F6VgAlIv9pRCgclvOKWjV0TAhVs+M5ZUOvhuvcJl4jVaQLVId4Qaj9WQ0VBXLcaPSE2eHoRSDKtWwZbjReoubAn0sg7BVI6gBd8OlwVUqKivqnSlGFtAVXxxpeUFMLrn17M7RAZZqQ0nsMkSIad/9bDPw7gZhY5oRbW4Kq5ptN+MXD+n2Igoqg3p5MaY5GwzVBRqTIrdsv1JXEO1ZvcRVSBABfO64sVx9kdNtJEVk9iDWzda53Ik7EdyprYhvIzxAn8muNx+bUiqhgskQAuGo+YlJbQnLoXUKGSOZp1rw28cwjTKTdS2xxWYgqJUkEgKGjWePaZtUW4y4hQ2Qja1oWlm0gSsT3N9a0bIwkSiSimDUsGy4akkQ6XmMNy0aAL0kiSVdYw7JxrogkkT7m3xfUheJkkkS2mR4yVVfoioQIkU6mBy/VlXNVJIlEfswalo0XMkkSidnJGpaNu0qSRIr2sGVl5QZRFSJYwBqWjf5kieymH37Cjk5nfgkt1B0nScQJZHFXJKrriwJcxu09dfv3Nu+b2sprepAlEn3WenoDar8LJ5+coDRc7uDrvqHDIT/9nBOFJPVH0LG136YE0mh/N6vK4tqNopy2m/BTUwII6yGCUeE2PVKcE6jskph2E+/dXzk0JyHJFw9Mtns5BGZ/ZhLR38/eVFARJ1DqbcujywbqXvzCrolnB/WSpiqk2aofqx8kyQDI/GPr9Ug6LJiY5+a8p9sNJNJVQBEwnH4UmBmKPdQjg/qMfDcNMtC2fxs/EzCrtb43Qh9xVRPwg40ytAKKBDOvO6OZ2dcDx/sztOZoUeX+SCq7wSKzKjo5yPAchZifyqBAIijN8WU1PdS3p6FcCQFme8NI6vS/NPrgQVta/1Sd3mXn6dsLJq/HpwVZ7Io0wUSiu9fMOusOStWjvOYMPX5L8Bm54/BJq+jnJenCdhxMQMWk6nzKUUFEkEnFWsug7X9BOUf8aDnZRMrXPi36X8uGZihWrXuIdsojl1KBRCT3LQ4uaUu8P/pBFgrm5lpoYBTfLSkCso4aQUSQSZCzeUOqCzoD3YmqmZOJRdPLiDYxgjoRCAHabuRpT1MWmPYIHepzmVPqQOqL7kKJYJU+fzOyLEUf6oc/24zKxbBOAoqAwbNMx8qbEhB/lCUpB+oV8UKavLpLjo4L7ejA8LE9bVb3tUPaOVNIk+DOUdUbH2X8f8aMUlB0iCssK4HfCCaCTTI96Cuub5oe02gXi6YJZ2JoOUk0mUFFmfPsPGUZKXkgmAhl4ZtwvOlvuXH94vK5knJRXCiQCNaI7P/71lTYMKStFkYEaUQsiavlgEqt+EeQYwsVjdcvW2k61YPF0fyL4BPWffNbP+sPx11AjQIA8U3tb5DYoKAJ7yKo8TtEzpWrznj9wXchAUB53mqHtn6ov+ZfpPVmrlT2sJdnEQCSunFlsosDfItI1jVUJWiG9E9+RQD4dRNXJrsYfY9XDyTymo3Odz2pjOVZJKJxSgg8xu/YFgDbU7gi2cdH/P6CKAD/cCWyk8O+vBZ2MG0HVyI7CbzHr0g9rg7i4LlIPk3AwxrDvg2F/D6vIgnhXIHs5jKfo1vgVn3Gr9gJ4fMH2xtzj8A8Hs/AjVhGIPybxzqxEc9aqJXykEeRRqtHEOFf8SjSaDU7Iu0vPkUaq62FyN7Np0hE4xWSXlf5E3Ey/gRrY1DCZ98K9RC3cgWyFz4LO9VnV3AlshOVO68iIKmxSsn7MXyK4HEt068TNygfZPIsohzZCCONEEr5/tYKgKDEhh/7hXBrO55FkMk0twYfjUdHFu9XpODvR67mc+WqK5cq+N4hTlhFsn2W6ZfqGgL1Xd53iBO1T0DE0yca8jvEVgkC7BAnvcr3nx+eI22gAdRB94S6RIj6nr3q4meuAUePlRd3H3K0XkYlB+r5I1v1wnD5hqSoVCkBW+y/iwzCmYlBAnoYMF6OMpKr8Kdqbc0p2JssvIcBVLcEsB9cqX1327h4c84Daz/sLBQAPGS9aVS9IgK022XliuGQJ3II0qCOsJsWz5Nnom4+AS2RnHFBZT498GhGESBKBJskzLJuAaHi3EV9SQrqefdsihzf7aNWyEMWuy0sJUzDiTJJamu9Ddb7RgyOqz/Jxax/MOBudfWpH4ZXxOjtuNbMNyiS76Pymg1jadQMiTEusIRjnQKBgkV2OGF+2ZDq6MmOxAa2BfUZ3xn6QT8/bSoqGNqCNaGuq6eR+8GzgVNrgv3fO5B3auODEd+2kIlTAyOSYuDAgR38C9hNirtz3zfOAAAAAElFTkSuQmCC;fontSize=18;" vertex="1" parent="1">
          <mxGeometry x="1244" y="302" width="109" height="109" as="geometry"/>
        </mxCell>
        <mxCell id="GPzBYBWvHa93N3hvbvar-20" style="rounded=0;comic=0;orthogonalLoop=1;jettySize=auto;html=1;shadow=0;fontSize=15;shape=flexArrow;endSize=2;startSize=2;width=4.166666666666667;endWidth=6.064814814814814;entryX=0.007;entryY=0.119;entryDx=0;entryDy=0;entryPerimeter=0;" edge="1" parent="1" source="GPzBYBWvHa93N3hvbvar-21" target="GPzBYBWvHa93N3hvbvar-23">
          <mxGeometry relative="1" as="geometry">
            <mxPoint x="1224" y="555" as="targetPoint"/>
          </mxGeometry>
        </mxCell>
        <mxCell id="GPzBYBWvHa93N3hvbvar-21" value="" style="verticalLabelPosition=bottom;html=1;verticalAlign=top;align=center;strokeColor=none;fillColor=#00BEF2;shape=mxgraph.azure.cloud_service;fontSize=18;" vertex="1" parent="1">
          <mxGeometry x="1144.5" y="548" width="42" height="35" as="geometry"/>
        </mxCell>
        <mxCell id="GPzBYBWvHa93N3hvbvar-22" value="" style="group;fontColor=#BFBFBF;strokeColor=none;" vertex="1" connectable="0" parent="1">
          <mxGeometry x="1227.5" y="530" width="153" height="235" as="geometry"/>
        </mxCell>
        <mxCell id="GPzBYBWvHa93N3hvbvar-23" value="Birdhouse&lt;br style=&quot;font-size: 15px;&quot;&gt;WPS server" style="shape=folder;fontStyle=1;spacingTop=-3;tabWidth=101;tabHeight=44;tabPosition=left;html=1;fontSize=15;align=left;verticalAlign=top;spacingLeft=4;strokeColor=#BFBFBF;strokeWidth=2;dashed=1;fontColor=#666666;" vertex="1" parent="GPzBYBWvHa93N3hvbvar-22">
          <mxGeometry width="153" height="235" as="geometry"/>
        </mxCell>
        <mxCell id="GPzBYBWvHa93N3hvbvar-24" value="" style="shape=image;verticalLabelPosition=bottom;labelBackgroundColor=#ffffff;verticalAlign=top;aspect=fixed;imageAspect=0;image=data:image/svg+xml,PHN2ZyB4bWxucz0iaHR0cDovL3d3dy53My5vcmcvMjAwMC9zdmciIHhtbG5zOnhsaW5rPSJodHRwOi8vd3d3LnczLm9yZy8xOTk5L3hsaW5rIiB2ZXJzaW9uPSIxLjEiIGlkPSJMYXllcl8xIiB4PSIwcHgiIHk9IjBweCIgd2lkdGg9IjUwMHB4IiBoZWlnaHQ9IjUwMHB4IiB2aWV3Qm94PSIwIDAgNTAwIDUwMCIgZW5hYmxlLWJhY2tncm91bmQ9Im5ldyAwIDAgNTAwIDUwMCIgeG1sOnNwYWNlPSJwcmVzZXJ2ZSI+JiN4YTs8Zz4mI3hhOwk8cGF0aCBmaWxsPSIjRkVERDVDIiBkPSJNMzg2LjA5Miw4Ni44OTljLTE3LjExOCwxMS45MTUtNi4yOTcsMzYuODg5LDEuMzk2LDUyLjczMmMtMi43NzMtMS4xOTUtNS40NjEtMi42Mi03Ljg3My0zLjc2NiAgIGMxNC42MjYsMTcuODk2LDE1LjM1NCw0NC4zNTQsMzAuMjU3LDYyLjgzNWMyLjc4OSwzLjQ1NCw1LjYzMSw3LjE5NCw5LjUyNiw5Ljg3NWMtNC4yMjMtMS4yNjEtOC42OTQtMy40OTgtMTEuNDEyLTYuMTk5ICAgYzUuMjc0LDEwLjc3NiwxMi45MTUsMjAuODU0LDIxLjg1OSwyOS4zMWMtNS42OS0xLjY5NS0xMS4zNjYtNi40NzEtMTQuOTktMTAuMTY1bC0wLjA5NywwLjA5OCAgIGMtMC4zNzYtMC40NzYsNC43NTIsNy44MjksNi44MTYsMTMuMDFjNy45NDIsMTkuOTU0LDAuOTUzLDM4LjQ3NiwyMS4yODEsNTguNDI5Yy02LjEtMS4zNDYtMTEuNDktOC4yMjEtMTUuMjgzLTEzLjAxICAgYy0yLjQ4MywxMi4xODYsMTUuMTMzLDMyLjEwNiwyNC40NjgsMzcuODg0bDAuODE1LDAuMzI0YzAuOTkxLTQuODM0LDEuNzk1LTkuNzAyLDIuMzQ1LTE0LjYwMiAgIGMxLjExMS0xMC4wNjksMS40NjEtMjAuMjIyLDEuMDExLTMwLjM0N2MtMC40MDYtMTAuMTI0LTEuNDc3LTIwLjIyOC0zLjIwOC0zMC4yMThjLTEuNjU5LTEwLjAwNC0zLjk2Ni0xOS45MDQtNi44MzctMjkuNjMyICAgYy0xLjQyLTQuODcxLTIuOTkzLTkuNjk2LTQuNzI5LTE0LjQ2M2MtMC44NjktMi4zODMtMS43ODEtNC43NS0yLjcyNy03LjEwM2MtMC45MzUtMi4zNTgtMS45MTctNC42OTYtMi45MzktNy4wMiAgIGMtMi4wMzEtNC42MzYtNC4zNDEtOS4xODUtNi41OTQtMTMuNzY5Yy0yLjI2OC00LjU3MS00LjYxLTkuMTA2LTcuMDI4LTEzLjU5OWMtNC44MDgtOS4wMDctOS45NzEtMTcuODI0LTE1LjYwNy0yNi4zNzQgICBjNi40MjgsNy45ODIsMTIuMTIsMTYuNTUyLDE3LjQ3NCwyNS4zMDdjMi42NTYsNC4zOTMsNS4yMSw4Ljg0Nyw3LjcwNCwxMy4zMzNjMS4yNTEsMi4yMzgsMi40NTcsNC41MDUsMy42NTgsNi43NzIgICBjMS4yMDQsMi4yNjcsMi4zNzcsNC41NzYsMy40OTYsNi44OTljMS4xMTgsMi4zMjUsMi4xOTksNC42NzIsMy4yMjksNy4wMzhjMS4wMjUsMi4zNjksMS45OSw0Ljc2MSwyLjkyNiw3LjE2NiAgIGMxLjg2NCw0LjgxMywzLjU2Myw5LjY5LDUuMTA2LDE0LjYxM2MzLjA0NSw5Ljg2NCw1LjQyNCwxOS45MjgsNy4xODIsMzAuMTAxYzEuNjgxLDEwLjE4OCwyLjc1NywyMC40ODMsMy4wMjYsMzAuODE1ICAgYzAuMjIxLDEwLjMyNy0wLjIyOSwyMC42OTItMS43NjgsMzAuOTJjLTAuNzYzLDUuMTEyLTEuNzIyLDEwLjE5OS0zLjAxNCwxNS4yMDRjLTEuMjg5LDUuMDA2LTIuODMsOS45NDQtNC42ODksMTQuNzYxICAgYy0yLjQyLDYuMjI5LTUuMzU5LDEyLjI3LTguODYsMTcuOTM0bDAuMDQ4LDAuMDA2bC0xLjUxLDEyLjExNGMzLjc2LTMuNTU4LDkuNjA2LTE2LjMwNSwxMS41OTUtMjEuMDAzICAgYzIuODgxLTYuNzg2LDYuMDc2LTE0LjU2LDguMjY4LTIyLjMwM2wwLjI1MiwwLjA2OGMxNS42MDYtMTIuMzE1LDI5LjgxMi0yOC41MDQsMzMuNTkzLTQ4LjcwNmwtMC4zMTYtMC4wNjEgICBjLTIuODM5LDQuMzk5LTguNzcyLDcuODg1LTE0LjM0MSw5LjI3NmM2LjEyMi05LjUxLDExLjA0NS0xNy40MjEsOS45NjEtMjkuNDc5Yy0xLjMyNSw1LjU0NC01LjYzOSwxMC4wNDktMTAuOTQ1LDExLjQwOCAgIGMxMS45NjQtMjUuMjM1LDUuOTc1LTU1LjI5NS02LjExMS03OS4yODFjLTMuMDkzLTYuMTMzLTYuNTQ5LTExLjkxMS0xMC4yMS0xNy43MDRjMC4xNTQsNC4wMzQtMC4zNjcsOC4xNTktMS4zMTUsMTIuMjU3ICAgYy0yLjM3OC0xNS40MDYtOS42MS0yOS43NzgtMTYuOTU1LTQzLjQxMmMxLjA0MSw1LjY4MSwwLjkxNSwxMC45MSwwLjM0OCwxNi4zN2MtMi44NjctMTEuNjM4LTYuMjU2LTIzLjE2NC0xMi43OTgtMzMuMzMxICAgQzQyMy43OTEsMTA2LjEyNSw0MDMuNjQzLDc0LjY4LDM4Ni4wOTIsODYuODk5eiIvPiYjeGE7CTxwYXRoIGZpbGw9IiMyRTM5NzQiIGQ9Ik05My4yMDgsMTEzLjY4OWMxMS40NTIsMTcuNDMxLDM2LjcwNiw3LjI4MSw1Mi43NDksMC4wMTRjLTEuMjcsMi43NDEtMi43NjYsNS4zODktMy45NzUsNy43NjkgICBjMTguMjc5LTE0LjE0Miw0NC43NDgtMTQuMTYyLDYzLjYyLTI4LjU2M2MzLjUyOC0yLjY5Nyw3LjM0My01LjQzOCwxMC4xMjctOS4yNmMtMS4zNzQsNC4xODctMy43MjksOC41OTgtNi41MDIsMTEuMjQxICAgYzEwLjkxMy00Ljk4NCwyMS4xOTItMTIuMzUyLDI5Ljg4NS0yMS4wNjdjLTEuODQ5LDUuNjQzLTYuNzczLDExLjE4OS0xMC41NjMsMTQuNzEzbDAuMDk1LDAuMSAgIGMtMC40ODMsMC4zNjQsNy45NTUtNC41NDIsMTMuMTg5LTYuNDY3YzIwLjE1Ny03LjQwNSwzOC40ODcsMC4wNzcsNTguOTc3LTE5LjcxYy0xLjUwOSw2LjA2MS04LjUyNCwxMS4yNjctMTMuNDE0LDE0LjkzICAgYzEyLjExNSwyLjgwNywzMi40OTktMTQuMjY5LDM4LjUyNC0yMy40NDdsMC4zNDYtMC44MDdjLTQuODA1LTEuMTItOS42NS0yLjA1Mi0xNC41MzQtMi43MzRjLTEwLjAzNS0xLjM3OS0yMC4xNzQtMi0zMC4zMDctMS44MjIgICBjLTEwLjEzMSwwLjEzNi0yMC4yNjEsMC45MzUtMzAuMjk1LDIuNGMtMTAuMDQ0LDEuMzkxLTIwLjAwMiwzLjQzMi0yOS44MDMsNi4wNDFjLTQuOTA3LDEuMjktOS43NzIsMi43MzItMTQuNTg0LDQuMzQxICAgYy0yLjQwNSwwLjgwNS00Ljc5NywxLjY1My03LjE3NCwyLjUzNWMtMi4zODIsMC44NzEtNC43NDYsMS43OS03LjA5NiwyLjc1MWMtNC42ODgsMS45MDctOS4yOTcsNC4wOTMtMTMuOTQsNi4yMjMgICBjLTQuNjI5LDIuMTQ1LTkuMjI1LDQuMzY1LTEzLjc4MSw2LjY2MmMtOS4xMzQsNC41NjQtMTguMDg1LDkuNDktMjYuNzgyLDE0Ljg5N2M4LjE1LTYuMjEyLDE2Ljg2OS0xMS42NzMsMjUuNzY1LTE2Ljc5ICAgYzQuNDYyLTIuNTM3LDguOTgzLTQuOTcyLDEzLjUzNC03LjM0NWMyLjI3LTEuMTkyLDQuNTY5LTIuMzM3LDYuODY4LTMuNDc2YzIuMjk4LTEuMTQ1LDQuNjM4LTIuMjUzLDYuOTg5LTMuMzEyICAgYzIuMzU0LTEuMDU1LDQuNzI5LTIuMDcyLDcuMTIyLTMuMDM4YzIuMzk2LTAuOTYxLDQuODEzLTEuODYyLDcuMjQxLTIuNzMzYzQuODYxLTEuNzM1LDkuNzgtMy4zMDMsMTQuNzQ1LTQuNzE1ICAgYzkuOTQtMi43NzksMjAuMDY0LTQuODg5LDMwLjI4LTYuMzc0YzEwLjIyOS0xLjQwOSwyMC41NDktMi4yMDgsMzAuODg1LTIuMjAxYzEwLjMyOSwwLjA1NSwyMC42NzksMC43ODIsMzAuODYyLDIuNTkzICAgYzUuMDksMC45LDEwLjE0OSwxLjk5MywxNS4xMTgsMy40MmM0Ljk2OCwxLjQyMiw5Ljg2MywzLjA5NSwxNC42MjgsNS4wODJjNi4xNjMsMi41ODcsMTIuMTIzLDUuNjg2LDE3LjY5Miw5LjMzOGwwLjAwNy0wLjA0OCAgIGwxMi4wNjgsMS44MzRjLTMuNDU0LTMuODU0LTE2LjA0Mi0xMC4wNC0yMC42ODUtMTIuMTUzYy02LjcwNy0zLjA2My0xNC4zOTMtNi40NjMtMjIuMDczLTguODYybDAuMDc2LTAuMjQ5ICAgQzMxNy4yLDI5LjQ3LDMwMS4zOTcsMTQuODM3LDI4MS4zMDMsMTAuNTE4bC0wLjA2OSwwLjMxM2M0LjMyMiwyLjk1Nyw3LjY0OCw4Ljk4MSw4Ljg5LDE0LjU4NiAgIGMtOS4zNDItNi4zNzUtMTcuMTE3LTExLjUwOS0yOS4yMDItMTAuNzQ2YzUuNTA2LDEuNDcyLDkuODk1LDUuOTA1LDExLjExMiwxMS4yNDZjLTI0LjkwNy0xMi42MzYtNTUuMTE2LTcuNDUyLTc5LjQxNywzLjk4OCAgIGMtNi4yMTMsMi45MjctMTIuMDgxLDYuMjI4LTE3Ljk3LDkuNzMzYzQuMDM2LTAuMDQ3LDguMTQ2LDAuNTg1LDEyLjIxOCwxLjY0MmMtMTUuNDY0LDEuOTY2LTMwLjAyNCw4LjgxMS00My44NTEsMTUuNzg4ICAgYzUuNzA3LTAuODg4LDEwLjkzMS0wLjYyMiwxNi4zNzMsMC4wOWMtMTEuNzA5LDIuNTU2LTIzLjMyMiw1LjYzNC0zMy42NTksMTEuOTAzQzExMy40MzQsNzYuNTE3LDgxLjQ2Miw5NS44MTcsOTMuMjA4LDExMy42ODl6Ii8+JiN4YTsJPHBhdGggZmlsbD0iIzAwODM4MCIgZD0iTTEwMi45MTIsNDI0LjUyNWMxNy45ODQtMTAuNTYzLDkuMTE4LTM2LjI5NiwyLjY2Ny01Mi42ODRjMi42NzQsMS40MDQsNS4yNDMsMy4wMzMsNy41Niw0LjM2ICAgYy0xMy4yMDQtMTguOTY4LTExLjg5My00NS40MDUtMjUuMzI3LTY0Ljk3OGMtMi41MTYtMy42NTgtNS4wNjItNy42MDUtOC43MzgtMTAuNTc5YzQuMTEzLDEuNTgzLDguMzk4LDQuMTU3LDEwLjksNy4wNiAgIGMtNC40MjktMTEuMTUtMTEuMjcxLTIxLjc4Ny0xOS41MzctMzAuOTA3YzUuNTQyLDIuMTI5LDEwLjgzNCw3LjMyOCwxNC4xNjMsMTEuMjg5bDAuMTA0LTAuMDkxICAgYzAuMzM4LDAuNTAzLTQuMTM2LTguMTcxLTUuNzkzLTEzLjQ5NmMtNi4zODMtMjAuNTA1LDIuMDExLTM4LjQzNS0xNi43MTktNTkuODk0YzUuOTc2LDEuODExLDEwLjgyMiw5LjA4MSwxNC4yMzUsMTQuMTQ3ICAgYzMuNDEzLTExLjk1OC0xMi42MTUtMzMuMTc2LTIxLjQ3OS0zOS42NTVsLTAuNzg4LTAuMzg3Yy0xLjM1OSw0Ljc0My0yLjUzNSw5LjUzNS0zLjQ2MiwxNC4zNzggICBjLTEuODgyLDkuOTU0LTMuMDEzLDIwLjA0OS0zLjM0NSwzMC4xNzhjLTAuMzc0LDEwLjEyNS0wLjA4NSwyMC4yODEsMC44NzQsMzAuMzc1YzAuODgzLDEwLjEwMiwyLjQyLDIwLjE0OSw0LjUzMywzMC4wNyAgIGMxLjA0MSw0Ljk2NSwyLjIzOCw5Ljg5NiwzLjYwMiwxNC43ODRjMC42ODMsMi40NDIsMS40MSw0Ljg3MywyLjE3MSw3LjI5MWMwLjc1LDIuNDIzLDEuNTUsNC44MywyLjM5MSw3LjIyNSAgIGMxLjY2OSw0Ljc4LDMuNjIyLDkuNDkyLDUuNTE0LDE0LjIzNmMxLjkwNyw0LjczMiwzLjg5Niw5LjQzNSw1Ljk2LDE0LjEwMWM0LjEwMSw5LjM1LDguNTY5LDE4LjUzOCwxMy41MzIsMjcuNDk4ICAgYy01Ljc5Ni04LjQ1NC0xMC44MTItMTcuNDM4LTE1LjQ3NS0yNi41NzdjLTIuMzEtNC41ODYtNC41MTMtOS4yMjQtNi42NTUtMTMuODg2Yy0xLjA3NC0yLjMyOS0yLjEwMy00LjY4My0zLjEyNS03LjAzNSAgIGMtMS4wMjctMi4zNTQtMi4wMTctNC43NDYtMi45NTUtNy4xNDhjLTAuOTM1LTIuNDA0LTEuODMzLTQuODI3LTIuNjc4LTcuMjY1Yy0wLjgzOC0yLjQ0MS0xLjYxNy00LjktMi4zNjMtNy4zNyAgIGMtMS40ODgtNC45NDItMi44MDctOS45MzUtMy45NjYtMTQuOTYzYy0yLjI3Ny0xMC4wNjgtMy44NzYtMjAuMjg1LTQuODQ1LTMwLjU2M2MtMC44OTEtMTAuMjg3LTEuMTctMjAuNjM1LTAuNjQ1LTMwLjk1NyAgIGMwLjU3Ni0xMC4zMTMsMS44MjItMjAuNjEzLDQuMTQ0LTMwLjY5MmMxLjE1NS01LjAzOSwyLjUwMi0xMC4wMzcsNC4xNzctMTQuOTI3YzEuNjctNC44OTEsMy41ODctOS42OTYsNS44MTEtMTQuMzU1ICAgYzIuODk1LTYuMDI0LDYuMjktMTEuODIsMTAuMjE3LTE3LjE5OWwtMC4wNDgtMC4wMDlsMi40MzgtMTEuOTYyYy00LjAyMiwzLjI1Ni0xMC44MzUsMTUuNTE3LTEzLjE3OSwyMC4wNDcgICBjLTMuMzk2LDYuNTQ0LTcuMTc5LDE0LjA0OC05Ljk2MSwyMS42bC0wLjI0NS0wLjA4N2MtMTYuNTA4LDExLjA3Ny0zMS45MTcsMjYuMTI0LTM3LjI0Miw0NS45NzVsMC4zMSwwLjA4NSAgIGMzLjE2OC00LjE2OCw5LjM1NC03LjE4NywxNS4wMTMtOC4xNDZjLTYuODM2LDkuMDEtMTIuMzU0LDE2LjUxOS0xMi4yLDI4LjYyNWMxLjc0OC01LjQyNSw2LjM5NC05LjU4NSwxMS43OTEtMTAuNTMyICAgYy0xMy44NzEsMjQuMjQtMTAuMjE2LDU0LjY3MS0wLjAxMyw3OS41MTdjMi42MTEsNi4zNTMsNS42MTMsMTIuMzc5LDguODE3LDE4LjQzOGMwLjE1NS00LjAzNCwwLjk5NC04LjEwNiwyLjI1NS0xMi4xMiAgIGMxLjE4NSwxNS41NDQsNy4yODgsMzAuNDMsMTMuNTYyLDQ0LjU5Yy0wLjYtNS43NDUtMC4wNzEtMTAuOTQ5LDAuOTE0LTE2LjM0OWMxLjk2MywxMS44MjIsNC40NTQsMjMuNTc2LDEwLjE5MywzNC4yMTYgICBDNjYuODA2LDQwMi40NTIsODQuNDczLDQzNS4zNTcsMTAyLjkxMiw0MjQuNTI1eiIvPiYjeGE7CTxwYXRoIGZpbGw9IiNGNzkyMUUiIGQ9Ik00MTYuOTYyLDM4OC4wODljLTExLjA0OC0xNy42ODktMzYuNTI4LTguMTI0LTUyLjczNC0xLjIyN2MxLjMzMi0yLjcxMSwyLjg4OC01LjMyNCw0LjE1Mi03LjY3NiAgIGMtMTguNiwxMy43MTgtNDUuMDYzLDEzLjEzMS02NC4yNiwyNy4wOTVjLTMuNTksMi42MTMtNy40NjYsNS4yNjYtMTAuMzM3LDkuMDIyYzEuNDY5LTQuMTUyLDMuOTI1LTguNTA4LDYuNzU5LTExLjA4NyAgIGMtMTEuMDI1LDQuNzMxLTIxLjQ3MywxMS44NjEtMzAuMzYxLDIwLjM3NGMxLjk3Ny01LjU5OSw3LjAyOC0xMS4wMjksMTAuODk2LTE0LjQ2NmwtMC4wOTItMC4xMDMgICBjMC40OTItMC4zNTMtOC4wNTcsNC4zNTctMTMuMzM1LDYuMTYyYy0yMC4zMjEsNi45NC0zOC40NzUtMC45Ni01OS40MTMsMTguMzVjMS42NDctNi4wMjMsOC43ODEtMTEuMDY3LDEzLjc1NC0xNC42MTYgICBjLTEyLjA0OC0zLjA4Ni0zMi44MiwxMy41MTgtMzkuMDUzLDIyLjU1NWwtMC4zNjUsMC43OThjNC43NzgsMS4yMjksOS42MDIsMi4yNzMsMTQuNDY4LDMuMDY3ICAgYzEwLjAwMSwxLjYxLDIwLjEyMywyLjQ2MywzMC4yNTcsMi41MThjMTAuMTMyLDAuMDk4LDIwLjI3Ni0wLjQ2OCwzMC4zNDItMS43MDNjMTAuMDczLTEuMTU4LDIwLjA3NS0yLjk3MSwyOS45MzQtNS4zNTQgICBjNC45MzUtMS4xNzgsOS44MzMtMi41MDgsMTQuNjgtNC4wMDZjMi40MjQtMC43NDgsNC44MzQtMS41NDEsNy4yMy0yLjM2OWMyLjQwMS0wLjgxNSw0Ljc4NS0xLjY4MSw3LjE1Ny0yLjU4NiAgIGM0LjczLTEuNzk4LDkuMzg5LTMuODc5LDE0LjA3OC01LjkwMWM0LjY3OS0yLjAzNyw5LjMyNC00LjE1MSwxMy45MzMtNi4zNDNjOS4yMzUtNC4zNTQsMTguMjk5LTkuMDczLDI3LjExNy0xNC4yNzcgICBjLTguMjkxLDYuMDIxLTE3LjEzNCwxMS4yODEtMjYuMTQ1LDE2LjE5MWMtNC41MTksMi40MzYtOS4wOTUsNC43NjUtMTMuNjk4LDcuMDMyYy0yLjI5NywxLjE0MS00LjYyMywyLjIzMi02Ljk0NSwzLjMxNyAgIGMtMi4zMjUsMS4wOTItNC42ODksMi4xNDYtNy4wNjQsMy4xNWMtMi4zNzksMS4wMDEtNC43NzUsMS45NjQtNy4xOSwyLjg3M2MtMi40MTYsMC45MDYtNC44NTQsMS43NTItNy4zMDEsMi41NjYgICBjLTQuOTAyLDEuNjIzLTkuODU0LDMuMDc4LTE0Ljg1MSw0LjM3NWMtMTAuMDAyLDIuNTQ5LTIwLjE3MSw0LjQyNi0zMC40MTksNS42NzdjLTEwLjI1OCwxLjE3Mi0yMC41OTQsMS43MzYtMzAuOTI3LDEuNDg5ICAgYy0xMC4zMjUtMC4yOTMtMjAuNjU2LTEuMjU2LTMwLjc5NC0zLjMwMWMtNS4wNjgtMS4wMTgtMTAuMTAxLTIuMjI3LTE1LjAzNi0zLjc2OGMtNC45MzYtMS41MzUtOS43OTEtMy4zMi0xNC41MDctNS40MTYgICBjLTYuMTAzLTIuNzI5LTExLjk4OS01Ljk2Mi0xNy40NzQtOS43NDJsLTAuMDA4LDAuMDQ5bC0xMi4wMjQtMi4xMWMzLjM2NSwzLjkzMiwxNS44MDgsMTAuNDA1LDIwLjQsMTIuNjI0ICAgYzYuNjM1LDMuMjE1LDE0LjI0LDYuNzkzLDIxLjg2NCw5LjM2N2wtMC4wODEsMC4yNDdjMTEuNTI0LDE2LjIsMjYuOTg2LDMxLjE5MSw0Ni45NzcsMzUuOTcybDAuMDc2LTAuMzExICAgYy00LjI1Mi0zLjA1Ni03LjQzOS05LjE1NC04LjU1Mi0xNC43ODdjOS4xOTIsNi41ODgsMTYuODQ5LDExLjg5OSwyOC45NDgsMTEuNDE1Yy01LjQ3Mi0xLjU5OS05Ljc1Ny02LjEzMS0xMC44NTItMTEuNDk5ICAgYzI0LjYxMSwxMy4yMDUsNTQuOTMyLDguNzE3LDc5LjQ4Ni0yLjE2MmM2LjI4LTIuNzg0LDEyLjIyMi01Ljk0OSwxOC4xOS05LjMxOGMtNC4wMzYtMC4wNDUtOC4xMzEtMC43NzItMTIuMTc4LTEuOTIyICAgYzE1LjUwNi0xLjYxLDMwLjIyLTguMTE5LDQ0LjIwMi0xNC43NzdjLTUuNzI2LDAuNzU4LTEwLjk0MiwwLjM3MS0xNi4zNjYtMC40NjVjMTEuNzY1LTIuMjg1LDIzLjQ0NS01LjA5OCwzMy45MjUtMTEuMTI2ICAgQzM5NS44ODcsNDI0Ljc4Niw0MjguMjk1LDQwNi4yMjUsNDE2Ljk2MiwzODguMDg5eiIvPiYjeGE7PC9nPiYjeGE7PC9zdmc+;" vertex="1" parent="GPzBYBWvHa93N3hvbvar-22">
          <mxGeometry x="111" y="5" width="35" height="35" as="geometry"/>
        </mxCell>
        <mxCell id="GPzBYBWvHa93N3hvbvar-25" value="" style="shape=image;verticalLabelPosition=bottom;labelBackgroundColor=#ffffff;verticalAlign=top;aspect=fixed;imageAspect=0;image=data:image/png,iVBORw0KGgoAAAANSUhEUgAAA3sAAAHaCAYAAAC5ElCBAAAABmJLR0QA/wD/AP+gvaeTAAAACXBIWXMAAAsTAAALEwEAmpwYAAAAB3RJTUUH3wwGFCQngOrp5gAAIABJREFUeNrs3X10VfW97/tvGw105QHCOKFZAa8LoiTD0GpJgu093TWE9vTsDQj77m7xAVvRtmoVa2sfHNdiQdsxtO5aLa2I3SK7gIDd3YMInvYcNQn7dp9bCLE+gDeLCkmHyQom9xKaxYpGzeH+MVnkaT3MOddcc/5+c75fYzhaUcxiPc3fZ35/v+/3I2fPnj0rAAAAAABf+ShPAQAAAAAQ9gAAAAAAhD0AAAAAAGEPAAAAAEDYAwAAAAAQ9gAAAACAsAcAAAAAIOwBAAAAAAh7AAAAAADCHgAAAACAsAcAAAAAhD0AAAAAAGEPAAAAAEDYAwAAAAAQ9gAAAAAAhD0AAAAAAGEPAAAAAAh7AAAAAADCHgAAAACAsAcAAAAAIOwBAAAAAAh7AAAAAEDYAwAAAAAQ9gAAAAAAhD0AAAAAAGEPAAAAAEDYAwAAAAAQ9gAAAACAsAcAAAAAIOwBAAAAAAh7AAAAAADCHgAAAACAsAcAAAAAhD0AAAAAAGEPAAAAAEDYAwAAAICgGukXGToqMppw/UdfwLMPAAAAAA4baBXp2S0yMmD8/bRykU9tIewBAAAAgJaGu0Te2iQy3D3x10cGjH8WmkfYAwAAAADtgt7R9SKjw6n/+bTZrj4czuwBAAAAQL6DXmG5SEGRqw+Jyh4AQC9DR8/975H0/07pQuN/iyKuX1gBAAE00CLSvTV90BMRmVHr+sMi7AEA1DbSLzJ4SOTUwbGgl9WeiX8bihhbZ4rmGX8l/x4AACeC3vFfZP/3witcf2gfOXv27FleIQCAkiGvZ4/RzSxfSmuNKmDpQuP/AwCQj6BXWity2YOEPQAApGeP8ZfbSmuNLmkXnNv6eUFR5q5p08qpEAIAQS+zgpBI7YOuduEk7AEA1HR8U36reW4KRcaCY8pwuTD9PyNoAoD+QU9EpOpOkfImTx4mYQ8AQNDzo2xBc9rssbCY/P8XhDy58wwAWjm532jGYsbca0TmXuvZQ6VBCwBADQMtBD0nTR7mO0WGZjfJqmHpQqOhTWktXU0BQMTaTcnyRk+DngiVPQCACkYTIq/cmrllNbw1rVyk7EqR2Uuo/gEg6JkJelV3ef6QCXsAAO/17BbpeY7nQRehiMjc1SKzruS5AOB/owljWHrWHRPnlC0Wqb5XiYdO2AMAeH8Rpaqnp9JaY0HDFk8AfjXcJfLWJvNBT5GKXtJHeQUBAJ7qbyHo6WroqHG3ezTBcwHAh99xR6xV9BQLeoQ9AID3aMqit+Fuke6neR4A+EvPHpE37zd/M1LBoCdCN04AgKdBocv8HVOoa+gozwEAfxhNGNs2Bw+Z/z2KBj3CHgDAW337eA78gDN7APxg6IhI9CFrRwsUDnqEPQCAd0b6RQbaeB78oLSW5wCAvkYTIm/vMYalW1F1p0h5k9J/NMIeAMAbPbt5DvygICRy0bU8DwD0dOqgMT/PaqMwDYIeYQ8A4OEF9hDPgR+CXu2DbOMEoJ+hI0YTFqtnjpPfe6F5WvwxCXsAAG8wbkFvoYjIJeu0WfAAQE4hT9PvPcIeAMAbBSECn44Ky0UuWq3F9iUAEBHjjPjgIaMp2MiAvf9Gaa1I9b3a7WQg7AEAvFG+ROTkCzwPugS8GbVGwCtdyPMBQF2jCZFEtxHwEl1GJS/XET8Vy0Qit2j5dBD2AADeuOhaYxsNc/bUEoqITJstUhQxtioVzTP+HgC8NNI/VpUb7hL5MGH8Ndxl/Fqiy/ndIgUhkcjNWu9k+MjZs2fP8u4BAHhiNGHMNGIot7UwdoGFbUQFRUZwS/nr486dULED9Dd4aKyaNTkgjR+RMm32pL/K3b+pM/57f6Tf+Cvl/x/w5rksLBepuVf7c8mEPQCA93p2i/TtD+4ZvvEBLrkgGx/GkgsyAEj5HbrHOI+W63do8rto8s2fonmpz6olQ+Vk4ytuSfmovOVL2WKjEYsPOg0T9gAAahhNGIuV/laR9weC8+de8H2RWVfy+gNeGV9hShdeVDbQ4l31y48uXisSXuGbPw5hDwCgnlMHjUXXqUNqBb9sFbjurdbPIDZsZ04d4JbRhLGLYOgI28cx9fvdh+NkaNACAFDPrCuNvyK3GGc2ho4YW4CGu53fCuTkFsrkOROzSmsJeoCbjq6nKRSm0rjbJmEPAKC3abONTmjlk349ud0q0WXcrT//60enBqpcApxZQ0esh9Cyxby+gFt6dhP0MFFhuVHN83GDKsIeAEBPyYuzKhfpUwet/54ZdMAEXDPQynOAMXOvMc7m+Xx3BWEPAAAnWD3/U1juu7MhgLK8bOEPtfj0bB5hDwCAfC4krW4Pm1HL8wa4+RlFsBWWi1y0WusB6YQ9AAC8YKddexnjFgDXJLp4DoKqICQSXh6ILZuEPQAA8uHUIeu/h/N6gHvGN3ECIY+wBwAATLNa2WPkAuDyZ5SZeoFRWC4ye0ngQx5hDwAAp4IeIxcAtXFmz98KQiKzFhvn8UrZNUHYAwDAKYxcADQIezY6cZY3Oj+P065Et8jgoeC+foXlItMnvRbJHRIzFtLZmLAHAECeMHIBUNuwzeYskVvU2gbYs1ukv1Xkfc1GSBSERIrmTQ1q44XmiVww7rkumscWTMIeAAAeY+QCoL73bGzhLAipFzbmXmv8NdxldBcd6Z86PzDRZX1beTZTgllkYjCbNntiBXTy34OwBwCAlhi5AKjPTmWvSOHqe2ievd0Bk7+vPkwYYXH8n/WCInYeEPYAAICIMHIB0IGd5izTyv33PNC4JJA+ylMAAIBNjFwANAh7Ns64sQ0RhD0AAAIe9Bi5AKgvYWMbJ1UwEPYAAAgwRi4A6htN2GtYQmUPhD0AAAKMkQuA+hI2xy4Q9kDYAwAgoBi5AOjzWbUqFOF5A2EPAIDAYuQC4N+wR1UPhD0AAALMzsiFWYQ9wHVWt1uLiBRFeN5A2AMAILgLSIuVPbpwAt74MGH993C2FoQ9AAACHPSsdvcr5bwe4AmrZ2tFRC5gFiYIewAABJOdkQts4QTcZ+e8nggz9kDYAwAgsOyMXKDhA6BH2Css53kDYQ8AgMAuHq1uC5vFeT3AE3a65k7nxgwIewAAsHg0iy1hgDfsNGfhfC0IewAABBQjFwB92GnOUkBzFhD2AAAIJkYuAPqwc2aviLELIOwBABDMoMfIBUCjsDdA2ANhj6cAAAATGLkA6MPO+dqCENs4QdgDACCYi0dGLgDasNOchaoeCHsAAAQQIxcAvQx3Wf8905ixB8IeAADBw8gFQC+Jbhthj0o8CHsAAAQPIxcAvYzambHHDRoQ9gAACB5GLgCafWaPWv89VPZA2AMAIIBBj5ELgD7sVPUIeyDsAQAQQIxcAPSSsNGcJRTheQNhDwCAwGHkAuD/sMdnFoQ9AAAChpELgH7sbOMsivC8gbAHAECg2NnCSUc/wFt2mrOEGKgOwh4AACwas+G8HuCtkX7rv+eCIp43EPYAAAiUQYvz9Ri5ACgQ9gas/x4q8iDsAQAQILa2cDJyAfDUsI3mLIXlPG/wrQt4CgAASMHqIHURkYFW69VAAM750EZzlul04gRhDwCAYLET2qx27gTgPSry8DG2cQIAMNlIv71zPwD0U0BzFhD2AAAIDjvn9QDoqYixCyDsAQAQHHZGLgAg7AGEPQAAFEeTFSAYCkJs4wRhDwCAwGALJxAcVPVA2AMAIEDsjFwAoKdpzNgDYQ8AgGAYTbCFEwhU2GPGHvyNOXsAAIiIDHeJvLWJkQtAkJQu5DkAYQ8AAN8HvaPrRUaHeS6AIKGyB8IeAAA+duqgyPFNBD2AsAcQ9gAA8I2BFpHjv+B5AIIoFOE5AGEPAABf6tlj/AUgmKjqgbAHAIAPHd8kMtDK8wAEWVGE5wCEPQAAfGM0YXTcZLwCgBAD1UHYAwDAP0Hv6HqR4W6eCwAiFxTxHICwBwCA9oa7RKIPMUMPwBhm7IGwBwCAD4IeM/QAjFdYznMAwh4AAFobaBHp3up80CutFbnsQZ5fQAXDXSKv32Pt90ynEycIewAA6B308jVDj/lcgDre67f+e0pred5A2AMAQEvdW0VO7s/ff7+ILn6AMoa7rP+eApqzgLAHAIB+3JihxzBmQB0jNip73LABYQ8AAI2MJoyOm0NH8/+z6OIHKBT2bHTZJeyBsAcAgEZBz60ZepzXA9Ri9QZPQYhtnCDsAQCgBbsz9MoWGyHR6kKRLZyAOkYT1n8PVT0EyEd5CgAAWge9o+utB72KZSLV94p8aGehGOF5B1SRsNGcZRoz9hAcVPYAAHqyO1qh6k6R8qZzYbHb+u/nvB6gDjvNWajOg7AHAIDPgl5ByKjmJcOanXbtImwBA1QKenY673LDBoQ9AAAUZWe0Qigicsk6kdC4oGZn+xeNHQA1Ql7PHvsjVi7gMwzCHgAA/gl6tQ9ODWnM5gKCFfLOfyfwOQZhDwAAddgdrVDeKFJ1V+p/ZmceX2ktrwWga8gTYXQKCHsAAPgi6F28ViS8Iv0/t7ONk4oAoGfIS6I5Cwh7AAAoIjlaYXTY/O8pCIlUrROZdWXmAGnlv5k0nYUioGXIS2J0Cgh7AAAoYOiIMSzdatCrfTB7BS5hsxMnlT1Az5CXRGUPhD0AADxmZ7RCukYsToU9zusB+oY8wh4IewAAKODkfpHurdZ+T3mjSOQW82MR7MzYm1bOawPoGvKSmLEHwh4AAB6xM1ph7jUic6+1uMgcsP7Y2MIJ6BvyREQKuWEDwh4AAO4bTRjVPKuLv6o7RcqbrP88O2MXmLEH6BnykmiwBMIeAAAeBD2roxXMNmJJt+C0g+1fgP3PeN9+I+h5iRl7IOwBAOCikX6j46aVoBeKiFTfa7/Rgp3mLGz/AuyHvL599kadOI3mLCDsAQDgEjsz9MoWi1yyznwjlnQ/1yq2cAJqhLyCkEh4uciHCZGTL/A5Bgh7AADlnDpoNGOxshAsbxSpuiv3n53othH2IrxmgAohL7zCuNnTs9vG55iwB8IeAAD5ZWeGnt1GLKnYqezRiRNQI+Ql2blpk8uOAICwBwBAFj17rDVpKAgZ5/OcbI5iZ+wCFQFAjZA3/mdbUVrL6wXCHgAAeWN1hl4oYpzPc7KqNnTE3qKTxg6AGiEv6UOLYW8aTZZA2AMAID8Lw7c2iQweshb0ah90ftuVnbELVPUAdUJekpUOviLcsAFhDwCAvCwOrc7Qc6oRSyp2xi4wmwt8jtUJeXYxJxOEPQAAHDTcZVT0rAS9i9cai768PaZu67+Hyh4IeWqFPDsV+gtozgLCHgAAzgU9KzP0CkIikZud67iZToIZe4C2IS+XsEdHXRD2AABwwECLSPdWa0Gv9sH8L8ZG+u0tXFkkgpCnRsizi63YIOwBAOBQ0LMyQy9fjVjShT0WiYD+Ic9qhZ7mLCDsAQCQo+6tIif3m//3yxtFIre4d5ffztiFIsIefG6gVaRnt735k159xq3O2ONzDMIeAAA5sDpDr2KZsQh0k53KHhUBEPLshby51+bv82N5xh6fYxD2AACwbjQhEn1IZOio+d9TdWf+G7Gkkui2/nto1w5CnjohL4kZewBhDwDgQtCzMkPPrUYsTi0QRejECUKeSiHPLm7agLAHAICV4NRlVPTMLhxDEZHqe71bDA7bGLlQWO5+10CAkJedlS3ZheW8B0DYAwDAUnCyMkOvtNYIel4GJzvz9aaz9QuEPKVC3vmwN8DnGCDsAQCcX0BanKFX3ihSdZf3j9tOc5bSWl5vEPJUCnl2MD4FhD0AAEwGPSsz9LxqxJKKlQYy5xeJnNcDIU+5kGd1hArNWUDYAwAgCyujFQpCxrZNlZoi2Kns0ZwFhDz9Knl8jgHCHgAgT0GvsFyk5l61qmKjCXsLYSoCIOSp9+e2OmOPsAfCHgD43HCXyIfnzphNK2cRbyUkWRmtEIoYoxVU62BppzkL5/VAyFP3+9yKIHTUHX+NO7/CD7EVHYQ9AJoEjuQw7PFnNRJdxj8TMbboObXwSS7yC4rG7ghPmz22+AlKCLAa9FRpxOJU2KOpAwh5+tPl+zrVde7DxMRgm4/r3ORrXXLrPTe7CHsA4PhFbjRhLMqTF7gPE/aGYOdqfCOPwUOp/52CkHFxDM0z2nqH5vmrYmh1tMLca4yFosp/Hquo/kIVQ0eMrdSEPEPCwnVhmkIz9oaOngts/WM3KxNd5r9n83Wdm3Ct2zM1FCbDYNG56xzVQsIeAGS92CW6jAW4Vxe6nAPqsPFnSdXhsbTWuDtaNG/sQunXoFcQEoncrE7HzXTsLJI55wMVQl7PHnudZP0Y8s5//1o4s+f2ny958zJ5fTsf7IY1fQ8enRQGx13nQvNEZiw0dkFwc4ywByBgkhe8oSPGX05uP9Hh4jh+cRaKnAt+C40LpMoXRSujFQpCxvk8He7y2lksq9RJFIQ8Qp49+fwcj/Qbu08SXWM3MIN2nTu5f+x6ULpQZNaV6l/nCHsAYPOLP3knc+hIcC54Zgx3G38lu1mGIsYFcdZitYLSyf3GsHQzVG3Ekm5BZhXn9UDIU/t6Y3qVW+Tszx3uEvnruZuYulbr8mF02Kj+JSuAoYgR/mYsFClbzPND2AOgncFDxgVvuCs/C5MghL+ePcb5h7Irx+6GesXKaIWyxSKXrNNne2qC83og5AX2PW33htpowng9uM7ldp07ud+o+s06d50j+BH2AKi6GDk6tiWTi55zRgaMi2HygljeJBJe7t7CbDRhVPPMBr2KZSKRWzRbdNgIe0UR3psg5Cn5nWmhUm+1Qp+8iTl0xJvmYH41OmxcYwZax4JfeDmNXgh7ADxfIJ86RLhz+4KYDH6ltUbwK1+S36BnZbRC1Z3qN2JJxUrnviTO64GQp3/Yy/YccJ3zNviFIiLhFcaRhiDMQiTsAfDc4CGRUwc5c6fEYvDc4ffup42LYfkSZxdvI/0i0YfMBT2dGrGkW9BZxTZOEPL0N7lCn9yaeeqg8Rdn7jz+bu42jhB0e7CrhbAHIBBG+scufOnmycFbo8PG4rBnjxH45q7O/WJoZbRCKGKcz9N5u43VGxcFIRYcIOSpysoZ3Gmzjetccnsm1zl1r3PJXS1OXedA2AMCHfAGWo2Ax5kEvSS3vuRyMRw6YlT0zAS90lqR6nv13l4zdMT672G+Hgh5CgcDCzP2evaIjPyC92HQrnMg7AGBDHiDh0T6Wwh4frkYnjpobO8MLzcfxqzM0CtvFKm6yx/vfau87IoKQh4hL7MPLYQ9jiP4I/RFbuZMH2EPAAEvYJLbO/v2iVx0rUjF8sz/fnIrqBm6NmJJhbELIOT5C9ez4IW+5M3Nuat5Pgh7QNADQML4YiTgBSv0dW81XvN0Z+vMztArCIlUrTPaYgd5Ycg2ThDyALWucz17jN0pVevolmzDR86ePXuWpwHQWLKCx+FzzF09trVzNCHy1iZz74vCcpGae/0396h9jfWOe5/+N95HMGek37jZko/vXkLeRMkKD9c5VCwXuWg1WzsJe0AAFhl9+407XbSPxnjTyo3B52/vNlfZCkWM0Qp+u3CO9Iv86TZrv6e0VuSyB3kPIft7q2ePuYo5Ic++4S6R/lauc0h9naPKZxrbOAFdjCaMAbB9+9imiQwL0QGj46bZhaUfGrGkW5DbWUAAhDyuc1D/Ovfm/UaVL3IzzwdhD9DccJdRxWMIrHGujDu8zph7jbG49Cs7YxdCnNcDIc+zz2uyAyNg1sn9xnvHj7tTCHtAAAy0+ufuZkForPFFKCJywbkv5WmzxxY5FxQ5s9ge7hprzz1+wZ9snpDoCnZgLAgZd0L90nEz0wLdKpqzgJDnnmQVr2e3P8YkFJaLTJ899ToXmjf2/5PfM7kEk9HExE7DI/1j33dBvM4Nd4u8cqsxF5ZtnSlxZg9QbXGRDHk6fVEnw1xBkUhR5Nz/znMuwOXD0BEjFA53nbtYDvj/AlkQMu6ABqGC9fq3rd8oadjO3WEQ8tx4fnU9c15aa2z3Tt6oHP+XkkHo3M3PoSNj17l8dI1VhZ9GBzmIyh6gSvDQYQtLMtSFIsbFrWhe7ncpPbton7sDOHnUwHCXEfoSXcZF0U/nRkoXBmerotXXrbCcoEfII+Tl+zrXt1/9jpp+us4lv+8nV7xG+o3Xw2/XueO/MP48Vev4PhuHyh7gJZW3ahaWn7vIRYwLhcp3L91YpCS6jEWK7ndFy5f4/0I43CXy+j3Wfk/ZYmMbEAh5hDznqL5Vk+vcxOvc0BHjGsd1zleo7AFeXPySW1hUuviV1hp3MksXGhc/Wn+Pe24WGn+FV5xbvBw0LoqnDum3DWmg1diG5OfmLO/ZOa8X4X1OyCPkOX2dU+lIQrJiV1prVLxmLKSan+o6l3z9/npEZPCgyF+Piryv2ZnK5Gc6cjOvsVDZA4J58SsInftirzUueHQhtG+4yxhqf+qQXhdEP59t6Nkt0vOctd+z4PtTt/SCkGd5wVwrMnd1cBtFqHQej+sc1zlmpxL2AO0XFlz01HLqoHEndKBN/cfq52Ytb663vg3pU09Szea7mJCn83Uu6eK1XOfyHfz69umzs4UtnYQ9IG+8brpSWnvur4W0I3ZbcqvnQKvaZx+mlYt88lH/bXP5063WtkgXhEQadvC+JYgQ8uxc51RqukIlx/3rXN9+9Ru8BDzwcWYPyMfFr2eP+4v8gpDIrMXGomPWlexT91JBkbFFsrzpXOhvUbPaNzIg0r3VXxfB0YT1s7DM1/PvYrR7KyHPT9e5bKaV877nOjdV8jsgoIGPsAfofPErLDcC3qwrqd6pKllZnXutcZZMtYvhQKuxcPXL+b3xw4bNCkV4n/ot5OXrfDQhz5vr3Ixac9+dbN3kOheUax1hD3DRcJdx99iti18oYmxJmHUlZ4x0Mm22SNVdxsVwoMV6A5F86t461nY8iGGPyh4hj5CnVshL3sic3WQEuKEj5gIEn2V1rnMqhr7jvzg3QzFY7xPO7AF2uXkgnYDnz/dP91bOujgeXJ8WOfmCtd9z2QNUxgl5hDyvQ17yOpequcpAi7FQz+bT/8bnQbl1kmKhryAksmhLoI66UNkDVA15BDx/mzbbGOI9dMQIfV4fcB86aiyWwyv0fl7tPI8EPUIeIW/qde74pvyHPLPXuZF+c/8tqHedq7rL2DqpwnVOxPiuOLreaE5G2APgeshLbl0JryDgBUXpQuOiM9BiXAy9bGXds0f/mwtWF6csEAl5hDz1r3Nmwl4Rn2WucyYNdxsVx7nXEvYASP6HoSe7aJY3UWEIMhXOmowOGxfi6nv1Xahaft5ZIPJdTMiT0YTI23tETu7P388obxQpu9K4oWT5s22iwy43SNVX3mS8/m9t8v4IQ89zxmMJwPk9wh6Qycn9Im/vzk/IK60d277CmIRgG+4ytpWoMKB28JAxO8nOgsxrdpqzsEAk5AU55IkYlbx83cwMRUTCy3O/zpm5kcPNUj0UFBk3FE8dNLYKe3nde2tTILZzEvaAVE4dFPnLVuvzurJhmyYmM9t4wE1/2Wo0SdDtJsSwjbDHApGQF9jvnlZjK5sO1zkzj5FOnHqZdaVxnYk+5N28xoBs5yTsAePlq/NY2eKxKh5gJegVhNy/8zkyYCywdbsAJrqt/x4WiIS8IF7n8tEsI1/XOTM3cQrL2SGjo4Iiowt0z27vxhEFYDsnYQ8QyU8b/IKQceGjiodUjm/K3gQhFDG2u4wm3N/m2bffOF+h03vX6pm9ghALREJesK5zTnfYdOM692Ei+7/DTRu9zb3WCFtebevs3uqP0UOEPSANp88rOHVGAcEOemWLRS5ZN/YeWrTFCHxuta4eHTbutlbdpc/zavW5YYFIyAvS89uzx7n/ZmG5yEWr3bnOmTmLS6Ml/c26UmT6bOMcndsjGoaO6ntWnbAHZOD0ubzyRjpqIvuiy0xgq1gmErll4q8VFInUPmgMDXdrQO1Amz7v6aEj9oIACHlc58wrW2zczHTzeR01UdnjuusPoXnGdc7NG5tJup5VJ+wBKTi5laUgZFz4dNvuBnWDXtWdxvsp5futaKzS5lbg69kjctlCPT7XdhYW8Ea+Oh0T8gzDXcbWNKeuc14eSTBzFpfrr38kb2y63bhF17PqhD1g0mLbqa0sheVGyJvdxFZNmFt4ZTtzVxAyLnBmAkjVXcZi1o0unkNHjaqZ6otnO2MXprNAdF2+OkAS8sauc07Ny0tu1Ux388nNP1O2MErY81/gu+xBkeM/d+/GpoixRgyv8N26jrCHYHBqK4sqFz/4K+glG7FYWbAk34NuBD4dqnt2tvxQ2SPk+e057n4692qpate5bDdyOHvrX27vZBkd9mV1j7AHf3Nqy2ZprUjFckYnwOLiy8RohcmNWKxwK/ANHTVCq8rhyGplj/N6hDy/cGrLpqrXuWzhlc8ygc9JPqzuEfbgX0502WRBgXwGvVSNWFQNfH371O3MOZqw/jkPRXiPEvL8cZ3L9WiCys+pmcZLVOiDEfgS3e40bfFhdY+wB/8Z7sq9dW95o/FB5xwA7Ojemv3MTKZGLHYC34cJkb88k8fFe5sRTFW822nnvB6fbUKezoaOGLtWcnme/dJBmm2cweBml06fVfcIe/APJxqwlNaKRG7mTiHsyzZDz0ojFivCK4wbHfnc6nLqoJrnVe2MXWCBSMjT9TqXawMWnW5mmvlsc+MmGJJdOl+5Nf+D10eH1b3eEfYQWLne5WRBAScWYdlaRdtpxGJF1V0iHw6LDB7KU9g7pObFz87YBT7rhDzd5NpozI87VjivF8zA9/o9+f9ZPXsIe4AyC+zurZkrKSwo4Mb7MNv2klwasVhxybr8bXUZPGT8WVXb2pKw+GctLOc9S8jT6/vlrU32b+Lo/JxmazrD2dvgCc0zjkHk+5z6yIBxg8UHjfkIe9DXqYNGNc9OOZ8FBZwy3GVU9DItep1oxGJWQdFY4MvHVhcVt7ZYDbaXTYc3AAAgAElEQVRs4STk6SKX4fN+eE4/TPBZxlTlTcaOrnx36BxoJewBnsjlLmcoYpzJY0EBp4JetlDlZCMW0+/zecb7PB93PlXbyjlsozlLUYT3LiGP65wW37HdhD2kFrkl/x06Vd3NQtiDrw0dMaooVu9yMgwdji9+W4wtxOnei/lqxGJWeZMRzJw+v6faxe89zusR8nzG7q4Vv13nRhMmgi1hL7CSu1jyfX6vv8VogEbYA1z40rfTgawgJBJe7qt5KVAk6GWqmuW7EYtZl6zLT+eyRJc6i/Rhxi4Q8nx0nbNTzfPrzcxsI1U4r4fQPJG514j0PJe/n3FyP2EPyDu7nTbnXuOrOSlQRLYZem41YjGjoCg/2zmHjqizWM/WwGHKcxIi7GV7bbu3Or81ipDn/HUueTPTr9e5rOf1CHsQ42b+qUP52845MmDcVNS4ikzYg94L61QYiI58yTZDz81GLKY/D01GVfx9Bys0VgNWPlkdu8AZn/Rho2eP868tIS8zu7tWyhYbN3L8fJ3LVrVnCyeSIjeLvHl//v77fz1C2APy8iX/1iZrd2pYVCCfC7JsM/S8aMRi1iXrnL0QJrrUeV2sVvyZy0XIU+m5t1rNC1KTMTpxwvT3zULjRn++unMOtGq9lZOwB/Wc3G9U9MwqCBkXP5qvIF+BItPcOq8bsZi9EJbWOregHx02KmpeVxUSnNcj5GmqZ4/xF9e59LLd7OU9hvGS2znzMXJouFuNax5hD9ob6TfuclpZfFQsE7noWs7lIU+LjSwz9FRpxGJG+RJnF/ZDR7xfeNoJe0GvBuQr5DHWxvx1LvqQtV0rQT1/nmmLNs1ZMNm02cYZ1nw1azl1UNvqHmEParDaarq01lhYsGcf+Qx6mWboqdSIxVTYa8o8KsJO0CpXeDGYdpEY0O+MfIU8xtqYZ3VAehDO5WX8fA9kXtgDk4VXiPTtz091b+goYQ+wxerh9MJy4+I360qeO+RPthl6KjZiMRX4loicfMGhMNytQCC3+BiCWA0g5KlxnbMyUqGw3LiRFOQqabYbOXTiRCr56kCd/C7VFGEPHi7ULDZhYZQC3Ap6mS4UKjdiyWZ2k3Nh78OE938eqwEmSAtEQp46r0P0IfOVhrnXMBfWTNhjuzDSKW8yqntO35AcHVZr7BBhD8qzsp2ltFakah3bNpB/mUZ96NCIJZvQPGOx7sQYBq8re2zhJOTp/H3CdS63zzedOJHJ3NUixx7Oz/crYQ/Iwsp2loKQ8YHVuN0tNJJphp5OjViymVGbv/bUqoc9Py8QCXnqsLJrhW7S1j/fheXs8EFms6507sbmhO/Zo1o+HYQ9uHsBzNTZcDzdml9A7xsQmWbo+e29WHalc2FvuMu7apmd8xN+DHuEPLVY2bXCdS69RHewPsdw3kWrnT+7p8qMWcIelL0AmpmdRwMWuB30Ms3Q07URSyZOfra8PLeXaTGY7rvFT4tqQp563yVmd63QgMXc85k27EV4fmDuWudkB2oRdWbMEvag3Bd2pqrJ5IU1M/PglmxbrXRuxJJN2WLznQFVDXtWt3FOn+2f9233VkKeasHbbBMWGo2Zk6mCwsglmFFQlJ+5eyrMmCXsQbsLIMN44cWCOd0MPT80YsmmtNaZsDfc5V0V3mqDmNJavV+zkX6jkpfuXCkhzxs9e4y/sglFjGoeQcWcTOsGtnHCrPAK58OenfPihD0E+gJIm2m47dRBoxlLqsWEnxqxZDLrSpG/PKPv47dzXk/XRTYhT93XJfqQuZsOXOesGc5Q1SsI0bEU5hUUiZQ3OtuUTMMmLYQ9OMvstk3ucsILmWboBalZwrTZ+elU5uZC2yrdqgGEPHVlumHEdS53mbaHU9WDVXOvdTbsUdlDoJndtsnZPHghU7XZj41YstF5BIOdi60u1QBCntrMzs6jmmdfpvN6um/HhvumzTZuvDg1G3ZEv5ukhD3kfyE9frFBBzJ4IdMMPT83YskkNE9ENA17VrfR6LBAJOSp//qY2bbJdS53mTpxUiWFHeVLnD264OXYIcIePPlSNrNtk2oevHp/pmuHHoRGLJnM0HgxanXWUShCyIN9Zrdtcp1zRqb1xHTO68EGp8+pe9mJmrAHd7+QTWzbLAiJVK1jbh68CXrpZugFpRFLxgA0z/h8OjmDyK3X1epjVvGcDyFPD2a2bVLNc/d7C7DK6a2ciS6tPu+EPdhjZkh6kBpeQC2ZZujxvpwYgnTrLGa1qpe80BPyYPWmQrqbReNRzXNeuu8kzushF05u5Rylsge/XwDTbYtLKggZc/NYdMCroJduhl4QG7FkUlqrX9izM3ZBhTuwhDx/fIeMv86xa8VdKm/Hhvqc3MqpWUdOwh6sXQCjD2XuRFRaa1wAmYMDL2Q6WxPURixZQ1AOA2e9+Jxbvch6vUAk5Okl03iWJHYH5E+mmzmMXUAups02PruZihWmv9f16shJ2IM5ZrZt0moaKi7Sgt6IJZNcF0+ehL0B9R8jIU9Pmbr2Jr9L5q4WCa/gudLx+woorXUm7GmGsIfMzGzb5HA6vJZu9AeNWDIrKNKvSYvVbadFEUIesl/nsnWVZteKS5/vDJW9gNyw6+yMSvxMQmKxmPTG+s7/ent7R9rf0xuLSTwel5rq6rT/TkNDnYiIzKkMS2VlpYiIVFdfKqUlJcF5f80I5jqVsIf0MjW5SGI7C7yW7m48702TYSiHJi1u3+AZ7lL3MY4mRN7eY27gNiFPHWbm57FrxT3pWtr77LzeUDwu0eifpf1wh/T2xiQW65PemPG/uWg/3GHrn1VXL5A5lWGpqamWmuoFUhmukJqaav+9v5zqQm2nURhhD8oZaDG2bab7QNCEBV7LVHWmEYt508r1eazv2TgUn++tX6MJkb79In37nK2QEvLcuXmQqRFLKGLcMGILuIuvSZrQ7XaF3mHth1+R9sMd0tkZlc7osZxDndOi0WMSjR6TltYDE369ob5OGhrqjP+tX+SP91jpwty3cmo2soiwh6kLl+6tmbcgcQGECu/TdG3RacRiMezZ3JZWEPJmcW71MearskvI01u2QelU87yRtrKn13pjKB6X1tYD8nJLm7Qf7pB4/IymIbVjQkWwob5OaqoXyMqrl+lb+QvguT3CHsaY2c5CxQReS7e9mEYsNi98NjtyetEswfJ5vTw8RkKe/jJ13ORmpsff793qfN9Y1Nsbk5a2A7K3eb9Eo8d8+fIkw9/2nbuksjIsS5c06hf8Anhu7yNnz549y7cLst7ldHGm0KuxQXmtb1C6BxPn//70u+/7+um/orJMZn6sMOu/N3N6oVxRWTb2nTX9wgl/H4igl2rblclGLL29MYke+7N0nrsQx4fi5/9/OpWVYZkzxzjMPqcyLPV1i87/vS+M9Iv86Tbrv69ssfGc57x4eGVCI4JMr8n/9p8+lFDh/zL13/3sFWH5f98tld4zs6SmeoFUL7g0t9eNkJf1tRM511wiRRVj/OeopnqB1NcvcqQxxFA8LocPv2LpM11Tmf560hkrVP55LykpNr24rqleICXjnmelG3KMJkTab0z9zz79b8q+Hi2tB2Rv874pWyCDpLIyLKtWrpCVK5bpcX1sX5P797jC70nCHqbq3pq5qUBprbGoy3Oji3/pOCEbXnzjfMiDNZGyIomUFcnMjxmB0Pj7Yrk8PNNUkFTe0BGj8jz5C9pEI5aXW9rkiSd/5djd1srKsNy45jq58Ybr/PHm+eP/Yf335LDNrfn5/Z5sb7L1uhHyJjjU3iE7du5y5LVbefVy+f73vm0rfBxq75DNT/4qY9MJZAmM5zo3Jrs0NtTXSWW4wrvF+tARkTfvn/rroYjIJx9V6vnr7Y1J874XZG/zPuXO33lt5dXLZeXVy2XxufeVkqIP5b6Vk7AHLZhpN+3CuYXT774vS7a8LK/2DfKa5MnMcxXAxqqPS+P8j+sXANNtu8qyrXgoHpdv3v3dvC0IKyvD8vOfPaJ/1zI7Ye+yByx3umx+fr/8cvNTni+OTL1uhLwJOjuj8vAjP3P8s1RdvUCeefpJS4Fvb/M++cH9D/DFnkcN9XVSWRmWxQ117u1mSPc979AuAqdC3hNP/kqan9/Pm8TEe+jGNddJ05Kr1HtwPbtFep7L7b9B2IPysnUhc3F23pItL0nbiX5eE5ddES6TxqrZsqr2IrlqvsKzo07uN6rPk2VpxDIUj8vaW27L+9mJkpJieeafn9Q78L253vp5uE89abq5y1A8Lj9Yv1GpbU5pXzdC3hTbd+6Sh3+Sv8rKyhXL5Mc/2kDQU1hJSbE0LWmUxQ11smTJVfnZCppuAa5As5yheFx27Nwt23c8q22zFa9UVobljtu/LiuvXq7Ogzp1UOTYw4Q9+Fi6xXOSi/PJHvtDp3xr3yu8Jh6bOf1CWVV7kXzzs9VqnQFMNUPPZCOWh37yU9mxc7crD7Ohvk6eefrJ4IS9gpBIww7TiyQ3QrfdRci/PrfTWLgS8lL69Y5n5SeP/CzvQeL//kP2IfS9vTH50uobWGwroGnJVbK0qdHZ4Hf85yIDbVN/3cYuAic98eSvCHkOXSdvv+1ramzvHO4Sef2ewIQ9unEGiZmxChevFQmvcO0hbXzxDV4XBZx+7wPZ1nFCtnWckEhZkWz4widk5WVzvdvqme69arIRS/IurFvaD3fIyy1tsrSpMRhvGJOd8VQOeiIisVif/Lf9/ybX/s10Ql4Ke5v35T3oiYjpRfT2nbtYcCuipfWAtLQeOF/x+8ZtX8t9q+fIQE7fN0471N4hP7h/I2fyHLxOtn+1Q1ZevdyZ90suAtZt96O8/QIiuW0zXdArLBf55E9dDXrbDp+Q0+99wGujmO7BhNz03B9l3kPNsvGlN9zvhJqcoTf5vVq22Kjomdg62NLS5snCWFultRYvlBFT/9oP1m9UvgX54f/4vUjPHueCXmG5scV40Ratg15nZ1S57ZKck1JPPH5Gmp/fL1/8u5Vy193fkUPtOZzpHOlP/XlyYZfRZA//5FG5+au3EfTy9Dn+0uob5Iknf+XtAyksJ+zBRwZa0g+gFhEpbxS5/FHX73TsPdrDa6Ow0+99IBtefEPmPdQsj/8h6s4PHelP/V6tWGapI+zLHoS91rZ/D86bw8Sd9l/veFaLVuS//7/ekrMf/Rghb5yheFzu+tZ3Xft54XCFqc80VT21tbQekJu/epvct36j9PbGbHz/D9j6rnH6Jsc/XHODbN+5ixc0zzcJntj8lNy3fqN3D2J6Dr0KTN7wJOzBHd1bje5Wqe5aF4SMxUnVXa7fOTv97vvS/CZhT5fQd/e+DvnUY7+TV2N57Jg63CXy+renBr2qOzN23Ex3IfFCZ2c0GG+KLOdnhuJx2ez1XVsr75ezOdzh9VHIS3rC5Y6pZrY/e1Gthz3Jyo2lwDSSpklbkXuL6u07d8nar97m24Hoqr5Xfr3jWW9+eC6B7YIirZ5nwp5fjSaMpgvp5ueFIsaWOI8WJ3Tf1M+rfYPyqcd/JxtfysM5y6EjU7vDFoSMrcUaLaCHglB5KCzPupX24Yd/qlUVpnfQxtnUgpBxxtlHIU/EaILi5nlXETE197C9g0ZeOonHz8jDP3lU1t5ym7kqX7qw59KOo/vWb5SHf/Io1WMPtLd7NCtz2uzAPMeEPT8a7hJ55db03fXKG011M8xr2Dv+Dq+Tpja8+IYs2fKSc2f5BlqMQbrjg15yiK5mh6gDMeB5Rm3WsNC87wW9FqbvWmhKXRAyWsEv2uLqGWe3PLH5KVd/npkZbr29Mc5O6bqQP9whX1p9Q/ZdD4mu1L+e522cQ/G4/MM1N3Ae1OMbA57I5b01Ta/zfoQ9vzm532gnq9i2zcnyuh0Q+Q/rJ/plyZaXc38dT+6fOkTXQiMWeCDLFk63w4Jrxoe8udd6/h2aD52dUdeD+jdu/7qpwAC9F/NfWr0mcxOr0UTqz1werwOqdwsOiqamq/R70JqtTxi94BfZxiqEIsbsPEUqJQe62Mapu1f7BmXJlpek9dbP25vNl2qGXsUyy+fzoE7YG4rHtavqiYi0dPx/snh5hpAXXm5U8XwY8MbbvsPdphT1dYtMzdzybJsXHJXs7rpqZYqKeKJ76q/lsapH0FPH0iWNPAl5RmXPD5IdDNMFvYplSm2JYwunf5x+7wNZsuUlaxW+0UTqoGejEUs6DR4NbfV9g5ZQJOMdTbfDQl4FoJI3nhfbb81U9UREOo/9mS9bHwW+lBW+VJU9qyNhCHraMbONO2+y7FLJfC3U64gJlT3dnTpoLJzTbttcJzLrSqUe8qt9bOH0W+Bb+9wfpfXWpdmHsCdn6I3vuFkQ8vwMqVN8f7g/w+LLGGTvg7AXoEreeF6c1Vts8qYMi3L/Bb6SkpKJXVhTndnLw1Y5gp5aVq1crucDpxsnXNOzR+TYw6mDXrLBhWJBT4Tzen70at+grP3NHzP/S6lm6GnaiCWwMtwJ3b5jl95hN2CVvPFUruodYgunTwPfxok7IVKtY/KwjfMH6zcS9BRRXFwkTeMDv06K9FqzEPZ0NJoQiT5khL1Ukts2FT1A+lrsNK+hD+092iMbXkwzliHVDD0asegXhtLcPNK9qtfc1hXIkJfkdlUvHK4wXdXrjEb57PlQPH5G7rv/ARmKx43RO6k4fBPwl5ufkpbWAzz5ili6pFFKS0o0vR5S2UM+DXcZ1ZHBQ6kXYwu+r3SDi9Pvvs82Th/b+NIbUyu3qWboVSwTqb43b1+YcyrD3ixgzmha2Uo3pmW8WYvT/iPdq3rx+JlAhjwRb6p6d5is6onQnMXPotFj6W80OHxeb2/zPtn85K940hVy45rrvH8Qdt5nuQxjJ+whq1MHp26DG//mU3Tb5nhs4fS/tc+N286Zaoaeg41Y0qms9ObAt6+3B5Wl/27xxVm9gPKiqpeyG2O6zxTNWXxtx87d0vv//I+8Lqg7O6Py8COP8mQrpHrBpVJTU63ng9dwNxINWnTRsyfztk1N2tW3nWDkgt+92jcoj/2hU+6ujk2coeejRiyBk2EL597mff5vTONTQ/G4tLS5u63NSlVvKB5nmHoAPLbtgDzylYKJv+jQmaiheFzu+tZ3tf+OKi4ukprq9OGoMxqVM2cS2vx5lKjq2VUU0e4hE/ZUN5oQeWtT+m2bCnbbzBgEqOwFwjN/+KN8s/Al+UjyF0IRY9sm5/PUlKoT3ngZtnA+4ZOtUUPxuL7nR2xye/ut1apeZyeNNILgd/8zJt+/rkH+U+HJsV906FrxxOantLlhUF+3SGpqFkhlZVhqqqultKTYVvWrtzcmvbE+icfj0hk9JrHemHRGjylVJW9qatT3DavhDWvCnsqGu4ygl27bpoaL59cUOK83Y/qFcnrjPyoXgk+/+76IiHQPJs79dUa6TyW0HED/+mChHHi3QRqnHTAasVyyLrBnorSQqhPeeGXpq3p+qbx0dh4z3TTEL+HW7e23Vqp6IiLth9U4r/f4zx6ZOCZAgdcuGYSTC/r4uV/rjcWkr++kdu/Hh3f1Tqzu5TID7fxnOio7du5W9s9cveBSWblyudRUVzv63TNnTuX52XWT37eH2juk/XCHtLS0eRb+Vq5YpveNtels44RTMs3P02jb5njJEOO1K8Jlyj03V1SWZX3u2o6/I20n3pG24/3yl9Pqb9f45uFKee0fvHmverlo7+yM6nUWIV0nvKQMWzifoOGBtlSv6omo05ylpnqBUq9daUnJhO+4yQv6oXhc2ts7pDN6zNNFvRW/+58x+T9v/LSUfbTXsfN6993/gHJ/znC4Qm5cc50sXdLoyTDxxQ11srihTu64/evS2xuT9sMdsrd5vxzueMW9sGfxe0A5VPbgiHTn8zTctjmeKls4G6s+rt1zFykrkpvq58tN9fPPP5eP/aFT9h7tkb++94GSj/n1/g9kb+KLsipgH98h3c6GfJjlxkGaLZx+qupJ4N6j7lf17JzRiR7zfhtnOFzhyaI81zC4tKlRljY1nl/Uv9zaJtt37FK66vev//GBfO1vxJEzUb/c/JRSDbPq6xYZIW9SMPdSsgK4auUK6eyMyvYdu+Tl1ra8nv2zMnZFievflA9XreiIbpwqyTQ/T5Num1qEvfn6nxu7orJMtl3zGem+d6X88POfkBnTL1TycW47fILPteqGs5zXm3ttyl+mqqcvt6t6xcVFlqt6vb0xJZpqqFbVs7uo//Ka6+XF3++Tx3/2iFQvuFTJx/n4jg45+9GP5Vw56e2NKdMhOByukK3//KRs27pFqaA35X1eUy0//tEG+e1zz8rKFcvy9nOUa8yS6phUJhqOXSDsqbbgSjc/r7zRF8On246/o0xQ8ouZHyuUDV/4hHTfu1JWXjZXucfX/GYPn23VJTJc7EprU37v+LGqF4vFAvOSNz+/39Wfd+Oa6y2f0VHlvJ627eHTWNrUKL/9zbPyowful+Ji9c5Rv52ozLkT5xObn1LiRsHtt31NXvz9Pq3OAs+ZUyk//tEG+e//rVnq6xY5/t9fpfsWziI9u4kT9lSQbn5eQciYSVZ1ly+aW6jQaOTimUUy82OFvnsLzfxYoez9yufkmX/8tHKPbe9RbwJfOFzhyc+Nx+N6vXlGMnwuy5ekCQsv+O4z1BuQLaluB/Xi4iJbd/M7FdmC11Dvz6Y9q1aukG1Pb1GuyvffD8dzas7S2xuT5n3efj8VFxfJ1n9+0nJDItVC37atW+R73/2WYzcFtG/MIuJI4yDCXhD17BE59vDURiyhiFHNK2/yxR9TnfN6/m79f1P9fPnTN/9WqW2dXlV053g0WL1Tp8Hqo4n021gKQim/f5Ld3KAnt7ff2qnqiagzdsHPHVpraqrlma1qBb6t//an3N7fm5/y9PFXL7hU/odm1bxMvrzmetn29BZHbp42NTXq/WQUhLTdYUfY83KRle58XnLbpo+GT6sS9vy0hTPTn/GxFepcaA6c6Ofzrqq/ZujEGV6e8pc3c1ZPW7pU9UTE1e6AmRbufldaUqJU4IsP/y/p7Iza+r1eV/WqF1wqz2zd4rt5nTU11fLb3zyb03skHK5Q+syiuQ/LQm0fOmHPCyP9qc/n+WzbppJhL1wWiLfYTfXz5Yef/4Qar33fIJ95VWUau0BVz3f0qepFlXi+/NCcxWzg+/GDP1Tm8Ryy+R3jZVXPr0Fv8k0Bu+f4lDyrl23s0JQnoVbb14+w58Wb6/VvT906VVjuq22bk6lS3dFx7IJdG77wCbl4pho3DVRpzoNJ0m3hLFuccruKW1U9L85bqhIw8sWLpjqrrl7u6mLfaQ0+3sI5JdjWVMvtt31Nicdi533qZVWvuLjI10FvfODbZjPw2f0uUMoMKnsw4+R+kTfvn3o+r2yxyOWP+mrb5mQqVHeumjc7cG+5DV9Qo7p32oNZgF4t1LQKDUNH06StqRdmN6t6XjQ2iOs2H9Eit6t6K1cssz2fLqrIeb2gVPaSblxznRIdOu2c1/Syqvfzx37q+6A34c/7+D9Z2tK5pPFzas6qTHSZ/3cLQlqv0Ql7bjm+SaR769Rfv3itSPW9vtu2OR4jF7xzU/18Jap7qmzjJTSMD3pptrCU1qY8m9DcvM+Vh5WcyaZiW3hdHWrvcL2q940cAnvnsT+rEfZ8NnYhm9KSErlxzfWeP47oMethr6XtgCePdc0N1/q6iU+694mVc57KntUbtTBQXePzeoQ9t95Mr39bZKB14q8Xlot88qci4RW+fwpUObMVxLAnIrKq1vv5e6fffZ/vAtWcOpj61+eunvJLbm6RSi42a6qreY0cslmjqt5QPC5RBTra5mPGmBbXCwW221m9Yba3eZ8nN9nC4YqcbmroHvh+/OAPs96US968U9KHFsLerMWEPaQx3CXyyq1Tz8WU1vp+2+Z4bcc5r+elm+rnex/4YzRpUc7kBlHJ76YUdzDd2iKVS/dGpOZFU52cqnqKbOFsCFi1JmnOnErPZpTa5dXczztu/3qgtm9OVlNTLT9/7KcZ/x0VKsXp1+jdFsLelYQ9pDDQYnTcnHw+b+41Ipc96Ottm5O9pkBlb8b0CyVSFsxtYUGtaM6pDHvyc+NnNNjGOdwlMjIw9ddTDFF3u6rn1eJJhVb/+aBTVU9ElOn2GrTzeuOpsO3uULu590Fvb8yT90w4XKFuxcpFixvq5EcP3J/hO90HN+9CEe3X7BeQyvKgZ8/U+XkFIeNsnub7fq06/e770j2Y8PxxBGXkQjqXh2fKa32nA/VnrvRoqHpUh6Hq/S1Tf62wPGU3YKp6+tKtqifC2AU1vjvD2jzWvc/v9+TnEvSmPhc/uP+BCb9++21fU7vyma5B2WSab+Ek7DltNCHy1qap26NCEWOsQkHwKkuqbN8L6hbO82G3sixwYQ8ZpNrCeZH3Z/WCvCUqH9yu6jnRdS+qQHOWcLhCze6BrgVdfc7LtrR605jFF6MEHA58DfV1sn3nLunsPCZNTVfJl1Xewjli4XiR5ls4CXtOv3GiD03dA1yxTCRyS2CfljZV5uvNnx3ot2ekrJjPKAyptnB6XNVLtXhqaKjz7dZKN3R2Rl2v6uV6Pqe3N+Z619DUYWcBbyAN9PbGPNlJUb3g0kDfDEhnzpxKufd79+jxYM2OXSgs90V/DcKeU4unyefzCkIikZt9OyTddNhj7AKglr4UIxRSVPWG4nHX2pnnes7LKUPxuG+qi9t37HL159XXLcq5BX2nIluggzZyYcqiXZNtnF6d72xqauQ64od1uxk+2MIpQoOW3A20iLx+z8Sgl9y2GfCgJ6JGc5aLZxbJzI8V8l4NGC9nHyk7WH00IXJq0hbO0tqU31Xbd+xyrZ25Ku3LVekEmSs3t986+RqqEvYa6oPZifN82FPgxktNTfbq6sstbbw/YE+i29y/N9sf63gqe7no3ipyctLh4PJGY9tmAQOBuwcTcvq9Dzx/HI1Vs3mvwlVDqg5WP3UwRSbEzwAAACAASURBVIfg1FW9HTvdqQypUtXzEze334o4U9UTEWlvV6MT5+IGFvNeM1Nh92qb9xyNGtggDTOVPZ9s4STs2ZWuEcvFawMxJN0sVZqzsIWT1wDn9E26OZVmrl4Qq3p+oWtVT0Qkesz7yl71gkt5D/XGlH+MnZ1RTwapiwg3p/ywhk81emgyn2zhJOzZkaoRS0HI2LYZkCHpZilzXi9M0PAa22gVMHRkagOpqnVT/zUXq3qZujfSJMMeXat6Xi7eed9NCnsKNMnJ5mWPunDCB8w2Z/FR8YYze1YMd4m8/u2JC6bSWpFFWwh6KTB2geDttXC4wpOfG4speGd8YNJsvfJGkWlTtzi7WdXL1L2xxINGKZ3RqNbvdy+qek7NRlTmvB5bOLUQ86j6WFJCZ2vtDR3J/u+EIimvj7qismdlodS9deJ5l4CPVcjmQJf3Yxeumsd5PRVEyrw5wzqnslL6+k66v+hW7c74SL/IQNvY3xeE0n53Nbs0pNipipCT4qqetTRp+053O3CGwxWytKnRV2GPyp73Nz3q6xYp+x2r+3cExNyMvbC/5igS9szo2WP8NX6hVLXOF4MW84XzemrxuiuqV2EP50wetxBenrKJ1N7mfa7NOeOsnrOG4nHXgnrSHQ6+hu2H1ZipGPSxCyoEGjMNUJjBCftflkcz//OCkO/W92zjzOb4polBLzlWgaCXUdsJ5uupxOuuqLwOHhpNiAy0jv19YbnI3GtT/qtPPPkrVx6SilU93bm5/VbEqOqtWuncmZaoApU9MxWlIPB6dExllgYoXjeQUXa0DrIb7srenGXWYt911CfsZVogvf7tiYukssU0YjGJ83oKBW8FzuvRoMVDffsmbj+/ZF3Kf021qp6ZOVswuNlUJ8nJqt4hRUYucF7P4HVlL9tWWq+3ydMcRmN/NXFez4czsgl76ZL/0fUTG7FcvFak+l7m55n0Wuy0549hxvQL2T4oxrxDL3l5btKrxZsq88JkNDFx3ELZ4pSjFkTcq+qFwxWmqnqlHjRoUeZ1s0j3qp4qjXE4r2fweotktm2c7Ye9/Zy2EPb0lW0LZ2F52mskYc/PQa8gJHLZA8zPs+jVPu8re4xcUCPsRWYRuD0zvqpXEFKiqncHZ/WcXbtoXtUTEYl20pxFFSpsUVT93GQ0ekyZajQsmjwfe7KLVvvyj03YG2+gReT1e8YWR6GIyCcf9WXKzydV2vyzhVON1yNSRqtqT0yu6s1dnXZnwvadu115SE5XhGAEdTeresXFRY6/hu0KNNsIhysYli3eb5H0alyOVZtd2gkBB2UbueDDxiyEvcl69ogc/8XY35c3GkFvGq37LYeLE/1KPI7G+bx2It534uR18Mjbu8duXJXWpt2dcKi9w7XmGFT1nLfDpaCelGk2oq31VzzuWlU5E6p654K3x1skF9fXafM8/XrHs7xhdHLqYOZ/Xr7Et0e1CHsiUztuVt0pUnUXz4tNjF1Q67XwuhOnlxVWMy288yHW5/HidaRf5OS44dqRm9P+q5tdPKtntSLkdnfE+Bm9Zmi5uf1WxKjqOTVEPalTlS2cjFxQ4vUwc85alW6YP3nkZ3Tm1Em283o+Pq4V7LA3mhB5c/1Yx82CkMgnf+rLTjxuek2B83oXzyyiA6QCwdvrofaVld5sy/K8UtG9dez/VyxL20H4UHuHa3fydajqRRUZ7G3WEy5vJbtxzfWON87xupJ0PmTU04lTxPvmLGZeB5UGm6/96m0EPl3W++ObLk5W3ujrnXwfDfQLf3T9WNIPRUQWbWGsQq5rzMGE5w1BREQaq9g6KOL9vEPOTXpg6MjYIfRQRCRyS9p/1a2qXnFxkTQ1NfLaOMgPVT0Rdao0zH30fgSG2XOTXu3YSBc8CXwayLqF099FnmCGveEukVduHUv5yfN5jFXIGVs41XLA4/OTnNfzwPgt6Wm6byYXdm5VVfJREQo6P1T1RLyvJImIVC+4lDeU6HNer1KxRjrx+Bn50uo1rn8mYSXsZejCWVrr+0aMwQt7Q0eMil6ycQHn8/wZ9hi7IK/GBj2tss6YfiGVPbcNtIztVph7TcadCs3N+1x5SLlUhEpK6OSail+qer29MSW25DFM3eD1/DjdX4cnNj8la2+hyqeckf7MIxfmrvb9UxCssDfQIvLm/UbQ43xeXjB2QaEF4dEeb1+D+d6/Bl5uzXJ9S9RoYuysXigiMvfajIvs5n0vuPKwcqkIedE0o7c3pvxne7vLHThXrVyRl6peZ5T5eqro7Y15fmbVD+cm2w93yJdWr5H71m/U4rskEDJt4fTpEPXghr2T+8dGK3A+L29UaM7idVMQVTR7HPZuqp/Pi+Cm5KiFDMPTk57Y/JQrDylfFaG8LnoVGAOQ7SaC24vyG2/Iz2uoSnMWwp7Iy61tnv78JY2fMz3nUIdQ2Pz8fvni362Uu+7+jucV08BLNmFM5aLVgXgKLgjEn/L4prEXu7yRbZt5okKbfxHO64kYjXJe9TB4z5h+oayqncuHwi1DR8ZGLcxdnfFGlptVvaVLGjmr5zC3hzmvXLEsb8PGVRi7UFxcxNgFEWl+/gVPf/7SpkbT/26pRtu7W1oPSEvrASkpKZamJY2ytKlRmpZcxReZW0b603fhLCwPzO4+/4e98UGv6k62beY57KmAsCey7fAJT38+Qc/tdH9u+2aG4elJblX1RES+wRB1R7nZVMeN11CF5iw11QQ9r7dwWu3Wq2M4j8fPSPPz+6X5+f0iYlQnm5qukprqammoXyTIk0xbOANS1fN32EuOVhjuNrY1Vd8biH25hD3O64mI/EuHt2Hvpjp1tnCGwxXS13fS9Z8bi8VExIXtRn37xr7nqtZlXdS5VdVzoiLUUF8nm4UOd0n+quqp0cSC5iwie88FEK/Y2QFQX7dIiZsFdrUfnnjjpqG+Thoa6qSmeoHU1y9iR4RTTqZ5bweoquffsDc+6IUiRtCbxjmuIIS9GdMvlEhZsEdo7D3a42kXzotnFikVuOdUVnoS9lw5+zXSPzZqoWpd1u85Nxd1ulb1OqNRJWeu+a2qR3MWdTR7HPaamhqtv241C7QOe9nCX2VlWBrq66SmZgHVP7uGu0RGBlL/swBV9fwZ9kb6RaIPGUGvbLHRqID5ea440NXv+WNQoQOk1x7/Q6enP58tnC46vsloylKxTGTWlRn/1aF4XHbs3OXKw8pnRSjfVBgFkIqfqnoiIu3tajRnCXplz+0xHpOFwxWWzuudf93q62SHy11p3RSL9Z3b9jnxz1xTvUAaGuqo/pnR35L610ORwB3p8lfYG+4am6FXsUwkcgtvdpeoMnIh6Of12o6/I20eD1K/+29q+EC4ITlTLxQx9V23fccu14IMZ/Wc1dsbc72ql+8uqp3H/uz58xoOVwR+wez1IPBVK1fY+n1LmxqluLhIzpxJBOa1Slb/tp+7aVddvUAWn9v+SdOXSUYT6btwRm4O3NPhn7CXDHoiNGLxwKt9ipzXmx/s7bobX3rD05//lbp5gd9G69qFrHvr2HnkLNys6tXXLXKsIjSnMsxrLe421Um+hvlughFVYBtn0Ldwel3Vy3U0y9Ilja6dQVZRNHpMotFj58Nf05KrZGlToyxZchVVv1MHjcLPZKW1gezf4Y85e+ODXu2DBD0vwh6dOD2nQlVvwxc+qdzz4tU2rbxuU3vr3PZNE+f0RPSt6nmxFTQejyv1/nWzqU4+XsNUDrGFU42bCB5X9W5cc31OoaSpqZHF1zgtrQfkvvUb5X//bJPcdfd3pPn5/TKk2PeZa5Jn2ScLYFVPxA+VvYEW4w73tNlG0ON8nicOnPD+vN7l4Zky82OFgX0N1v7mj57+fKp6Ljl1UGTwkKlzekluVvUWa76AVmH224QFuQdVvXy/huoMUw/u2IVfbn5K66qeiLGV06tuyzoEv/Hz/b5x29e0PUdt2dCR1I1ZyhszzqD1M70rewMtIsd/YZRkCXqeOf3u+552f0wKclVvw4tveP4aqFjV853RhNGUpbTW9Jnkvc37OKunKT9W9YxArcbYhcUBrex1dkZduwGUTq5VvSS7Z/6CIjnf74t/t1LW3nKbMlX1vOpL0V22ICQy99rAvg/0DXvJoFexzDizQtDzDFs4vdV2/B3O6gVF9CHju87EOb0kt7Zq+aGqpxo/VvVERKIKNGepXnBpYN9X993/gKddZ52o6o2Fxuv4ojCp/XCH3PzV2/wd+kb6jZ0vk4WXB3oEm55hLxn0qu6k46YKYUOBLZwiwRy78GpsUP7+1//u6WOYMf1Cpat6XjX5iPU5vEWqb59IokukxvzNLTcbMKxauTxvASSI/FrVG4rHPd0+mBTU83r3rd/oeXMcp6p6IiKlJSVy+21fYyFmI/Tddfd3pLc35q8/XN++qb9WWC4SDnYFWL+wlzyjd9kDNGJRKHCoIGiVvdPvvi9rn/ujnH7vA08fx92frVG6qldZ6c05BUcXtMNdxoHzyM2Wzhy4VdULhyt8s53K8ZBu016XB11XL7jUlaqeKvP1gtiJ8771Gz0foF694FK5w+GbCjeuuU6Ki9lZYlVL6wH50uobPG/U45h04xYiNwd+959eYS8Z9GofDGTrVFUdOOH9jL2r5gWrPH/63fdlyZaXPR95cXl4pmz4wif4EOTbW5uMbSgWbnC5WdW7w0dn9VSoOrk5KmP8gtkNnVE1GuAELew9/JNHPQ96IiLf/949jv83S0tKOC9sUzx+Rp7Y/JT8wzU36F/lSzVuobTWdCMzwp4qQa9vv8iiLYHtpqOi7sGE55UlkWBV9V6NDSoR9EREtl3zGT4Eef+QPW2cNbB4uHz7zt2uPDw/VfVU4eaoDLdfQxUqe8XFRXmfI6iS+9ZvPD+LzUtrbrg2b9XjL6+5PtDnMHMVjR6TL62+QV5uadP3D5Fq3ELVOl5cbcJeMujRcVPJ4KGCxqpgnNdrO/6OLNnykhJB75v/uTrQHVBdMXREZOioyCXWLliH2jtcO5eT76pe0Aare1HVc7MyGz2mwjD16sC8l9becpsSFb1wuCLv1bcfP/hDrhk5iMfPyDe/9V15+CeP6vfgB1qmjluYe02gm7LoFfYGWowFzycfJegR9tIKQujY+NIbsuSpl5WopF48s0ib7ZtedojMqePZaMLYtm6j2/BmH53VqwzKbKhz/FzV6+2NedoFMikIzVkOtXfIF//2amVmGt77vXsca8qSNsTXVMv3vvstFma5fgft3CX3rd+o14OeXNWjKYtGYS8Z9Kru4pVSVNtx78/rzZh+oa/b/rcdf0c+9djvZMOLbyjzmPZ+5XOBHmDviu6njYqexTuTh9o7XFvg+XX7pldz4Pxe1VNnmLp/z+sNxeNy3/qNcvNXb1MiWIuIrFyxTJY2Nbrys7685npZuWIZ148cNT+/X+66+zsyFI+r/2BTVfUuWUeBSIuwN9xlzMsg6CntQJf3Yxf8OnKhezAha5/7oyx5So3zeUnP/OOn2b6Zb337RMqutHU+2a2qnpOzstRbMHuzSG5pafNtVU9EneYsfqzsDcXj8sSTv5Iv/u3VSmzbTKpecKn8+EcbXP2Z3//+PZzfc+L7qPWArL3lNvUD3+SqXtlimjhOcoGyQe+9/kBPu9cBWzjzo+34O/IvHV2yreOEco/tK3Xz5Kb6+bz58/39d0GRrQ5inZ1R16onTs7KgsHtFuhuh/XOTu/DXjhc4av3bXIe4/YdzypTyRv/XD+zdYvrP7e0pESe2bpF/st/XSFnziT4YslBNHpMHv7Jo+qeh5xc1SsIWT7jTtjzwki/EfRolUrYM6lxvv4HcLsHE9J8tEce+0OndA+qeXG6at5sbbtvhsMV0td30vWfG4vFRMRCFWE0YQxOtzlDdPsOd7YAulnVa6ivk83ikzlQGbg5KiP5Grq9DfdwxyueP89+2MI5FI9La+sBebmlTVpaDyj5GIuLi2TTY//kWbAuLSmRbU9vkZtuuZXAl6NkpVjJwDe5qjd3Nds3lQ97ownjL4KeFtoUmK8nomdlr3swIa/FBqXtxDuy92iPsgEv6fLwTNn7lc9p+16dU1npSdjrtbp4zyHoJe/wu4GqnvPcr+q5+xoeUmSYuq5bONsPvyLthzuk3cUzubn48YMbPB9vUVNTTeBzMPBVV18qX15zvToPanJVr7SWpixahD0RZuhp5LXYaSVCiMqNQl6NDcpf3/tAXo0Nyun33pe24+9I92BC+XA33ozpF8q2az5DQ5Z8G+nP6ZzBE5ufcjEoXOfrl6L9cIerXVy9qOq5voUzGlXitVV57EJvb0xifSclHo9LZ/SYdHZGpTfW59oYFad877vfcq0hC4HPPT955GeyuL5OjRmVo4mJVb2CEDP1tAl7lF61okLTkL8MJmTJlpeUel7aTvT75jWeMf1Cabv18zRkcUMO84DcrOqtXLGMqp7D/F7VExGJdqoRWDY/+SvXmhiZ+uzGYq4G/Xz70QP3K9elt6amWn773LNy193fkeixP/OFk4P77n9Annn6Se+vAX37Jlb1qtYxU0+bsAdtqDByQUTk9Hsf+CpcqeTy8Expu/XzVPR0CAsuVvW+4WKrfhH/D1UPQlVPRKRTkUW2DlsgCXp5+B6ZUynPbN0i9/1gg7S2/Tsvlk1KNGwZTYj0jes4W7aY419ZfJSnAHaoNAoABL1svDqn48a8tqF4XFra3GnSsHLFMpnj8pDzOT4fqt78/Auu/jwvqnpD8bh2WxHhn6CXVFpSIpse/6ncftvXeMFy+s7aLy+3tHn3ALqfFhkdNv4/3TcJe8iftuNU0wh6yMaNVujbd+xyreW621U97143d+ZKHfKg2YYnVb1Ogp5fFRcXyb/u2aF80Bvvjtu/Lv+6Z4eEwxW8gDY9/Mij3vzg4S6RgXFBs4rh6YQ95M1rVPZ8aeVlcwl6GhmKx2XHTnfGLXhR1fOKW+HE7bNjXp23ZOukP4XDFbLt6S1qNOywqKamWn77m2ep8tkUi/XJL108PnBe99ax/1/eyPZNwh7y5fS772vVTRLm/GzFItn7lc8R9DTiZlVv5UpaWjvJi6qeV5VZN7Yzw131dYvkt795Vsugl1RaUnK+yldft4gX1aIdO3fJkEu7IETEGLUwdNT4/4XlIpFbeBEIe8gXGqL4y8Uzi+RP3/xbufuzNb79M/q1yYdbVb36ukWujiKYrHrBpb577byo6nlVmaUDor/cftvXZNvWLb7pyltTUy3btm6Rx3/2CFs7LYjHz8j2He5cg6aMWqi5l+2bhD3k06sxtnD6xTf/c7W8evff+n60QmWlV4vc/G0H3Nu8LzBn9Up8NuohSFW93l5/jRYIsuoFl8q/7tkhd/j07O7SpkZ58ff75EcP3E/oM8m16t74UQtzr2EmN2EP+abK2AXYd/HMImn9+lJ57Oo6tm3mUT7DmFuz2byu6vktpIuIbN/xrKt/Hi+rep104fSF22/7mvbbNs1atXKFvPj7ffL4zx5he6eJa1xLvjtzjvSL9Dxn/P/SWpG51/LEW8ScPVhGcxZ9zZh+odz92Rq5+7PVhDyNuTmbLSgdON0K6b29MdfnfHn5GhL29FZft0h+/OAPA9OcabylTY2ytKlRentjsn3nLmlv72BLcgrbd+7ObzfW45uM/y0IiVTfyxNO2EO+dQ8m5PR7H/BEaOgrdfPksRVU8vzArape9YJLlajqlZQU++e1c7mDndddVNvb6cSpo3C4Qn784IbAVfVTmTOnUu793j0iYtysebm1TdrbOxjOfk40ekw6O6P5qfqeOjjWlKWac3qEPbiCLZx6hrwNX/ikRMqC+yXppwXLyy1trlX1vJjJlkpNTbUvFla9vTFp3ufuEHWvu6ge7niFL2HNQt4dt39dq7l5bge/L6+5Xr685noRGTt/297eEej3+sutB5wPe6OJsare3GtEShfyBiTswQ00Z9HDjOkXyqrauYEPeaos8J2srOzYudu1RR8LPme5XdXz+rwlIxf0UV+3SG5cc50sbWrkybBgcUOd8Rm7XaaEv85oVM6cCcaYqpbWA8437nl7t8josEjZYs7pEfZA2EPSxTOL5O6/qZab6uazXVOVsBfrcyzsudnF8Y4AntWb/Fw7GZS8qOp5fd6S83pqKy4ukqVLGuXGNdcFovGKF+GvszMqhw53SLTzmBw63CF9fSd9+eeORo85e2Nz6IjIyReMeXqXrOONRdiDmw50MWNPxYC3qnau3FQ/3/cjFILOrdlsVPWct/f5/a7+PBW6qBL21LSk8XOytKlRmpoafTMrT1U1NdUTgvRQPC7t527adXYe89XWz87oMWfCXnL7ZkGIeXqEPbiNqp46Lg/PlMb5H5dVtXOlserjPCEmA4zOd1WDXNWrqV6g9XtvKB6XHTt3ufozVeii2n6Y83oqSFbwGhrqCHgeKy0pOd/lc/J3u+7n/toPdzizDfjt3cZMvao7madH2IPb2k7QnMUrF88sksaq2dI4/+PSWPVxzuHZMKeyUuuw19y8z7WFYZMTF2wH6T5UffuOXXkd5zCZKrMRo1T2PAt3DfV1UlNTLQ31dXTUVNzkrZ8vt7RJ++EOebmlTatrVmenA5/35PbNimUi5U28OQh7cBuVPXdcHp4pkbJiuaKyTBrnz5YrKss4f6exWCwmIrktttw873Xjmuu58y8i8Xjcsf+W21U9FbqoHmLkgivC4QqZU1kpDQ11MqcyLDXVCzh/p7lk5e/e790jnZ1R2fv8ftnbvE/5Zi85VyWT2zdLa0Uit/BGIOzBC6/FTvMk5OjimUXnq3KRWUUSKSuWmR+7UK4Il0lkVjEVOx/qdWBMgltdHIuLi5QZt+C1zugxR7Yk7W3e52pVLxyuUKKjYmeUTpxOqK9bdP7/N5yr0DXUG/9Lxc7/amqq5d6aavnG7V+X7Tt2yfYdzyod+nJq0vL2bpGzwuB0wh68cvrd9+XVPjUqez9bsUiuCOvRiITzdHDi4hn0ql6pxkPVn3CpqU6SKuctVRmmvqTxc3LjuZlo6i/sF1BVR5rvwBJj/uHVy+W+9RuVPdtnu/v00BGRgVaR2gdpyELYg1dU2sJ592dreEFgWUNDnZaH37e7tAVQ5aqertvS9jbvk5gDlV2zVOqiGj32Z2U+91TA4Bdz5lTKtq1b5Jebn3KtO7MVtra/J7dvVq2jIUuefJSnAGa0nVBj5MLl4Zm8GAiMoXhcml1q2b9q5QqqCg4LalVvKB53NeRmvFFQzfk1+M8dt39dfvTA/co9LlvjVt7aJFKxXGTWlbywhD14SZXKHnPkoJtcGn242cXxxhs4qzderDeW0+9/uaUtsFU9R7ryOYSqHvxq1coVSgY+S/r2iVwQEgkz15WwB8+91kfYA9xc+Lo5m23limXODMP1kVwb6+zYudvVx6vSbES35kFmU73gUt7I8H3g+953v6Xngx/uEhk8JFJ1Fy8kYQ9e6x5MSPegGt2fdGnMAvXMqQxr9Xjd7OL4DcWGqOu+cE8OSXaLSlU9EXWas9RUL+CLD7735TXXT+jaqoXRhMjbe+i86RIatCArlZqz0N1yLIBvfPENeTU2aKpL6szpF0pj1celcf7H5St185Sd29d2/B35l44u03+uxvmz5ab6+fKVuvlZ/93KSr0qV25VhnSp6uk0WN3txgkqBT0RkegxNbZxNrCFEwHx88f/Sf7Lf12h/Cy+sUXM0yKRm+m8SdgDYW+iq+bN5sUQkW2HT8ja3/zR0u85/d4Hsvdoj+w92iMbXnxdnrnmM7Kqdq5S77Fv7euw3Aio7US/tJ3ol65TCdnwhU/45jV2s4ujDlU9nbhd1VOti2pvb8zVuYKZUNlDUJSWlMiNa65XskPnFAMtxhm9aazp3MI2TmRfUB9/R4nHwXk9o6JnNeilCn5//+t/l22HTygTXj/1+O9y6vj6Lx0nfPU6u9XFcUnj5zirl4bdMR3bdzzr6uNUbTairW58+Qp7NXTiRHCoOjpnguEuI+QxYoGwB7XQnEUdTga0b+3rkNPvvu/5nyfX8Coicvasuq+Z1S1tbnZx1GXYtIhIiQaD1Xt7Y9La9u+u/TwVZyOq0pxFuzNMQI5KS0pk5Ypl6j7A0YTIhwmR0oW8WIQ9qOTV2KCcfu8Dwp4PnX7vA3nsD1FP31vf2ufMwvCm+uxn9rxqwW51S5tbZ/Xq6xZp1ZZehyrNE5ufcvXnqVbVE1Fn7EJNDVs4ETxKn1MtKCLoEfagathTBWFPZObHLnT0v/f4Hzo9+7Osfe6PjtxImDH9Qrn7s/7YruXmeS/O6jmrtzcmzftecO3nqVjVE7G//dXxsMd5PQQx7NXXBfrng7AHjcMezVkMq2ovcvS/l2zc4rYNL75hqtumqf/WFz6hbHdRq9w6XK9bVc8rQ/G46X/X7areqpUrFKzqRZV5LCw6EUScwQZhD5YdyKFphpMYuWCIlBXJxTOdbVW89+jbrt9A2PjSG47dBLj7szW+eG17e2OuVfW0OMivRHg5Zvq1c7OqJyJy4w3qvYaHFDmvV1xcxKIXgeXlTFK2TxP2oKFXac6iHKdHJjS7WNk7/e778ve/dqaBxYzpF8q21Z+x9HvC4QplX1e3KkPhcIUsbWrU7n2v8ra87Tt3ufrzVJ2NGFXlvF41XTgRXF7OJC3VaB4qYQ8QdUYuEPYmcrrKefq9D1zbrrvhxTeke9CZoa8bvvAJiZRZq3LO8Wiwem9vLOs/d6sydIemZ/VUHao+FI9L8/P7Xf2Zqp637Dz2ZyUeB8PUAffRAZewBw2pUtWbMf1Cy4t6P8vHMPS2E/kP9q/GBuXx/3DmTI9u2zd7s4xScLOqt2rlCj5EDtq+Y5erQ8RVreqJiESjqlT22EoGuG1OZZgngbAH7cKeIs1ZrghT1Zuy4LvM2cDXdjz/ZzPXPvdHx/5bj13tnzv3Q/G4tLQdcOVn3UEHTktisVjW126HW6v4qgAAFQxJREFUy1s4Va3qHWrvUOaxUNlDoL+3+vo8+bmVnJMl7EE/NGdRV2OVs91Jm9/M77k9J7tv/vDzn/DVtl63KkO6V/VKPRiqnq0iS1VvjCrD1MPhCs4NIdhhL+ZN2KMDLmEPmjn97vuOna3KOdjMZ+zCZE6PYBDJ3xlNJ7tvXh6eKRu+8An7FyPF7vi7WRnSvQOnakPVqepNpMrYBbZwIsi8/BwyzoewB80wTF1t+RjB0JanSq6T2ze3XfMZX72OLS1trlSGiouLOKun6WuXVF+3SOlxAlFFmrOodlMAcDXseXRu1stxDyDsQbGFv1UXz/z/27v/2KjrPI/jb3ctKZkpnW4MMqUGWkOnATk42ho4e3TawnmulKnZu7KroPTwR5Fkqbl17zauUlQSNetu8XL+ulWrIv5Acx3KebtRykDYc2NbU45gZmqEbo6ZLia77fZbglcu1/sDyxWlpe33M9/v5/Od5yPZbLLJfmf4fGc685r35/N++zwzMFs11Vs501HZY/vm5J51aIj6po23s7XN0Hs3Rueq3pBlubZ17OvYSmaezq5PWARVa+nS2VnOyRL2YGLY02TsAlW9ianeynn4lNqA3zdwVnYfjSsL/U0V3vrFvi3a7sgXZL/fxxD1GbIsy9V7N6asdIXWW6Q6NWrOwlBnc8TjCfmrW9ZLw5b7ZFVFlRzsiLEodt+L3e4EZ35kIezBQMcYpq69dJxlVBnyG975SAa/PK/kWq31K5VUeN1qDX250BDd78xcPS9V9ZzeKhSfYEg4Vb2vrZMmIxdCxYuoYBtiyLKk4e7Giz+aWNawbH/gQXno4Z0sjo3w7FaFvaY6zA0g7MEkfQNnlX1J1zHQeEVg9iypLFS7Pm0n1HTlbO06qWwr8PabQso6sua7NFT961+GP+7sdqx7oZeqejoMVqeq9026VPZozmKOiTrZRvcfIPDN9G/T/gOuPG5VeDWLT9iDaXRqzsLYhcnV3aB23p6KcRuD50bkgXY1X/4WBHy2um/q+0VnryOPE6m9lUqHYk5VZMfcb8BsxESvJpU9tnAaY7JOtgS+mek4dNiVx6WqR9iDgXQ5r7csGOBmXCkMF6kNwz39AzJ4bsTWNZrau7XbvqmTZDIlh2JHCAoGcrIiK2JGVS8eTzjalXQyJSE6cZqgLdp+xdcMgW/6a+rWFs5qwh5hD+bRpbLHeb2prVFudpbasG+juhf7/Iy82n1KyfOILC7wZGX32ededORxdB7APVM5LgxWH+85h8/q1UXWaX9PdDmvJ8KcL1NMtToe3X9Aftj0IxmaoFESxn2uOPy3aUxVeDW7Rwh7MJHqroyEvTR/IVyidiunncpuwz41M/Vys7OktX6l574MDlmWdMSc2Wrjxaqe0zPUxm9PTCZTjlb1gsF5RsxG1Kk5C/Q33fdRx6HD0rClkcA3CTeremzhJOzBQFqd1yvivJ4b6zTT10DzB8elb+CskufQWr/Kk/MVJ2pKoJoXq3puGH+vnKrIjtlmSFifqGOp05jzZcjfwEnO6k0kkegl8E1gyLJcq+r5/T62cBL2QNizh8re1Kiu7M2ksts3cFZ2fnhcTVBZXKD836SLqEPd0pirp1YymZJou3ONWUyp6omIdHXrMRCbTpze/huYSPTKzbesl3g8wSKOD8973nSvqlcVZgsnYQ8mip3UozmL6pECXhaYPUt5M5vpbuVseOcjJY+bru2bOnBqq01Z6QrHtzt6ndMtzU2p6n2s0zB1wp4RfwPt7GywrGFpuLtR2qLtLKZcaI70nEtVPRF+VCTswVjHUoNaPA+qetNTt+Q6xaF/6tW9thOnlc3Ua167NO3bN4PBea7cI6da9nu5A6dbX+j3zGDrmZ3XpylVvXhCnyoLP3DoT8XfQMsalp8+8qg8+dTPM3otx4bSu4UfFQl7MFhPP504zQx77jRpUTlTr7JwrjRVlKR9rea7MFg95VBzDxNa9dvhxlD1J5562tHRAtsMCusJTc7rlZWu4ENAc6obHL3+xpvyvfo7MnZbZ8OWRldHnlDVI+zBULrM1yPszWy9VI5gODbF0N9yNKGkKUtudpa0bljl2fvj1Hkv5uqpt+eNtxx7LNMaHsR7P9PieZQwTF17r6ehOp5I9ErD3Y1pubbOHnp4pyRc7IIbDM6jCydhD8aGvZN6jFzIzc4i7M2Ayq6cg1+ev2KIU9mUpXntUlmY5+Mm2uD1ql4m2LTxdmMaHgxZlqtfOMcrL+N1r7t0NaeyrGF58qmfS8OWRq3OkKbrPfe9+jsca/Q1kW38qEjYg7m0GaYeJOjNhOqtnFd6PahqyuLU9k3P338DBnBjYn6/z6itUbqMXBChOYvu7DZmmYrOrm75u7sb5aGHd3pyREMymZKGLY2u/8ASKl5kzJliEPZwGcc0Oa8Xvp75ejqs22RhL/b5GWWV4Jb1zv4q78V5XCY19bDDy5VLk6p6Y1+udQnJzJTUm1PNqS481gG5+Zb18uRTP5dkMuWJ9TvYEZO/2XCHFpX0f/jx3/OCJuzBVIPnRpQNxLaLLZwzszDPp3QEw2RnOBv2/VbJY+xYs5T7rQDbasxmWlVPRLRpjFESoiOgzpIONacaz7KG5fU33pSbvxuRhx7eaWzoG7IseejhnbL9gQddbcYyhqMChD0YTpfzeoQ9e1Se2/vd4OXDf8vRuJIfBpYFA9K8dik3zaZMqep5mWlVPRF9hqmX8+VTa243T4nuPyA3fzciDVsaXT/rNh3PPv8vcvMt67V6zrse28EL2lBXswQQ0ee8Xm52Fo06bKhbUiC7f6PmF/fLBbrBcyOy8wM1TVla61dxwxSgqmc2E6t6yWRKi0qDCOf1dKdLWOns6pbOrm554qmnpboqLDXVYamuqtTufRVt/zdpi7ZLKtWv1XPb2ngP26UJezCdLmMXVFamMpHqc3uxz89ccs2WowkZ/PK87eu6uX1zfn7QU0Eh06p6weA86e//vWf+PTVVYeOqevGEPs1ZqOzpy4nGLNNlWcMS3X/gYgitrqqUmuqwhIoXuTIkfMiypKvrE2mLtkvHocPa/s1lrh5hDx5wjGHqnhFZXCDRT08rudb4YKdq1MKCgM/V7Zv5+d75dXLTxtsz7vU9Pz/fU2HPxNmIuoS9YHCecUE5kxzsiGn/HDsOHb4YsnJy/FISCkl5eamUhIolPzhPeQC8MLLkswuVxs5ubRodTWbXY828zwh7MF1PakBJtUaFcNFcbojdNbx+rrKw15MauDjSofmD/1Ryzdb6ldwkBUzc/odLRWpvNXJrVKcm88zYwqmvZDIlh2JHjHrOljV8cbvneGMhMCfH/43wN9GMx/HXSCZTkkr1SzyR0K7SeSVbG++hKQthD14Je7qgsmdf3ZLr5IF2tc0T+gbOyqvdp2xfZ/tNIUZrKGJiUw9c6n5Dz1vq0pzFjW13mJo2g5qhTDUEioi2Wy3TIVS8iDPhHkE3TmgT9hYEfBKYPYsbYtPCPJ8sCPiUvjZUVPXc3r7pJVT1zGdqVU+XkQsiE1dV4L6oh8Jepn7GPNPyMxaCsAfCnlpU9dQZ23pp19j8RRVVvdb6lVqEeS9sScnkqp5XGnKYWtXTqTkL28v0/UFAt26SmJ5djzXTfZOwBy85fEqPGXvh6zmvp24tr1V2HRVVvbtKC9m+qTLMr1/HIhjM1KqeiD7n9ULFi3ghaepgBm119KLHH31EaqrDLARhD16hy8gFEZHlQSp7ysKeokY3g+dGJHrCXrOX3OwsaanlF3iCAi7eQ4PHZcR7P9PiedCcRV8dhD2jP18ybZwPYQ+e19OvT3MWKj/qBGbPkspC+4Ev+ulp251aW+tXcRZTofs5MG+0stIVRm8/TGiyjTNUQtjjNQLVQW/X480sBGEPngt7mpzXWxYMcDMUq7vB/rm9voGz9j48FhcoOz+oUjA4z9gP40yv6s3PDxLWXfJxpz4zwW6kOYu2/H4fi0DQA2EPujh8UpPzekVU9by2prnZWdrO1Jtv6GB1qnoi+fnmhl3Tq3o6DYBm7AJ/p0DQA2EPV9A3cNZ25UZZMGELp3LL8/OUjWCYiZbaUrZvKv5A5qweX4JdDXuaVPbKSlfwYtLYnRtvl0jtrSwEQQ+EPbiNYere51aH08rCubK5rIgbQFDAuIBi+qiARK8eZ7HKGbmgvV2PNxP4CHog7IGwd8GCgE8W5rHHPx3qllzn+GPmZmdJ64ZVWq+LaV8WtzbeQ1WPsO6qIcsSyxrW4/3LeT1jAt/jjz7CQmjo8UcfIegR9gDnMF8vjWtb5PzaNq9dSnhXyO/3yaaNP2AhvmJidcwLVb14nGHqmL66SK28+/Ye5iJq9Hny8i+fZ7wCYQ9wOpBwXi9dArNnOdrptLJwrjRVlGi/LibN6Nr1WLPMycnhxfy1LywmPdddj+0wfs3n5Pi1eB5V4dW8AQxTUhKS9/btla2N97AYLiorXSHvvbOXH0sIe8gkulRfdGzN7yVObuXUffvmGFO2cVaFV0tNdZgX8TfCujmdGO/feq8ntuDq0v2S83rm2rb1Xvn1+1ECuwu2Nt4jrS+/wHEAwh4yjQ4dMCOLC+jY6JEwvWONOds35+TkaL+tyO/3caZiAtXVlUY8z7LSFXLnxts9s+46fEmvqQrzBjDY/Pn58k+7n5aXf/k8XVUdECpeJO++vUe20eCLsIfMtDDPJ5HF7lbVmiqYlZRuy/PzJDc7K62PsSwYkOa1S41aF53Pwfn9Pml96QW2b06gLlKr/VbOUPEieWb3zzy37m5i/Ih33FheKq0vv0DoS+NnyI8ffEDe27eXmZQg7GW6lvWlaQ8CE35wLy5gvp5TX9LSXN1rrV9l3ppEarWs7l0449XMB/Qk5uTkyCaNK2ah4kXyysveC+s11WHXqnt+v4/xIx4Ofe++vYdRDaq+W9XeKu+9s9dTuwpgz7ebm5ubWYbMFZg9S/46lC9vHfud/Pf//K9jj7sg4JNfbamS7KxvcxMcMHjuvEQ/PZ2Wa+9Ys1S+v3yBkeuy7M9ukPd/9WsZGTmvTdBrfekFubG8jBftFL4kJpMpSfR+ptXzqgqvlmd2P+3ZqmxFxV/I0aP/IX/4wx8dfdxHfvoT3hceds0110hNdVgi69dJTk6OJJMpGR4eZmGmoax0hbzy0vNSV1crc+awKwT/76rR0dFRlgE9qQFp2t8th099kfbHqiycK60bVtGe30F9A2el8IloWkJ7308iRq/NkGXJD7f/SLq6P3H1eWy84/ty/9Z72bo5Tf/83Ivy+p69Mjx81tXnEQzOk21b782IluZDliXPPvei7HnjrbQ/1lilm0ZFmedgR0zaou1yKHaExZhEpPZW2bTxB+wGAWEPU9N24rS0nfgvaTtxWv70pdpqR2RxgdQtKZDNZUUstAuWt7wvx/oHlV7z0L01ntmKG48n5PU9b0o80etItcjv90l5WamUl5dKXaSWkGdDMpmSg4di0tFx2NHQ7vf7pKYqLNXV4YwMI8lkStr2H5COjpjy90yoeJFUV4elbv06zulluCHLko6OmBzsiBH8vva3xyvdfkHYg4tin5+xfY2F3/FTxdNA0/5u2f2bhLLrbb8pJC3rvdsG/ePO7rRdmzlH6Q/uQ1Z6t4BxD9O37qwtCH6XV1a6Quoi6xiKDsIegMsH96oXDyq51oKAT3qabmFsBgDANQc7YtLZ1S0HO2LS3/97T/4bQ8WLJBJZJzVVYap4IOwBmFxgxz4l23O9tH0TAGC+ZDIlnV3dEk/0Smdnt3bNm6YqGJwnN361xb+6OswWf9h2NUsAZI5w0bW2u3LeVVpI0AMAaGX+/PxLKl9DliXxeK90dnVLKply7Dz2dIWKF0lJqFjKy0ulvKyU6h2Uo7IHZJDmD47Lzg+Pz/j/n5udJX3/GGH7JgDASB93dotlWRJP9F7473ivJFOptG4D9ft9UhIKSU6OX0pKQjI/PygloWI6aIKwB0CdwXMjUvhEVAZtbOP81ztXp31AOwAAbhnfaCieSIg1zaZDJaFiyflq6+X8/CCVOhD2ADjjtteOSNuJmW/hjCwukLa7VrOQAAAAhvgWSwB434X5iTMPernZWdJav5KFBAAAIOwB0MXguRFpeOcjW9doqS3lnB4AAABhD4BOGvb91tY5vcrCubK5rIiFBAAAIOwB0IWS7ZsbVrGQAAAAhD0AulCxfbN57VJZmOdjMQEAAAh7AHRx22tHbG3fXBYMSFNFCQsJAABA2AOgi+YPjkvs5Be2rtFaz/ZNAAAAwh4AbcQ+PyM7Pzxu6xq/qF0hy/PzWEwAAADCHgAd9KQG5LbXjti6RmXhXLZvAgAAEPYA6BT0ql740NY5vdzsLGm7azWLCQAAQNgDMB2D50akJzWg/LptJ07bDnoiIrH71jA8HQAAwCOuZgkAZ4yvvC3M80nz2qUSWVxgK1wNnhuRnR8el5ajCdvP75W/Xck5PQAAAA+5anR0dJRlANKv7tUjEv300gHngews2VxWJNsrSqY1z64nNSCvdp+U1q6Ttqt5Y0Fvc1kRNwkAAICwB2C68nbsmzSY1S0pkOX5eRIuuvbi/5abnSUL83xyrH9QelID0jcwLG0nTkvfwFllz4ugBwAAQNgDMEM9qQH5893/rt3zIugBAAB4Fw1aAIfCHkEPAAAATqJBC+AAldsu7crNzpLYfWtoxgIAAEDYA2CXLpW9ysK50nbXasYrAAAAEPYAqDB4bsT157BjzVJpXruUmwEAAEDYA6DK4VNfuPbYlYVzpXXDqmmNdgAAAABhD8AVuFXVy83OkpbaUpqwAAAAEPYApIPT5/Vys7OkqaJEmipCnM0DAAAg7AEw3YKAT5r+MiSbS4sIeQAAACDsAem2PD9PlgUDcqx/UPm1c7OzpG5JgTRVlDBKAQAAAJe4anR0dJRlANKvteuktJ04LbGTZ+RPX56fcbhbHsyT8PXXSt2SAgIeAAAACHuATvoGzkrfH4dFRCR2cvJOnQvzfBf+8x0/HTUBAABA2AMAAACATPYtlgAAAAAACHsAAAAAAMIeAAAAAICwBwAAAAAg7AEAAAAACHsAAAAAQNgDAAAAABD2AAAAAACEPQAAAAAAYQ8AAAAAQNgDAAAAAMIeAAAAAICwBwAAAAAg7AEAAAAACHsAAAAAAMIeAAAAAICwBwAAAACEPQAAAAAAYQ8AAAAAQNgDAAAAAKTR/wHPIEmq2f5FAwAAAABJRU5ErkJggg==;" vertex="1" parent="GPzBYBWvHa93N3hvbvar-22">
          <mxGeometry x="7" y="89" width="70" height="38" as="geometry"/>
        </mxCell>
        <mxCell id="GPzBYBWvHa93N3hvbvar-26" value="" style="aspect=fixed;html=1;points=[];align=center;image;fontSize=12;image=img/lib/mscae/Docker.svg;" vertex="1" parent="GPzBYBWvHa93N3hvbvar-22">
          <mxGeometry x="10" y="176.5" width="64" height="53" as="geometry"/>
        </mxCell>
        <mxCell id="GPzBYBWvHa93N3hvbvar-27" value="" style="shape=image;verticalLabelPosition=bottom;labelBackgroundColor=#ffffff;verticalAlign=top;aspect=fixed;imageAspect=0;image=data:image/jpeg,/9j/4AAQSkZJRgABAQAAAQABAAD/2wCEAAkGBxMTEhESExIWFhUXFhoXGBcWFxobGBoVGR0WGhobFRoZHSggGx4lGxgYIzEiJyktLi4uFyAzODMtNygvLi0BCgoKDg0OGxAQGy0lHyUtLS03NzA3Ly0wLy4tLy8tLS0vLTcvKzcvLS0tLS0tLS0tKy0tLS0tLS0tLS0tLS0tLf/AABEIAIsBawMBIgACEQEDEQH/xAAbAAEAAgMBAQAAAAAAAAAAAAAABgcDBAUCAf/EAEwQAAEDAgMEBwMFDwIDCQAAAAEAAgMEEQUSIQYxQVEHEyJhcYGRFDKhI0JSkrEVMzRTYnJzgqKys8HC0dIXJDWT8BYlQ2N0g5Sjw//EABkBAQADAQEAAAAAAAAAAAAAAAACAwQBBf/EACcRAQACAQMDBAMAAwAAAAAAAAABAgMRITEEEhMiQVFhMnGxIzOR/9oADAMBAAIRAxEAPwC8URc/Gcap6VnWVEzIm8C9wFzyaN7j3BB0EVYYl05YbGbRtnm72MDW/tuB+C0W9PtFxpai3d1Z/qQW6irrDemnCpbBz5YSfxsZ+1hcFLqHaiimjdLHVwOY0Xc4SNs0c33PZ80HXRVvjfTVhsDi2MyVBHGJoyfWeRfyuuIOnynN7UM1hxzt/sguNFVNP08YeWuLoalpAuBlYcx5Ah+/xstP/WGrqPwHCJZW8HuzuB8Qxth9ZBcSKmn7ZbSk3bhTWjkY33+MgXl3Sji9PrVYO7KN5a2Vg9bOAQXOirjZvpmw6pIZKXUzz+Nt1ZPdIDYfrAKxY3hwBBBBFwRqCOYKD0iIgIiICIiAiIgIiICIiAiIgIiICIiAiIgIiICIiAiIgIiICIiAiIgiHSVtszDKbrLB077thjO4u4udbXK2+vPQcVXmCdH76sHFMdqHgOGZsRdlIYfdD/oDXSNtj53CyRxfdbaV+ftU9CLBu9pMZtblrKSe8Nsvm3u0Dqqoc0E9TE4tYOBI0c88yTe3d4lW4sXktory5OyNXVZtPhtL2aLDoyB89zWtv33ILz52Xs9JjzoaOIt5Zj/ioCi3R02OPZinPf5TibafDajSqwuM/lNaxxHgbNI8isQ6LcIxBhmpHzwAGzt+TmRaUcBxa6wUZwXDXVE8UDN73WvyaNXHyAJUv2+xhsLW4bTdmONoElt7idcpPxdzLvFU5MFe6K15XUzW0m1uHmnrcIw0CKjpW1EjdDM8NJJ75CNf1RZe3dKNRfswQgcu0fjcfYoEiur02OPZVOe8rAj6Q4pCDU0Ebra5m5XEd4Dx/NS2HaBlZHloalkcoHuSM18Mptp3tuFSS9MeWkOaSCDcEGxB5gjUFct01J42dr1FvdMcZ2lxamkMc0pYd47EZa4c2nLqPiOK+UfSTWsIz9VIOOZpB8i0gD0K6Wz+PxYhGKGusXn71NoCXcNeD+/c7ce+G7QYNJSTOhk4atcNzmHc4f24EFcpWkz22rGpa1o9VZ2S6d2EYv8AJ1MAgqHaCQWa7NwyyAWPg8eRUdz4hs1K0Empw17/AKt9Tb8W/j9F3cd3BKsTYfGW1bH4bWN61j2ENLtSWje0nfcDUO3i3cFTm6ftjuqtxZ9Z0ssTBsViqoY6iB4fHILtcPsI4EHQjgQt1U30IPfTVuKYY5xLInlzA78lxYXD85pjPkFciyNQiIgIiICIiAiIgIiICIiAiIgIiICIiAiIgIiICIiAiIgIiICIiCj+heUiDG64++4k37wJJPtePRRoKSdEUJGF41D85r3gjwjI/pKja3dHxLH1XMCIvq2Mqd9GELYxWVr90UeUemd3wDfVQipndI98jzdz3Fzj+U43PxKsTZrDZJMGmjhbeSaQjeBpmY11yeGVpWm3YCGEA1ldHEfojKPRzzr9VZq5Kxe0z+l80tNYiECRTqp2EiljdJQVbZ8u9l2knuDmnQ8gR5qDEW0IseIO8HvV1Mlb8KrUmvL4iIpovoP/AF/ZWM533Vw4k61dN6uFv6mg/rNWjh2xEUcTJq+o6kP92MWDtdQCTe7rfNA0Uj2Qgw2KoLaWd7pXNLSx17EDtbi0ai3xKyZctZ3rzDTixzG08SqMKQbAX+6NJb6TvTq5LrQ2hgDKqqY33WzSADkMxsPJd7ospc9cHcI43u8zZg/eKvyW/wAcz9KaR64j7b2yMN9p8XcNwiaD4uEH9irYVW9EjTNX47W/NfU9Uw9zC8/umNWkvJemIiICIiAiIgIiICIiAiIgIiICIiAiIgIiICIiAiIgIiICIiAiIgqLYCEQ41j1Ed0vyoB4tJJ08pvgoVNEWOcw72ktPi0kH7FO9qP9ptLhtTe0dVEYHd7+00A+bovRcDbqi6quqW20c7rB4PGY/tE+i2dJbeYZeqjaJcBERbmNY+HYhJDgXWRPLHiQtzC1wHS2Nr7jY71A6OuLJmTPAlLXhxEnazcw4n7VMm6bPnvl/wD1H9lA1RiiJ7v3K7JM+n9LCodrYZa6jMNMIbuLJHdkF7Xiwaculg7KbnXTgo7t9RiKvqABYOIeP1wCf2rrk4S+08BG8SsP7TVKOlhtq5p5wMJ+tIP5JWsUyREfBNptSZn5QxbuCBpqaYO93ro7+Gdq0l9a4ggjeDceI3K6Y1hTHKwtt8cmpcTErQ12WANa14uMriS61jcG43jkvOwdfJV4m+oltmELtGiwAu1oA9T6r50gsFTS0eIM4tDJLcC7n4PDm/rLB0Ryf7uVv0oT8HM/usmkeGZ9+GnWfLEe3KI4vNnqKh/0pZHernFTHY2YUeG4jiDtLNIZ3lo7NvGR4HkoVVQnrXsAu7rHNA4l2Yi3qplt/RfIYVgUZ7dRI0y23iNhL3u+td36hXeptpSK/JgrreZSToZwn2fCqa/vTXnd39Zq39gNUxrqtsUb5XmzGNLnGxNmtFzoNSvcEQY1rGizWgNA5ACwHouZtf8AgNZ+gk/dKwNqN/6uYV+Pk/5E3+C+Hpewob55B/7Ev+Cw9B8TThMN2g/KTbx+W5T11Mw72N+qEGhgG0NNWMMlNM2VoNja4LTyc0gFvmF1FU1bRNoNo6L2ZojjrI3CWNgs0kCS5yjQahh8Q7mVa0kgaCXEADiTYeqD2i16eviebMlY88muafsK2LoCLBUVkcfvyMZ+c4D7SvtPVMkF2Pa8c2uB+xBmRcDbyufDh9bLE/JIyF7muFrhwGhF1k2LrHy0FDLI7NI+nie9x3lzmNJJt3oO2ixVFSxgu97WDm5wA+KU9Sx4ux7Xjm1wI+CDKi+BwWOepYwXe9rRzcQB8UGVF4ila4BzSHNOoINwR3ELCa+K+XrWZuWdt/S6DZUW272ldSRxtiAdNKSGXFwALXNuJuQAO9SlVx0oXjqaCpIJYx1j4tc19vEgH0VmKsWvESryzMV1huU+x1XM0Oq6+UOOpZGbBvdpp6Ben7BysF4MQqGu4Z3EjzsQpfh+IRTMEkT2vaeLTfyPI9xWyuzlvBGOuiC7L7S1DKk0FcAZPmSADU2uAbaEEDQ2HI6qRbT7QRUcXWP1J0Ywb3O/kBxK1sX2VZPVwVfWOa6LLoALOyuLtTv4kKLuj9vxlzX6xUwPZO67CAQfF515hqlpW86/W6Gtqxp97NijosTrx1ss5pYXe6xgIcW89NfMnyW1/p2N4rqnNzzcft+KnCKM5be2yfij33V1WvxLDflDJ7VTj3s3vNHefeHjcjuU0wPF46qJs0R0OhB3tdxa7vC3pGBwIIBBFiDuIPAqutlW+xYrPRg/JSDMwcrDO39nM3vsF3a9Z+YR3pMfEuhsNik0tZiDJJXPax5DGnc0Z5Bp5AeinCrvo6/D8U/SO/iSKxFzNGltvpLFOtRERVLFbdOtC40MVWz75STslB5NJDT+1kPkub0k5Z46Gvj9yaIC/iA9nwLvRWZj2Gtqaaenf7ssbmHuzAgHyOvkqp2MDqrBamheL1FBI5tuPYLnNA8usYPzVbht23iVeWvdSYQ9ECL1Xmp9iP8AwGmy7ut7X15f52UCU92FmZVUlRhsjsrjd8R9DpzLXDN4E8lC8SoJIJHRStLXt4cCObTxB5qnFtM1nnVbk3iLQ3dkaIzVlMwD/wAQOPc1naP2fFdHpJqxJXy23Ma2PzFyfi4rr9HsTaenq8RkHutLGd9rE28XZW+RUDmmc9znuN3OJc483E3J9SlfVkmfjYn00iPl4REVypPOjqtZNHPhsx7ErS6PuPzgO/c4eBWHo/o3wYoYXjtMZI13hYEEdx0PmofR1LonskYbPY4Oae8fyV0UMkEtsVYCXmDIWt1Oa4OWw+dfs+iyZvRr8T/WnF6tPmP4h+yuDCXFKuVw+Sp55Xkndn6x+QeVi79ULZ6PW/dDEq7GHXMTT7LS3HzG2zOb48/y3Ba+2cslLRw4ZB2q7EXuzkX06w/LOJGoaL5QeQJ4FWHs3g0dHTQ0sQ7MbQ2/N29zj3lxJ81ky37pacdO2HTXI2v/AAGs/QSfulddcja/8BrP0En7pVaxVvRdtbLTYfHEzDaqoAfIesia0sN3E2FzvG4+Clh6QKnhgtcTwu1oHrdeOgz/AITF+lm/fcrAQVts9gdXUV5xfEo2wdVGWwQB2YsbZ13PI0vZz++7twsFp7L4P93DJiFc576YyObS0ocWxiNhy55A2xc4kW38+FgLLxSnMkM0Y3vje0eLmkfzUL6E6sOwyOA2EtO+SKVnFrs73C44aH4FBtYh0YYa9vycHs8g9yWBzmPYeBFjY+YWhsbtJVGmxOmnPWVlBnbmt99Aa8xOI4k5PsvqVYZVWbG4mxtZtDiZv7M17Gh7RmzCEOD3NtvAFj4OQeejLZqgraRlXUhtXVSFxldM7OWuzHshhNmi1uHHlZdDa3o/EbBU4REIKyNzS0RuyMkbcZmyNJDCLEnvtbitqLYbCa5kdZFCY+tbnbJC50Tu1qSQ02Bvv03rlbSbL1OHU81ZR4nVfIt6ww1D+tjcxupFnbjb+2m9B0ulDZ+Gegnq5oj7RDSuLSJHAMdbNYhrsrrOJ3grkYJhlHh2Ew4u2E+0No2PuZJC10krGixaXZQC5w3DS+i7u0eJmp2fnqS3KZaIvLeRcy5t3LlYrhrqjZaOJgJd7FA8Aak9WI5CAOJs0oPeyewEdTFHW4pmqqmZoktI49XG12rWsYCBoCPiujiuwMMDXVOGt9mqYwXNDHO6qUAaxyxk5S1wuL6EEg8F29hsYjqqGlljcD8m1rgD7r2gBzTyII+xbm0WLx0tPNUSuAaxpOvF3zWt5kmwA70FUbNzF2y1e7UEmc947QXV2L2FhrqWnq8QDpnOiYIYi94jigaAGWDSLucBmJP0lyNmSTsrXk7/APcX8cwVobEj/u+h/wDTxfuNQQrEKZ1TWswSmc+noaWFr6gxuOdwNskIeSXAWOuuvavuCkg6N8KyZPYYrfS1z+PWXzX77qInAoX4/XQ1D5WdfFHNAY5ZIs+UBrxdhGa1t3CxUt/09pfxtX/8yf8AzQcXATLheJR4c6Z8tJVMc6mMhzPikZq6PMdS227y71PcQoY52GOVgew7wftHI94UEiwXDIcUpace0yVbGmZmaaWRsbdQS/O8ht7bra3HMLPtBjc1PitO10pbTPDbtNsuocwm9uDrFTpWbTsje0RG73U9GsQdmp6iWE+NwPAizvisRwfGYPvVU2Zo+a+1z9cf1KfhFLzW990fFX22QfBdt5BO2lroOpkcQA4e7c7rgk6E6AgkLR2A0xLEwfezyenWuv8AaF56WwM9Fl++Xda2+12W/aXjGy7D8TjqyD1M4s8gbiQA8eNwH9+quiImu3vH8UzMxbf2lZiLHBM17Wua4OaRcEG4IO4gr2sjU+qusV1x+ntwY2/1ZD9llPq2rZEx0kjg1jRck7gFAdhon1ddUYi5pDLlsd+/TT81gse9ytxbRNvpVk3mI+33o6/D8U/SO/iSKxFXfR3+H4p+kP8AEkViLuf8/wDhh/EREVK0VVVx+5m0DJTpTYkzI7kKgEAE+eX/AJrlaqi3SRssMRopIRpK35SF260rb2F+AcCWnxvwQVdtlg3stVJGB2D24/zHX08jceS4inWBVzcbouolIjxGlu1wfoXEaEkb7OtY/RcPC+pgvR/VSTBs7DFG09txLSSOTLHUnnuHwXo4s9Zp6p4YMmG0W2fNgdnXTSCqe4xwQnMX3ykubrZp4AcT5eGXEulzC6id8E9I+WEOyxytaHFx3Ehtw5oJ3WNzpoF254YsWE1BTT9VQU2WOUwWL5n6nIw6gRttqbHM7uFzyKWLBMNeHQUkks7D2XStdcOHEGWwab8WtWW97Zbaw01rXHXSUwxikoGUUNPK51NA8gtYSQ+5u+zr5joTc33aXVcbYbNmikaA7PFILxv46WuHW0uLjUb7rc9ircWqOscwtZuzEERxs5Mv7x8N55Dd3ulSmbFTUMTbkMJaCd9msA1V+PWlorrzypvpeszpwrVERbGUJVs7PRw4TE32qoIfNZxjAJa06AkAAnS4BduNu5Vdh0WaWFv0pGD1cArR26pMNlnYKqvbTytjADXSMb2CXEGzxzvxWXqLRrFZ4aMFZ3mOXIxXZL2iudiNPjQje4ZW2bG7JH9BvaGnlfUrdp9lXTkxSY9Vyutctp3xx2HfkBNlxH0uz8PalxES24NkDr+UTS4+S0a3pMDh7DgNE4vdp1nV7r6Zgzj+e82FtQsVopH4y11m88w29hmVNHj1Rh7KqSppxFnf1ry4s0aQTyeC4A2tcO9LZxaiE8M0JOUSMcwkakZgRcDzUT6MdiDh8Ukk7+sq6g55nk3sdTlBO/Ukl3EnuCm6gm4WxezTcPpW0rZHSBrnOzOAB7RvuC7qIgKG41sLmqH1lFVSUdQ8fKFga+OTkZI3aE96mSIIHNsfiM4MdVjDzEdHNggjic4cQXi5F1KcLwGnp6YUkUTRCGlpZvzB3vZr+8Tc3J5rpoggdHsJU0l2YfiT4YSSRDNEyZjb6nIXWcBfv9V9q9iKurHV1+JvlhuC6GGJkLX2N7PcLuI7r+inaINCrwiKSnfSltoXRmLKNLRkZbDlYKL4Js5LhjC92ITTUkETz1BiYSGgE6OaMxsNwCm6+OaCCCLg7weSCvcO2Poaxra/D6ippRNdxNNJka4gkHPG4FoNwdABqFv/APYymgvV1dRUVRhBka6qlzMjygnM1jQG3HMglY4uj91O55w+vmpGPcXGHKyWEE78jX6t8ilRsHNU2bX4lPURAgmFjGQxutqA/JcuF+9ByOjbBPasBfA8ujbUumINu0GOeQCAfBWHg1AKeCGAOLhFG2MOOhIaALn0WelpmRsZHG0NYxoa1rRYNaBYADgAFlQcHavZSCubH1hcyWI5opojlkjdzaeWguDpouMNncXAyDGAWfSdSRmW3je1++ym6II7spshFRGWXO+aolN5Z5TeR/cODWjkO7fZZtqtmo62MNeS17bljxvBO8EcQeXcu4i7EzE6w5MRMaSgFJTYzSARs6qpjGjcztQPFxafUlZziuMu0FFEw/Sc8EfxFN19U/JrzEIePTiZQnBNkJnVAq6+USytsWMb7rbbr6AaHUAC19dVKsVwyOojdFK3Mx3qDwLTwI5rcRRteZnVKKREaK/h2dxGhJFHM2WG9+qlsD8dPMEeC2DjOM7vufHfnnFv4im6KXk15iJR8enEyrfENl8TrQ41M0bABdkQPZzcL5dB4kuK6WweNSh33PngLJIW6FrbNyj6VtATwI0cpsvmUXvbXn/14n1XZy6xpMEY9J1iVdU+zeJwVFTLTuhaJZHO7Rv2S5zm6Fuh1W91GOfjaf0H+CnCJOWZ5iCMURxMoP7Pjn42n9B/gs0cGM21lgv4D/FTNfFzyfUHj+5fURFWsV5t30bmpmFdQzey1rfngkMeRoM5bq020uAbjQgrl0eyGPVPyWI4k1tNue2DKJHt+jmbG2wPEknwKtdEFOjoxr8PqX1GD1TAx2+Ga+rb3DSbEPA4E2I5rrO2nx2PSXBY5T9KKZtj32u4hWYiCl9t8cx/2GaokjioIWgAtY7NO7MQ2zXC+Qdq9xlOi2NqnXwnBDzgj398Me9Srpnjvg9b3Bh9JGKKbQa4LgruUUQ/+oD+Suwf7IVZvwlC0RF6jznY2Phz11I3/wA1p+r2v5KQnA6fEtoMSZVRCWOGniYAS4WcQw3BaQRvcN60ejGDNiEZ+gx7/hl/qXe6K/la/Hqn6VUIh4R593qPgvP6ufXo29NHp1dql6LMIjN20LD+e+R49HvIUnw7DIYG5IIY4m8o2Bo+AW2iytIiIgIiICIiAiIgIiICIiAiIgIiICIiAiIgIiICIiAiIgIiICIiAiIgIiICIiAiIgjPSXTdZhWIN3/IPd5sGb+lQCnf1+zdC9uvUuDXd2Vz4/5hXBVQCRj43e69pafBwIP2qiujzE2YbNW4JiXYjkecj3aMJcMt77mte0NIPAjXVSpbttEo3r3VmHERTPEejiqa49QWTRnVrswa63DMDp5grLSdHMjRnq54oIxq45gTbxNmt8dV6fnx6a6vP8N9dNGToxAhbXVr9GRREXO7QZ3+ga31XR6BaVww10z/AHqioklJ+qz7WOPmoxtDjDa5rMDwYF8ZI9oqNcgYDdxLuIJ1LtxsA291cOB4Wylp4aeMdiJgYOZtxPeTc+a87LfvtMt+OnbXRvIiKtMREQEREBERAREQEREBERAREQEREBERAREQEREBERAREQEREBERAREQEREBERAREQFG9stiaTEmBtQw52g5JWG0jb8juI7iCFJEQVHD0TV0HZpcbnji4Ms+wHg2TL8Atqn6HGyEOr8Qqqu3zXOIb55nOd6EK0kQczAcApqOPqqaFkTOOUak83uOrj3kldNEQEREBERAREQEREBERAREQEREBERAREQEREBERAREQEREBERAREQEREBERB//2Q==;" vertex="1" parent="GPzBYBWvHa93N3hvbvar-22">
          <mxGeometry x="16" y="133" width="95" height="37" as="geometry"/>
        </mxCell>
        <mxCell id="GPzBYBWvHa93N3hvbvar-28" value="" style="shape=image;verticalLabelPosition=bottom;labelBackgroundColor=#ffffff;verticalAlign=top;aspect=fixed;imageAspect=0;image=data:image/png,iVBORw0KGgoAAAANSUhEUgAAAYQAAACCCAMAAABxTU9IAAAAclBMVEX///8Nl00AkT4AkkIAlkoAjjcAkkHo8uwAlEap0La318KgzK/R5djJ4dE1oGDD3syv1LxrtIVKp22Nw58AjTT0+fbj7+eZyKkqnVo/o2aQxKLc6+Hv9vEnnFhhr35FpWpUqnWCvZdxtop6upFarXkAiispbxSeAAAMR0lEQVR4nO2da3eCuhKGJVzEW22t1taqRdv+/7+4FRWTuWVC3euss/a8H0Ug4SHJZDIZBgOTyWQymUwmk8lkMplMJpPJZDKZTCaTyWQymUwmk8lkMplM/0nNj02z2Kz+18X4N/Q5em2aw+gz9bzpZt80m9Gb+KftUKtttJw7VxdFkS9HxMHheD6WS0LrjTtvfGia/Xra44qTl6Z5eU56Vca7Mj/Vrc7L3TzlvFnmzuflVdkIj2+xdFotG/mGb8siu6icgEPbQ1W2l3gZplRhMN+3p7nyOINHCtc+FJetk644mD9dHmf1S70qtD7f3a1qWeGeom9jp3H3SLK6ZBvRyGV6ubF4x/fuhtkyfHc/y/xWFLKVMNouyrqrwkdQ9UN5u1lRFRCQoOHH/XG6H+VJ8997zc53XGqb39uvf1rG/a3OUpRLd3z2eNZ7/8iw9K6xVDfnaemXrvBPfPavWJQb7SXnpf843avqpKH/KC91UGJ/CR5vBfuHqyZVGoRv4Y4Lv35Lv8cNy+J0FTgxgFW/U8jDI+6ou+RoCa6oGmZ/0Jta1LoeKbxd8UH+aQXrGdNSGFqDB+O8FrsNy1I9qyqAGHj4nuG7UzWaS47gJXNNU1gBcu3z3Gnu9wn6+pK0BV5zfH1RDMy2rEENK2/4GIePrJaaU6dtHfTDl4vexpMX9G7mi/glEQPds3yjhs1aM57Ad6Wk2s8wZVS+yLGv8TS4mA9hFKIunhTlH+wwg/tIQxyMU8AMTi1bUZIx2WU7xTgEIThqQMcvVFwVd8fZQyEsqKIVX9ej7wShGAWKQVYqikJDyErZVDxLA+EzdURo68p1JiEEv7ftAeGbqfj1MNVMIhQmZGX7twR5fLxIA2FBVSUqzqJ4JATyrc3uEI5kE5Yo0Ax4090TB6EQDfazFBAI80Mjbmx+IAS2ZDcIyDq63pSlQDPIao1py0HI6lhFFBCojlUjZmx+HIRtzpXsBoEzrTkKDIPMaSZdLIQsf5HPjEMYp5tGV9Fj8+MgEMbpVd04SvdHHAWOgao3EiBkjpkDXxWHkMGq1pzjDlaYHpsfBuGDt9k6CFvuDaIocAyyUuVBESBkpdiUohCQwyL/mU1npA6wxuTY/CgIR2ECebcoJ3oKLINc5+yQIGRO8gpHIcCqCnPhwSFX/PdBENine5Zn1mOHzu3OX+CCHAPdpDECoXgXzoxBgM9VbliwGNTY/BgIU8JR4xXS++dOR4FnkCuXNkQIWd3wZ0YgIPMi9D1DzeHfCU/oQyC8iQzCCa6Kwt8ZRCBk1YE9MwIBOSwi078G/J9wwgG3hddW9BBWvGHUKvQyKCg8gEEMQlayy1QyhDfUECKeTeTqw2PzI3xHgmF0qW/49yiFRzCIQshKbqFNhrBHDSG26r0G18NP8gEQJMPoUl1wQoSCwEC/TByHUNQMURHCDC1u8P1aV1/QUaCx+e8Q1tHpI3J6shTqL4mBcmHsIgQB3bNmLEsRwgfseVn/9F3InwPH5j9DGKNnlsPqYs8zT2Fx5JimMUAQ6jVqsDm9xCNBQA6LShM1Aj0FcBj5q3WEHetuBO0Hwv3PUij4A0kMEAQ3RcZi5siuRIIAHRY6Fwqa3oGx+Y8Q8HJmvkdGHLUGw1JglMoAQ5gNNqiRlZRXU4CAHBaRcKLukmURqA4ni7PgsG89qyCgdZqzo1gDIZFCMgMKwmCPeiTKlSNAgBQlh0Wg769FoKdgkr0Njn14ZdJAgBORU/NcKSEM3hMopDMgIeB3hrowD2GT5LB4hBQQ8HKmO1PUQUig0IMBDWGF1jyIJR4WAoqikZwfj1EcAvbaXZbRlRDUFPowoCGgmCJqiYeF8I3Mvj6h0kmKQsDLmVdrQwtBSaEXAwYCYVGjKBgOAvKQ1ZElugcoBmGLvHa31qmGoKLQjwEHgehCYZgtBwG54enQvIcqBgF1r11gnB7C4ClKoScDFgIRGwXcoAwE7LBQBzT3VwQCenxFfXsxEiBE20JfBjwEvEJc5MErzUBADgscOzObbF5uWk+iuk+2gyVRvzAyhBdkcrvOvE2BEGkLvRkIELZoWAhNJBoCclg44Asf7p3L8/qmPKr7no/prx8c8KtdT8BeO2/ymQRBpNCfgQBhMEOjWWAi0RCgaQRXSEdlqg/g7vHo57YYo2r4OzfSIAy+2CWhYtebgQSBcNQ6zw9HQ4CrAnUYn89FH/LyHNq9IGCvXeCQTITABzgXish5ThIEykS6H2bGBFjK2r8bNhVj8j0efSAMkdcudEilQdgLqy+cy18hEQJlInVLPAwEOCjkvhP7kBwp73s8+kDAhlERmBdJECQGf6EgQ1gRJtLtGDdPgAGo/jSBDDgXK+Z3HT0gIK+dZxi1SoEgM/gDBRkC4b/oTCQOApwo+Esz6Q3Bf2TpEA7oscGNFwkQYgwUQdSMIhBwPFBnIrG+I/j2ea6j1A1sYaxSMgTCsoD7+PQQ4gx6t4UYBGKJ5xoozEKA0S6eE/UpsTsKPR6pEGbYDYkC0NQQNAz6UohCoJZ42v/w6wkwAPI+uP5tU3MiBLxpkegutBB0DHr2SHEIxGjamkg8hBWM7u2Mwlj8GxAI0UiEgL12GXYlKiH8qDvSPhQUEFYVaSIlrDHfl5inZQIFmCQgDQJ2MThikVYHQc+gFwUFBMpE+kiLtrhHEE0Lp8WA9mEnQcBeO3JHqgpCCoM+FDQQqKCpY1LckT9je/4qS3q/DrgHCtFIgYC9dvTebA2ENAY9KKggEPa2m+CIJe8E6OgKI1HpjFPhhv1oLKoE4YtwPtKR+QoIPAOuTadS0EEg/BduD7scHwJc09VkmwAOWByJrIaQ4UAhznaMQ2AZFBm7ypNIQQkBL/GgH+So7Pjm9M/w5SVCNAAEb6ECQiAeGLPGGoXQ8AxW/PpCGgUtBLzEAxVCGIL+IJ6zBEzkCGogINhb845CoAyjVjEIQjs4Y2W3OyRR0EKIbPXK0E4dmGMnFgD2HI4IVIiGOiobacmGYUYgRBgIa20pFNQQwnxkhOCeNc1+TP7vjlin6g3B8THhMoQoA6ktSLsuQ+khECZSeCYYSPkZGyUQFk/uKekLQcpNIEJQMHhIj5QAgc4QdD8TWjPA3SGGx8NFyJwaR3tCEJ1qEoRXdg9IMMz/nUIKBMJE8s+EEOCMTdooAkZlOqthPwisYdRKgID9x8wVWQrM3AQpCYJoIuHcFnDGVrFPA+ROLQryX/0gsIZRKx4CimLrSoeoshQ0GdQGiRBEEwlDQDM2LtMDGpXp4aMXhEiKDx4C5/ClWhZLQRcLnQZBMpGIfEewhu5IhtiN4OjBZFDsA0EwjMgidhC4NJY12btxFOQ0BjclQhBMJALCEO0op4PsYGgAU4YeEGJJm3gIzIBAM+ApxD0Fg3QIvIlE5cBLzop6VvGFL9QqHULNXaoTB2FOQ+AYsBRU4dDJEFgTiYIAO3uV2NznyRBkw6gVBwHtdGnFM+AoiIlybkqHwJlIjmp4SSnjrxVle5BkCGK+pos4CGTQqcSAo9AnJacicR6T7JTeC5Ic7pWV7JML8cchaDKvAwhdV0imD440LJJCn+S0ZJ5feA5JgU6cwPStvIQM3zwEMkMHufsaCkK4za4JCDEGNIU+EFR7m1DKuox30PHB5LSkbDBBWf3JBDLDMi4PARQwHbqpDMpSk9W7+KMhKGi6IxAnrRpHqFX0MPDXU2KmZu4yl9v6dVz6flZss5UqBrB4HVmU4kPD4PTKodNUE4UQuSoRyEkNXkfnypiWs1xMTOz3baEhC6fyRan9Dk4Q23b3l6xABXUMTrWFHzRQ7aMf+iEotS4RyEkbEEDEL5vANTZRfN7+Vv43dUJD1vu+z0lVps8hsLhTqKu7hReGa7hGuwX1O2haWkfq8J4atorb1Z2mOy+lbM0zSJqxxT758NahR2/69OP8SafzNWqnbc8XHZfnrEfnb2stfCvba+z1Us7TG2jsbQjTL+ys9mV1dh64mJ8FaN6UrvU6VOVC9FTm6k98/cZe4Gl9DgcsyC9IfY6OH65yi++kz5SdNFz/1FX28woMw9flBWpe7tO+GvZdVi2HumwSzto+b9abSfpH3Vaz0Wa93oxjW+bmWikcLZN354pD2lPpqc/v3enFWIzSb/a8P714Bfpym8lkMplMJpPJZDKZTCaTyWQymUwmk8lkMplMJpPJZDKZTCaTyWT6v9c/JfW2yH0PjtoAAAAASUVORK5CYII=;" vertex="1" parent="GPzBYBWvHa93N3hvbvar-22">
          <mxGeometry x="7" y="52" width="107" height="36" as="geometry"/>
        </mxCell>
        <mxCell id="GPzBYBWvHa93N3hvbvar-29" style="edgeStyle=orthogonalEdgeStyle;rounded=0;comic=0;orthogonalLoop=1;jettySize=auto;html=1;shadow=0;fontSize=18;endArrow=none;endFill=0;strokeColor=#666666;" edge="1" parent="1" source="GPzBYBWvHa93N3hvbvar-30" target="GPzBYBWvHa93N3hvbvar-10">
          <mxGeometry relative="1" as="geometry">
            <Array as="points">
              <mxPoint x="206" y="580"/>
              <mxPoint x="206" y="580"/>
            </Array>
          </mxGeometry>
        </mxCell>
        <mxCell id="GPzBYBWvHa93N3hvbvar-30" value="&lt;p style=&quot;margin: 0px ; text-align: center ; margin-top: 4px ; font-family: &amp;#34;times&amp;#34; , serif ; color: #000000&quot;&gt;Postgres-magpie&lt;/p&gt;" style="html=1;verticalLabelPosition=bottom;align=center;labelBackgroundColor=none;verticalAlign=top;strokeWidth=2;strokeColor=#666666;shadow=0;dashed=0;shape=mxgraph.ios7.icons.data;fontFamily=Helvetica;fontSize=18;fontColor=#000000;fillColor=#ffffff;" vertex="1" parent="1">
          <mxGeometry x="185.5" y="652" width="40" height="60" as="geometry"/>
        </mxCell>
        <mxCell id="GPzBYBWvHa93N3hvbvar-31" value="&lt;p style=&quot;margin: 4px 0px 0px ; text-align: center ; font-size: 18px ; font-family: &amp;quot;times&amp;quot; , serif ; color: rgb(0 , 0 , 0)&quot;&gt;PostgreSQL&lt;/p&gt;" style="html=1;verticalLabelPosition=bottom;align=center;labelBackgroundColor=none;verticalAlign=top;strokeWidth=2;strokeColor=#666666;shadow=0;dashed=0;shape=mxgraph.ios7.icons.data;fontFamily=Helvetica;fontSize=18;fontColor=#000000;fillColor=#ffffff;" vertex="1" parent="1">
          <mxGeometry x="1054" y="652" width="40" height="60" as="geometry"/>
        </mxCell>
        <mxCell id="GPzBYBWvHa93N3hvbvar-32" value="THREDDS" style="html=1;verticalLabelPosition=bottom;align=center;labelBackgroundColor=none;verticalAlign=top;strokeWidth=2;strokeColor=#666666;shadow=0;dashed=0;shape=mxgraph.ios7.icons.data;fontFamily=Helvetica;fontSize=18;fontColor=#000000;fillColor=#ffffff;" vertex="1" parent="1">
          <mxGeometry x="555" y="652.0000000000001" width="40" height="60" as="geometry"/>
        </mxCell>
        <mxCell id="GPzBYBWvHa93N3hvbvar-33" value="GeoServer" style="html=1;verticalLabelPosition=bottom;align=center;labelBackgroundColor=none;verticalAlign=top;strokeWidth=2;strokeColor=#666666;shadow=0;dashed=0;shape=mxgraph.ios7.icons.data;fontFamily=Helvetica;fontSize=18;fontColor=#000000;fillColor=#ffffff;aspect=fixed;" vertex="1" parent="1">
          <mxGeometry x="661" y="652.0000000000002" width="40" height="60" as="geometry"/>
        </mxCell>
        <mxCell id="GPzBYBWvHa93N3hvbvar-34" value="Solr" style="html=1;verticalLabelPosition=bottom;align=center;labelBackgroundColor=none;verticalAlign=top;strokeWidth=2;strokeColor=#666666;shadow=0;dashed=0;shape=mxgraph.ios7.icons.data;fontFamily=Helvetica;fontSize=18;fontColor=#000000;fillColor=#ffffff;" vertex="1" parent="1">
          <mxGeometry x="449" y="652" width="40" height="60" as="geometry"/>
        </mxCell>
        <mxCell id="GPzBYBWvHa93N3hvbvar-35" value="GeoMet&lt;br style=&quot;font-size: 18px;&quot;&gt;MapServer" style="html=1;verticalLabelPosition=bottom;align=center;labelBackgroundColor=none;verticalAlign=top;strokeWidth=2;strokeColor=#666666;shadow=0;dashed=0;shape=mxgraph.ios7.icons.data;fontFamily=Helvetica;fontSize=18;fontColor=#000000;fillColor=#ffffff;" vertex="1" parent="1">
          <mxGeometry x="864" y="652" width="40" height="60" as="geometry"/>
        </mxCell>
        <mxCell id="GPzBYBWvHa93N3hvbvar-36" value="CaSPAr" style="html=1;verticalLabelPosition=bottom;align=center;labelBackgroundColor=none;verticalAlign=top;strokeWidth=2;strokeColor=#D72B32;shadow=0;dashed=0;shape=mxgraph.ios7.icons.data;fontFamily=Helvetica;fontSize=18;fontColor=#000000;fillColor=#ffffff;" vertex="1" parent="1">
          <mxGeometry x="959" y="652.0000000000001" width="40" height="60" as="geometry"/>
        </mxCell>
        <mxCell id="GPzBYBWvHa93N3hvbvar-37" value="&lt;p style=&quot;margin: 4px 0px 0px ; text-align: center ; font-size: 18px ; font-family: &amp;quot;times&amp;quot; , serif ; color: rgb(0 , 0 , 0)&quot;&gt;MongoDB&lt;/p&gt;" style="html=1;verticalLabelPosition=bottom;align=center;labelBackgroundColor=none;verticalAlign=top;strokeWidth=2;strokeColor=#666666;shadow=0;dashed=0;shape=mxgraph.ios7.icons.data;fontFamily=Helvetica;fontSize=18;fontColor=#000000;fillColor=#ffffff;" vertex="1" parent="1">
          <mxGeometry x="343" y="652.0000000000002" width="40" height="60" as="geometry"/>
        </mxCell>
        <mxCell id="GPzBYBWvHa93N3hvbvar-38" style="rounded=1;html=1;jettySize=auto;orthogonalLoop=1;endArrow=block;dashed=1;endFill=1;" edge="1" parent="1" source="GPzBYBWvHa93N3hvbvar-37" target="GPzBYBWvHa93N3hvbvar-34">
          <mxGeometry relative="1" as="geometry">
            <mxPoint x="1043.5000000000005" y="739" as="targetPoint"/>
          </mxGeometry>
        </mxCell>
        <mxCell id="GPzBYBWvHa93N3hvbvar-39" value="&lt;p style=&quot;margin: 4px 0px 0px ; text-align: center ; font-size: 18px ; font-family: &amp;quot;times&amp;quot; , serif ; color: rgb(0 , 0 , 0)&quot;&gt;Postgis&lt;/p&gt;" style="html=1;verticalLabelPosition=bottom;align=center;labelBackgroundColor=none;verticalAlign=top;strokeWidth=2;strokeColor=#666666;shadow=0;dashed=0;shape=mxgraph.ios7.icons.data;fontFamily=Helvetica;fontSize=18;fontColor=#000000;fillColor=#ffffff;" vertex="1" parent="1">
          <mxGeometry x="766" y="652.0000000000002" width="40" height="60" as="geometry"/>
        </mxCell>
        <mxCell id="GPzBYBWvHa93N3hvbvar-40" style="rounded=1;html=1;jettySize=auto;orthogonalLoop=1;endArrow=block;dashed=0;endFill=1;" edge="1" parent="1" source="GPzBYBWvHa93N3hvbvar-39" target="GPzBYBWvHa93N3hvbvar-33">
          <mxGeometry relative="1" as="geometry"/>
        </mxCell>
        <mxCell id="GPzBYBWvHa93N3hvbvar-41" style="edgeStyle=orthogonalEdgeStyle;rounded=1;comic=0;orthogonalLoop=1;jettySize=auto;html=1;shadow=0;endArrow=none;endFill=0;strokeColor=#666666;fontSize=18;fontColor=#000000;" edge="1" parent="1" source="GPzBYBWvHa93N3hvbvar-42" target="GPzBYBWvHa93N3hvbvar-2">
          <mxGeometry relative="1" as="geometry"/>
        </mxCell>
        <mxCell id="GPzBYBWvHa93N3hvbvar-42" value="Birdy&lt;br&gt;client" style="shape=component;align=center;spacingLeft=36;rounded=1;fontSize=18;html=1;verticalAlign=top;strokeColor=#666666;strokeWidth=2;" vertex="1" parent="1">
          <mxGeometry x="702" y="265" width="120" height="52" as="geometry"/>
        </mxCell>
        <mxCell id="GPzBYBWvHa93N3hvbvar-43" value="&lt;font color=&quot;#d72b32&quot; style=&quot;font-size: 16px&quot;&gt;Requires software modifications planned in Call 3&lt;/font&gt;" style="text;html=1;resizable=0;autosize=1;align=center;verticalAlign=middle;points=[];fillColor=none;strokeColor=none;rounded=0;fontSize=18;" vertex="1" parent="1">
          <mxGeometry x="834" y="780" width="370" height="30" as="geometry"/>
        </mxCell>
        <mxCell id="GPzBYBWvHa93N3hvbvar-44" style="edgeStyle=orthogonalEdgeStyle;rounded=0;comic=0;orthogonalLoop=1;jettySize=auto;html=1;entryX=0.791;entryY=0.584;entryDx=0;entryDy=0;entryPerimeter=0;shadow=0;endArrow=none;endFill=0;fontSize=18;" edge="1" parent="1" source="GPzBYBWvHa93N3hvbvar-45" target="GPzBYBWvHa93N3hvbvar-11">
          <mxGeometry relative="1" as="geometry"/>
        </mxCell>
        <mxCell id="GPzBYBWvHa93N3hvbvar-45" value="RAVEN&lt;br style=&quot;font-size: 16px;&quot;&gt;Model" style="shape=component;align=center;spacingLeft=36;rounded=1;fontSize=16;html=1;verticalAlign=top;strokeColor=#D72B32;strokeWidth=2;" vertex="1" parent="1">
          <mxGeometry x="1086.5" y="483" width="100" height="50" as="geometry"/>
        </mxCell>
        <mxCell id="GPzBYBWvHa93N3hvbvar-46" value="" style="shape=image;verticalLabelPosition=bottom;labelBackgroundColor=#ffffff;verticalAlign=top;aspect=fixed;imageAspect=0;image=data:image/png,iVBORw0KGgoAAAANSUhEUgAAARgAAAEYCAYAAACHjumMAAAABmJLR0QA/wD/AP+gvaeTAAAACXBIWXMAAAsTAAALEwEAmpwYAAAAB3RJTUUH4wsaFg87OkhvTwAAIABJREFUeNrtnXmYHUW5/z/VZyYzSSb7vicQQhaWAIGwJOybAREUxKu4XNGf3gte8V7FHRXFqxdxV67ixnVBRUVEENkJSwATCEtCErKQfd9mMklm5pxTvz+qx0zCnNNV1dXbTL/Pc55ZTp/uPt1Vn/6+b731lpBSkltuueUWhXn5Jcgtt9xywOSWW245YHLLLbfccsDklltuOWByyy23HDC55ZZbbjlgcssttxwwueWWWw6Y3HLLLbfKVpNfgvhNCCESPoVaYBQwFBjh/+wP9AP6An2Aev9V53+m4P9s6/BqBpr81y5gG7AD2AJsAjYDe9N07WWeuh5vW8+vd5cESw9gNHAYcAQw0gfJcB8mA2JUr9t84KwHNgLr/N/XAq/7kMpBkwMmt5RCxQPGAScBxwLTgMkZUqevAfOAF4CFwJocNjlgcksOLIOBo4GjfJic7Ls0XcV2AIuBRf7rcWBPDpocMLlFA5ZxwBnA8b5CGdvNLmkZWAE8D8z3X5GqnBw0OWC6OlSGApcAc4BjAJFf5YPsdeBe4A85bHLA5HAJtknAm4AZwCDgyPzK6vV/4EVgO/AM8IgPnxwyOWC6PVQEcBbwKeDw/Ko6s5eAO4C7UEPpOWxywHQbsNT4KuUi4DxgSH5VI7MdwIM+bF7OIZMDpiuDpQC8BfgoKj8lt3jtReB/feA4bfA5bHLAJAmXgcDVwOWo4eXckrX1vut0ByrTOIdMDpjMgaUWOB24AjibAyn2uaXHisBc4Pe+qslBkwMmE4plJvAVVIp+btmwp4GvoZL6csjkgEkdXArAhcB7UAHczFq9B317QL866FVA1hegdw30KIAnDiTjSKAsobUE+0qwtwj7SojdrdDYqv6XMSv7oLkdeBQHcZocNDlgwoLFA/4V+Ezav58n4LA+MKkfcnI/5MS+yIn9YEIDckg9MsrZUk1tiJVNsGw3ov21dDdi+W5oS2fT2wP8EPgF0JKDJgdM3HCpRcVXPkgK0/aH94Qp/ZGT+iKnD0IeNRB5eF/oXUOqbnRrGbF6D7y0A/HSDsTSXYjFuxGrm1JzihuAn6LiNKFKTnRnyHRbwAghbMoVTPL99WPS8j2G1MM5o5Czh1GeNRw5rgGZ5XkF21sQT2xCPLYB8dgmvFXJA2cB8GlgpQM1U84Bk4OlMxsLfAS4lITnBfXtAScNQZ4yFDlzCPK04UgPuuRNlBJe2IE3bzPima2IeZsRW/cncyqoeU/fBLbmoMkBU8kVMoVDHfBJ4CoSKi9aK2DWcOTsEcizRii3p6sCRaeXL92FmLsJ77GNiEc2IGIOKO9F5dD8GDX/Kazn1OXvY7cAjKVqmQ58m4Qyb4f1hCsmUP7QZMpjG8gj8Z3YnjbED5fg/Xo53uvxulI7gC8C9+VqppsDxgIuPYF/QwVxa+M81xG94M1jKM8ZizxtGLKHl4NFx4ogXtgK963Fu3ct3tLdsR36SdT0j1BH7MqQ6dKAsYDLMcD3UTVsY7NjBiA/OZ3yRaMpi7zyS2h7ZgveTQvx5m6KJV7WCHwcVSoih0x3AIxFvOVY4D9Q5Sfr4jjH6QOR7zgcecpQyscOAkGuVlzb8kbEvC14d65EPLEZUY72Cj8O/Ah4LhxnulaH7HKAsVAtVwOfIKYi2bOHIT89nfJpwyjnCIjPFu/C+/qLeH9ZjYj4wv8Ulcpg3bG6kprpUoAxhEsP4D+BD0R9Xh4wZyzyY0dTnjEoB0uS9loj4juLKPxhZaQjUIuAL6BWSejWkOkygDGEy1TgJlR1/sisIOCDkylfN43yiF65C5Qm292GuH0Z3lcX4kUEmhLwG+AWLFdF6AqQ6RKAMYTLW4D/IeIyCueNQn5jJqXx+RBzqm17C+LzCyj8enlkAeG/o0aait0RMpkHjAFc+qKi/e8gwqS5c0Yhr5tGefawfEQoS7ZoJ+Jbr1D4wypEBD1iPnA9lisgZBkymQaMAVz6Az+P0iXq2wO+PoPSOyfmMZYs26Mb8a59msI69wvatqDyq+Z2J8hkFjAGcDkF+AYwLIrzqC/ANVMpX3cU5b61uTvUFaylhLhtKd4tL+PtaHG66zbgVlR94NbuAJnMAcYw3nIWcFtU53LVROQPTrXzrXPLhn3rFQpfeh7PcS/ZDLwXWN7V1UymAGMAl/ZiUP9JBIlz0wcib5xB+fThlPMwS9e3V3bi3TAf7+GNTgPB+1HFyv7SlSGTGcAYwKXed4kudH0OvQpw/bGUPzKVck0+T6hbmZRwx0oKX1iAt8VtyYgPAQ93VchkAjA+XHSeHv1RdVWnuj6HE4bAL0+nOKp3DpbubHuKiKvnUrh/nTM1U0KNMNkqmVRXQE49YAzgMhwVPJvm8vi9a+G6aUq19KzJ4ZKbmr396+V4X34ez2EBrO8AP8B8ioFMs5JJNWD8SYs6rtFY4Hc4XtzME3D3eZROH54PPef2RluzB3HqPdQ0uVsB+3fA500hk2YV46X8Huqc3yhUBXincDlhMPKpiynmcMmt4lOtAfnsJRTPH+1M2V4JfB3DibdCiIKD5Y27l4IRQuim8v8aOMnlsc8egfzt2ZTqCt3TJSqDaC1BS+mNj9IagexRQOTFsA6+Xh95msKv3E03mItKyjPKlUmjkkkdYAzcolHAzcCJro49vg985QRK549CZg0uUqoJfBv3wrpm2LwXNu2HjfsQ2/bBzhYoygOysIQCSFMbNBeRe4uIljIUS9CqNFvV7y8UbKivgZ4F6FWjXr1roO6QR0PPGhhaD4PqYVAdDK5XJUGH9YTRDTCwR/ZhVQYxdyPiCwvwFu5wApqXgWuAjaankqaaMqkCjAFcxqFS/8e4OvblE5A3z6SU5sbeUoQ1exHLdsHqZljXjHhlB6xphg3N0KLnzKXh+x3UAfv1gDG9YXRvBZwxvZCH9YGxDTBtANRmSC3tLyFuWoj3g8V4pfBnvRZ4E4YLwKVJyaQNMDpu0SjgLmCAq+N+djrl648hdfJyyz54eD3i0U2IF7fDa41g2GizpAw6ferXF2DKADh+oIqLHT8YJveLdjVKF/a7lRQ+9KSTDOCnUfWhM+kupQYwmnAZiAroTnHVon88m9IV45Od+VyUsGwX4uWd8NJOxMvbYfEusBwCtb2hMi5ohP1crwJMHgDHD4aTBiOPGQhH9EPWpAw6T2zGe9/jFLaFH8q+F/gv37PNFGRSARhNuDSglvE8wtVxvzqD8jVTk1Eue4vwxCbEb1chHt8A2+0n1cmEIRIHfAK37VWA2SPgnJHIM4bD5P7p+K73rMF792MUHJzMPT5kMjWEnThgNBPpCqgFyc921bK/eDzl646KDy7bWxBzN8I/tiGe3gwv7TB2d2xhkQU3STjejjENcOIQOGs4ctZwmNCQnFt15yq8a5+isD98wsMvUJUYc8A4Vi8f9ukd2gpCuUWXj48+v2V/CXHHSsRvl8NzW3FxQBkRTGQK4GH6GaP9TugDF42By8YjTxgUP2zmb8e79AEKDpLyvoYqLJ4JyCQKGE24XIQajg69CFp9AX40i9Kl46KBi5SwaBfiofWIRzci5m3+58iOTBFYUjeKFHJbY1SMbYDTh8OZI5BvHgv1MaUkzNuCd9VjTmIy16MGOlIPmcQAowmXM4CfuDjeOaOQvzyDUm/H84me3Yr421rEfWsRnawoKCOCiowJJDIiaESlXKzOoaEWzhgO542GN49FDq6LDjhFENfNo/DL10Jfr/8GfpZ2yCQCGE24DEcFtvqHPd6pQ5F/OpeSq8mKLSXEn9cgbluC+MfW2FwV11BJ4skiHG8vXMOuViDOGw1XT0aeMzya0cWyhGvmUfObcJm/ZdSaXk+mGTKxA0YzmW4AasmHiS6Uy6/PpNQzpAwuSnh2C+KeNYjfr0RUGfWJGy5ZDva6CO46VzTtnxvdC951BPKKCcgj+rq9fmUJ//EMNSGVzF7gEmB1Dhgz9XKLf+FCx1xWXkkxjFvUWkb8YRXi26906gJFCZYkXSQZAzTidJFCB5pPGwY3TKd88jB3oClKmHwntSFLPtzlx2RSqWJiBYwPl6Cb/R7gc2GPVRDws9PtA7ob9yJ+vwrx41cR6/ZG1iGlQ+jYnEecT5e43KNK7zlJ+pvaH644DPmOw5AjHSym9+xWvMsfotAYbnTpq6ghbBPIFLsUYPx8lyDX6Hjgty5a8k9mU7p8gjlcdrcivvMK4vuL1eS/iDqpzF2kxFwkJ8PmArj8MPjmzPCrSczfjnfx/RRCrjD5XmCekZcWQ6GqOAETVOOiF/BH4PCwx7rxBMofnWaWRLdoJ+InS1TeisGNdqUY0ugmmX5exAAbV+6Rs9ycngV42wTktVORU0JkD//xdbwPzKUQosevA64AtqdJxcQCGA24tMu8y8O20JsM0v+lhD+sxvvRqxVHg6KGS+4iuXeRogSNqPbGycPg6knIS8chbWaA/20t3vvmUthvr2SWo1YubUwLZCIHjGbc5dOoZUZC2W2zKb1dwy2SEn6zAu/T8xG7W1MDlqhcpLRPFRAxwyZS0LTbxWPhv2dQHmu4Nvm8LXhz7g+lZOYD7zK475G6SnEAJki9nI5aHC2UxP7sdMqfOJpStbyFsoQ7X8f7zsuIRbsidxlcwCVusMgE4OEKNqmDTEHAtVORHz8GaRKn+ePreB96gkKb/d34HGpicOIqJlLAaKqXXxGy5OWVE5A/nl19hcVntyKum4e3eJf1YWQKwCIjPL80ukoi5aDR2nZoPXzpBOQ7DqPsae79Ky9QuPll65rZTcAFwDZ9xkQzdB0ZYDRHjc5CrdVrXXx8Qh945CKKlSrRLdmFuPllxF2vI0LMXo4LLmkN9qbZRYoCKM4hAzB9EPzX0cg5Y5E1AfekpYS46AFqLGKD7fYCKuVDtxBIJK5SlIAJco0GAg+h6rxY26/PonzxmM6Duk9tRlz6IF5ruMsWBi5ZcpHSUHBKpAg0IqrvefJQuPU0yof1qX7NVzQhjr/LbIWBQ+xmDNZmj8JV8iKCi0627sfCwuXsEcjzRr4xqLtmD+Kapym8+YEuCRep8Z4OfKTB9mGun7Q8L5vv7lJRRuZyPrMFTvoz3if+QaFYrgynw/sgPzAp1Mz/D6NqKZl4HelXMBrq5Xzge4QI7M4YAveeT7HjVPvdrYhbXsG77VXE3lJsOSDSIWxMt+0OLlLccZjYlAyozOAbjkNeOLrziZVSwlWPU/PXNdZ95XfADbptwLWKcQ4YHy7VLkY/1GLffWyPURDwxMUUpw04cNEWbke8fy6FFU1OOlUScEkyJyYtBaeSyn1x6TJZgeAtY5E/nIVs6GTe3NZ9iBl3U7Or1foevAd4Vt9TcgcZp4DxJVaQJPsOcKHtMXrVwu/OOrCc68omxGfmU/j7OjUMnSBcXEvxKEeSsjCKlHRgV0R07hVtcB1cNBb5uenIoT0PvkdLdiEufZCajfusrvka4O3ATs3tS64Cvq4BE1R17njgjjDH+Nx0yp/wlxhZswdx0QMU1uxx1nlcwcX1SFISiXYyQnhE7SZFCRoR8bWgTy38eBZyzpiD4y+/W4H3/57Sj6kcYveh4p66MsbJitueQ7jofPGPhDnGjCFw7VQlVH62DG/m3V0KLtLCdQoCj258xlXQ13ZfYb6L1NxeWt4r6aidaFtTG7zrUbwbnj8YJlccjnzreOv9zgFOddyf41MwGurlHNTKAHauUQHmX0pxYD3825N4d61+wxMijXDJc2LCPeHjirmkUskA4u2HIb99MuX2mkb7S4gT/kzNumar/b2EmhAZm4rxHMEliHZ9UJFsa/vUdMp72uCCv1HoBC6kEC44hkuY4VtbZSINXrZqx+beSNzCW+Lm4eHcfr8Scd59FOZvU22+voD8ygzroetjUHWuY1MxngO4CFRgV1R5XY2qsWtlxw1WC63P+iuFF3ck8lS2aXzSUrKbAkeG6MA4hIbtfsLmvsgQ/4tCobpsmxJg0S449z4Kn19AobWMuGwcpYvHWO/3k6gVOoTGKzRgQrtI/rC0F6BeHiVEUt3ZI5CPbIzkJsqI4BK2Idu4TpBsdm9aK9ZF4Q7ZuEtOSolOHwh3nkOpsQ1Oupsay+kvN6O/tlIxzIiSCxcpaB8fDwOXgoBuCBeXAV8dJRGlgrF1kVwEdm2hHYV75ERlL9wB599Poa2sVie13M2/A0M1t62JEg5hfbQG4MowxyhJZzOIk4aLrdsUtK2p+1QNAtLhS+d4OjEiafj9w7intn+HgZtxe13VBCf/hcL2FjhpiNU+e/uukomXkoiCCQLMlXQNi0LJhHkq2wQ/bTo3BqDAYN86QMHwe+vcM5nAfY3sofjtVxA7Wqzb9AXApKg5YR2D8dVLTcBJPUyI4K5Fo4pDvcTRSOOa0OdUvhvGHsKWTogzmc7k7yjjMa4XmnsG/UqSbTaxmDAKJki9XJHDJRYlo+simKgIW3fJJAbkYmQtqdGipHKRXD8ITgaOjDIWYwUYf85RNWr2B/4rIrjQReBi2xlMwRLkssSZydvZ/6WD+FTS7lHcw9cu93Wmfrc3L+dgq2CC1MslhJgtHcHFTLtb5OoJb9J5owzw2hyz2t8ur1WaIJOGB++VBi5WIS7AeAF+4ttS5hpFeRPjisHogMW1mwThsnhNjlvt7zBqL23uUdpUzAj0lwvyTFWMMWA0hqyOQj86nRZY2KqVOJQMGh0xKjfJZBpFWBVjA5oww9RxQCVuFWN7vP8wiLFECxj/RKqlF38gY+rFpIGE2dZWyejAxLTTBqkXF26Rroox+dtlzENGdK/TvPhdJRuMqhejM33AKNhrNEztq5dqBxiKGpoupAQwYdRL0jEZ03N0ORxuc81dVKPTHf7V/Yzrv129Z3P9bK+pri1HxU51rKhb9c5UwQSB4/0pggsh4OJS5bj6u9IT3dblCEq6czFVQFfJ2Ci2uK6/C3c5CwHficAUAy/GrYukMTQ9GPiXjMVeXPvVUcJFp6O5GE1y6SK5GD3SAauMEDoyJsikwVX6FwMeFJwCRkOZnIuaBt5dXaOo5rYEdaiwo0mmcRSbbXWOj+X3lDHdDxcPoLgUie1+LjTow1qAqXEImAvJjuk+WYrAPxxI6yHAhBAxFpP3db5fHDAXFbYRh/yv0t8LgTaNGEfQVIATOrRz2cl56f5t8l61ayUiaMuu9tmASjH5rStxohXk9eVQjyqbDEet0igcdPiwjd6lemkCznNw4y4GrjeAgQ1kXILGFjZha7h0/PudwHYH1/4vqKVydI976N82gWeT90yvY5jrq2OvAxdpbtsatKa1rosUpHSuxD2Zo/JLXQ59hv0+ruBikzsSZmZ1te8XZu5RXMHQKPJc0ry4nYmNR5XW1LFAd0oXMF6ArHp/Cl2fMMCKEy468RadGIROoNRkXpCLaQKm2xEScNWue1TBWhcpBGmLxegGewPnJ9Vo7CGIUqcTrupVUtMCknz6SM2OENZlCusm6V4bEfC5zuIxokIsw1ba28QrqsUvbN8jZJwmDbGY2X6fLlreeyMFEwSPczKuXuLOX6gGC1NVE6RwTNykKKYK6Byv0vm6vN5RjxLatJk0D1sPAN6iuW3BhYtUzYZGAAWZEIySUE3SQK1IAwjpQieKWdW6IEsqDhP13KKw8IlCGZvaWx2ET6q/2SG5rtKrN/rZf1mIvUQJGxdw0dkX2E8QdFUY3AQ2BCi0qOIwLhLkpEP4pM2mA6MInpvk+UsXWSmYoNyXM4CeMcMiqidZ3KUgwsJFV8HgwE0KAx5d96gaAKO43rbKRcbYtpIG0Glh3aSwgJmTYpCkSb2EfdrqxmBsOrCrWdUmKkbnPJNuGzIjEIjSTTolLGCCArjVANQLFW3OktkMKcapXmzUTRCUdL+jjKBhi07eE1X+FkQXWBed/AS7bN2wo0gm+4p69KmazQwbh/GqxF+C1MtphFyUKSMuVVJwMY0lmCgYDGIyLiY7EqBioryXptc57YHcOK0fKs4aZKISL7wA2VMtuDM7Aii4nhYgQ/yetHKplpQGZglrpglxYVyksMl1UbhKplB3OQSdRLtzqVDfRIh1rIMAU82Op2tb0rAxic+A/UzrahAiJFhMYy9JwMU0HpOka52Ena25XY0pYKq91x8Yl9F4S1I30XYSpmkynk5HsKnbW+2cw9TbTdrNSGuRs7SomFOAek03SWhBRCP+Mg33M6fjqmUqU9C4dJ+mLoK+LpLwwsxBIgXuka2KkYZtKAww05rZWwscrbltQVelBAHmaLqHJRF0DAMX2+xeV5AJgkmS7oau2kujm5K0HaW5naflNxGcHzMto+5Rko1bOoROGFWj28lMr4PuEHOlYelDf4+zrVQawtb5XNjfK+0zTXa0a8AUAr7olAiBkJSyiBN8YVPiZUyQwQIa1UBS6X9Rd65KENHp6FGfYxzfO6zphkSCXSR/aRIRQLNhKXI5XKqaJCETh+tk+irHuB24KXrlCsZh2nNULpd03A90bSSqEFXgg+bQ+K1n4R4dl1H3KOrPhrmxLiFjm2PjqmiUzXZxXXtp8J7pA0mGaFNZSNQ7QnO70IA5ltyicJGiUjAmSXt08jkC9gV6iXSm7lqc9yFL7ndS5zfFBjA1FoCZnsELnKZRAps4jOmwtomaCXp6V/ufbuzFNG4jIrrelfYfJhYTJpAbR1DX5Pu6UDBeGAUzALUEh0swyIjg40qypsFFsrmmtsrHJB5i4wKZuHdxP6iirkeTdpVSzXQTa0VFBeNn4gkHB+lqLk0SEt1VHMbFiJONmQ5bRzlMraNekh4iTusQdbuNRy1d1BZ4Q4UotC9nUlPNf0ohYLpy+rbrPJkysAPYDOwG9gB7gRa/kZT97WpRqeC9gL7AINQoYZ3B9eisaHelIeqgIeu4Jv5VgspmYB2wzb9ue1HFr2tQK2gMAkb4Ha4h49AwtWmoBfF03CQrwByWcRUiU3Q+JuolCCo7gdeAVcAaYL3fUVosz9FDrTU+HhVzmwoMjEDFxAWZalDZBjwNLABe9aGs+93GoKo6zuJA8mkcsZekwDXFADDYAGZCihVJmlO/pYV6qfZeCZgPPAo8G8F3KQNb/NdzHdrK6ailRRs0G3yl/+uAJ2q4PA/8rw9l232uAX7pv+r9a/Ne9GqoBIHHJURc7WsmcIfGdoVKgAkaQRqZx1kig6EObF4CnkCtl70z5nMuAo/4QDsLuADoY+EegV5luahsK/A9/3u4tP3Ar4EHfchcTDoKsrmEjq4HIyoBJuiAwzPUidPoTumm5R/6cwHwC/+JmbQ1A38FngL+DZgU4P7ouj5RBXk7HnMp8AVgV4TXZwtwM/A48FU/ttVV4jPjfHVS0nWR/vmLxhIlDaggYFaVRlpiMabHvgv4ckrg0tF2Al/r4KLpLGVbTalFfX8eAP4rYrh0tOeA96ACxll70FazEehVuHuDSxTkHo3KXZ5Yz7n9f4NS/J3KwI/9eNChUAnK8oXg0g6u7DHg2+gtherSNgCfB1ojaLNJtQktDrTPSfIM3KPRGYSKzAhEqj3Zj0q5lC4Bt6LiQmGS6aJSMC8At3BgWD5uWwp8ScOtiLrNutqvrhfjmSqYrhjgTcqFMonFDMD96F0USuYnwGrM5j0Frfbowv43AeVyqD0KfAqNJLUMqPFxtoAJekoOddCZsubKxJ0yXun9ozJwrVqB/8Ouyl6Quglju1NyfZ4CfpMBVR1kDZrbic4AU+2VZQWTRsiZLIFxYkau8yrgdvRmVselYNJktwMPZ/y7DkUvyGvsIg3qgq5QVmIxU9Cr7J4GmwusqOIO6SiYrmr7UUPXuzL8HXSLzXlwcB5MkIvUj9ySsgJwkt95da0vKuI/xP+9zt9P0W/oO4FNwNoIYhSPopKyOsttqZRQJ7qJitnnu0r/HvAQMq0LHJfV2QImyPp3E6USZxTfpB7uqQGA6Q0cg1oQbwoqOKxT9X+Hv9+HUBP7XNgC4F2+6grK9E1Dp4nb/gS8j4OT8LLyvXuZbGyiYBoyAIuukjHc2f+m+x12f4f/1aJS9o9DZdTWEFyK8tC/BwCXoCbt/Rl40sF1bPX3cy762blxryhQB5yMmqg4CjXtoeS7L2uBV4B5QGMEx25GzV/6UAbhqCs0hAlgalC1ILqqyZTsv9p2PVAF1/8BjAXOB07znyjVFp+H4JwT6Xewd6Omg9zpyE06p4LrE+QiRWk9gHcAl/nXThxy/NH+dZ6DGn7/nQ+DFsfncQdwpQ/4LNlADGa8HwqYSje5ntySAlnHz5zku0DnVlAkJseuBKRzUOUL1of8rptREwuHdAKRIBcpSrh8AThB0zUp+K7eLOB61DwjV9biq7w3Z6wNt48QBSYuCiE83TyYHjkbUmFnA+dpgEQavNfZ/05zdL6vp0hVDgC+4QPaNB9pHGoCo2u18VRG22Gt7oae5nYFxyeYVKwkS0lOpjOvTY4TBBpXiX0rQ8LPldUA/wNMDHGfxgHfxW0Jhicz1mbbraeu2vEMblBu2XK9dDpspc+5CuhvDTiXuDrPBwhOFNU5lzHAhx2eV5HgiZCZVjA5OLKhZsJ+rhpsGlH1evf7jd1lo99B8PBr1KNHIxzHOS4H7kaNNLlSeZMz1l61PRqTYercsgmh7aiaJBtRQcrtqCS7najh0lKE59yYgut2ZgT7vBg1g9yFrcggYGo1eSFq4J/LlVSzct6/M2PbgJdRZQKWoUZzkrLmAGDG8VCLYqLoBag6OC7gvCKDbUw3tKIUjJRSBjAmB0zyVi33oIwakfi7L7nTEhgsBnyfVHUGAxuAypVZ6GBfGzPYFrWnlui6SK15/04MHtWsBfg9KtW/McPfPYs20xFgtmbwu5d075tukLctZ0Dq7DlUIfBtGQCI0NgmayA7xtF+sjizWlfBSF3AtPrUKji82TKhxi5T1PFMFyWTqHoi7a5Q1pWKSJGSsVkMvobwM9F3kz3bb+MiBV3kRrI3b6IrWRmV6DU3w9+WWqEdAAAgAElEQVQhSM2IGM/Ddtv2v+tQ87fCrk+1L4MuZKvmeUmTAFhT3scTkenCb8SfyyhcRIVOKgKukauOVRPhferjKJ6RxYedlnUETJDrsDPnQyIA2uXDZUkX/G6iCoBcWa3Feelad5yjt083zCClLJsAZnuuLJzt3yT28DPU+jpd4doK4pf8tRG2AxfxvELG7qcRB0xiMDsSbqTS4XZR7yPsftu3fY0Di89HaR6qNkpPv0MWUNXttjv87kGgiQo+tRE+SFyMrvaI6SHnypo0z7V8KGCCGv82smVpGjHSOcdDz7cNVSJgfwTHHYgqW3CY/xrcSTuYD/woAgUTBBXXoKm1OC/dDr/Hwfn1TkBRhzHdwlvyUMAEBW425SGSWKFzP24LHA0GZqOKLY3i4KHvjqUfOi5W7/I7iQTUSztgwowaQeeB5zJukhv7hryucZsuVDtVMNVOeHUX68BpOv6h/2tBVZ53YYOA64DxvLHwd1wJbqLK71HnwtRG1Clfw81qDMMy1n/W2bpIQQpmY0Y7dLVz0El2SwI0f8dNhf+BwH9zoG7voeqk0u+uvycBMZgoA8FtVVyiMBnGix2d3/CE+4Wp6bbLMhw8TB0EmJ24zYVJs58pYtxvZ/+7x8GxPOCjvo8vOulU1dSEiOB7V1IsImI3abvmPTE99hOOzm8c2TLdEc1SZ4AJWg5yS8YuhkgBVExBsxE3JRaOQS1lEvTkrgYe199VJKBg9lvc4yC3rRF4wdH5HRZTm3S1r63oLR1bMlUwkGxtkTANIq2w6+x/qxwdb2aAgqjWOHTbg6l6IQEFswX9eVC60xiecnh9jrBsv0m1c93AthVgNqSsg2bRJQtq7K6u8YSAjh30c08E31lXwbi0pyzbQbXt7nd4fllbMVVrsEdKeXAMxv9HUDB2fcY7d5rOpxJoXCU09qvimlSLybS/1kUUfwkaVXJ9f+b7qlAY3INq9izwoqNzG5ExuDQTPDnzILHidSJrqknn9XRti9rV0mnQrpSDrAISAjq9RJXdjEq9EKOCKaISFkshwQJqkOMm3I2KzsjYQ/ZVDfdadLzWXic3o5otzyAo0qBmBPrB1qKjY25BLxjX2esx3E1uNT12R8i5slXAV+i8MqNOYp3w4fJJ3NZveRPBs8rTpNiXmsRfOgNM0NyKTbidVR3HRRQJggWLBu1qhu7zVVyPaipmC2o95ii+s+5QucB9Heh5wDUcCKLrAr8dUB8FFjk8n2mo6RppDiUcaovCAqao8XRZnOAXFDFAKOmiR30c7f+xDk9sHcXQfv9/oOln2ygYExcpikLza4GPcSCHRcdVugu4GvfV/69OyYPZxF7RVKH/VOEHzaaWUrYFr2DCy7hbu7i7WcdM2s6yaCXuUscbgZ+jViKUFY7d8eca1Fo/a2JUL9UUVlTZ3/t8d+kI4AzgZFSwtd6H2i5UgPsV1NKuSyM4l0nAqRlru3vQn11f6hQwHZ5i1aqALcxAB3bVSEVE51btPZeZnQ+jRpPexoFJf4fCpRmVOXwv0RR3103qEzEoGDoAfZn/uq1DXygRz7SWf0mRKtE17eVwpJTFaoApUb1Iz1K/IdY66mBxzFWqBJ4kzunQTn7oe66KSbfbn4BHgek+vPr7x93pq5UFRF8OVVj8LMbcgeI63mTgPAOXPQpXXFgCRudzBwXSaywudCsq6DUpBSolC/s1BU4DcBzwD4fH2OlDJqn7ZfOzKy6VUwvcSLg14ZNSOrqu80H3zbMk+dKM3NC0JvhVC3gCXNqFOpVOol1n7pGk69l7gLEZPXfdPh8ImFaCo8TzUtzhTUeK4kr4CoJKx/8d30FGd1XAVBuiDuuuDEjhNfhP4IMJtDsXfbAFNbgTeC+llPuqAkZKWSJ4KYXFKbhhXekJ39nPK8leQehqgAG94K6LeMhbgIkpugaXAVdkuN0vQy/o/ob75lUhVjXbhtsSmlGphbBKJ8k4xCj/iSe6CGCC5iF13D5s/KUfcC3mAxFR2AxUkl4SisXVvnUFRZsrwIDbrMa41E6SWb06LtKh278FNeqQhPX2ZX1Ya6V6WYbOfncBmCnAxxMGdB/g0+hnZ6f1YaLb140AE+Rvveigw6dVLoqYbrjQAM+HUMuJxGlDUcloxzvY1+4qYKmkZlpDHrOvv5+zSC6WdRRwOzCyC4QFlqCXwasHGL90Q5Af/GJEnTrq/SUVXKsGkWqu0pHAp2KMx/QHvoga7XABtkbM6vG6UjDt+/socErMHfIi4PscKMcgUtL+bY6xHr163FJK2aqrYNB4iryOKp+XNTcp6XOw+XkScAvR1m8VwInA11CFqNtB0CvkfndYKJiWkMfsy8GL1N8I/Cvh8k90bBzwdeCz/nFtXfY02eOa23V6z7yAD1STQxK4L+VuUpgZ1iJlkDkS+C4q8DvQ8Tkd43fCz6DmQnW8z1NC7n891fNeOvs9zGTLAgcX22pv51cB/wecH9DubWwC8GXUUjOzI1DJSYLoQU33qNN7Vo3oOisK/h54t8MbFkeKvskxC4fEIWzOTfruhunyt5397AG81X+tAu7Avrr9ID8+cUkVlSKBMwm3umQr+mtzt//ew49hmHQw0cE9KlSA9HDf3fw4quzlH7Ff76u/7wpdjZooGQYaaXWPQG8WuZRSdrqciZCycpsXQgwjeKjvJ9hPG5Ca/7PZT2fvSc33TH/XfU9W2FZW2UfQZ1ehkqBWoGYBb/PjHu0ubk/UaMZAVMBxnK+GJlV5MMgYGrjQeM9mRQRTtfgyaub0Cl9tbUHNzWrzr0NPH1pDfKUy0Vd1kztcP9PvUu3/LsDgCjBLOTg5sKK3I6Xcaqpg2t2koCE2VzVko4wthJlhbTpRUkctHfp+Z/+vpmTo8PsE/2ULw87+FprQsQlemqqZoA6jW5Gu0meO8V+H/r9SyVGTzpq2YmemtkDzXCvGzDzbD3aw+THIuyjhE+YcRIiOY1Kr1uSJHhTfqBYL6WxxNBxsY7roWtBaSsLwPSxA4WG+nEmSI5RRuEfPam4XKWCeSYlKSQIqtu9FARndhq678LxNLV809q276JrAvVtk67K5fACmdTHAQ60ZeEkz/mIHmPa1TQJsHSoRJwkF4fpG6T6BbBujzramqy+aKBgdRREEDQxghObxwyoYXWgLi/sZRqVGDasoIfU39OYfVR0A0Bn92avx1PpVBvzJsA3Adjuh2SlNpL/OQmau3CNT5RLWTQpaw8l04mScijRp9eIKWBI1wqZz70MDRmednqdRtUyTjLnEvR8RwXsmsj5IwcTtHkXlJpl8d5P/ub5vUcImbluMXvYuBGT8BwLG96+CUrfLqLquSUs7kyG/sNLX9L2gDqWz2iKa6sNWGdi4STb1XsB+xccoVF4UrpGtanbZ9m0hprs0bpmAjH/dBLl9Gg3pQbJnrmWuCLFtmCexMACbzv9MIKLr/tmoLFcKxvSeCst7GrZtpcHKqPKqOmq1OShOqwuYvRrbrMV+xQGXwV7hCBDCUQMMO5Sts1iZiWrRhY0rN0m3VKbpcLvNNQoLEOEAIllQL82a2waGT7QA48+S1KkyloVgbxQuW5jgnUn8wVa16MZEBG6GYXXVSxQKJmkFGsY1SoP9QXO7VillmxPA+Nao8eR6Hvu5HXGuxeva97bp5Dp/2yqYIEWjC4Ko1UsUCkZXubhUK64gkrR6WYyqkqBzn3W8Gn3ASCmbCK7VC3B3jMohqvhLXO6R6dPbhXsksHePsNw+bG6MSQKebqcL80AIq2TSaiYDNXucAsYgFvMQ9kWb44zFpM3NsnGZ4naPbEeWTMEaZgUIU7fM1E2KCihJt9dW1HrmOtbsLw7gHDA6wZ896BepSbpDp8UdsnWZ0uYemQDM5G+T7x0mBhY2fpakCg97rEfRL/TVqLtTI8BIKfejMveCGtjtEUAhibTqMLJZOICKbYdz6R7pXjcTN8n0fHWUjalScvngCBuTSYNC/6Xmw2N/tblHYRUM6GXsric9eTEiBFTCKBlCNnDT89FVBEFgMYGHzcxrUzVjmiBnoxrDqtAwHT/OwY1K9gj6mbt7THZsDBhfxehUff8pekHhNKiYJBuQLWSEIVh0YymuXSRCxmPCqD4XbcbVAyitrpH0+6qOldHPkbFWMO0UC2pk2wyCRkmrmDCBP2EBFNuOogMaV+6R7XUO6yYFAdQEJGHiXVG3g7jc/iB7Etis+eDYLauVwHQImCb0pnL/KgIoiJggE+UQtIlysYGPC/fIdXDXdtjaxfWwgU1UQ9fO23FDuPUr/6a5XVFKaTyh2Qow/vwDHV9sLbCd7FoYyNjuT1f+hgls2rhHhNxeODhnW1fB9rq7cKkjVeKT+sHhfayPvxdVk1hXVBALYDocUOep9oMMqxgXEjpK5aILERfuUVjomLpJpt85DFxs40KJukYNtXDZOOSL9lWxf4HeqHD8gPGHqnQS754AXk0orhKHfBWOIBbmCR0GQFHXg3EJEBeuZJRtLjbXaEAdPHAhpWe2WO9vE/BnXaUjpSzGChjftmnGYm7V3M70hsQZj3H5t6v/2bgiUc6iNqkJ4/I72SpJ24xinfcja68zh8Ijcygt240IAZhb0V9hY6ctIEIBxp9N2arRwJYAf01ArUT9tBEh/w77Px0A29ZtcXF9TWrN2Lynq2Rcx1CSisFw9gjkXedS6lMD18yj0GL32F4EzNN8ODSZJNa5VjAmvtkviGYNpahvrtBs8LY+vo3sF4Yg0e3wrlVL2DgOhtfFVUzG1WiSU/Xy4SnIO8+h3LsGedOLFJrbrPbXCnzTYPtQfTY0YKSUjejNYdiDfkJPmlRMUKNymaHrMuZiU+oySgUTZiKlwP0IGxH8HQlcRvSCP5xL+esnUqrxkHM34f1imfU+/4Qa3dWx/baxF5cKBmCr5nYPo5Y5sbrSdV4k8Imqkbh2j6JwkeJWMDbnZwNYV0omrnhfRTu8L9x/IaXzRqoYpgTxmX9QsFzbtwX9glKhYi9OAeNPH9ir0egklhMhJTBtIMwZkyhkTKS0iXvkYnjWhYsUtQmLcyXEtYlSyUTums8cCnMvpjS+4UAw9vML8F627/Z/RD+9pEVK2ZwKwBj6ak+g1rw1tue3Ic4fRflbJ1Ou8xLtIEkrF5sh4SSA47LWTBQ5MVEql1CfvXA08q/nU2qoOQCXRzfifW+RdZ9tBO402H6LiwbgrJv6KkYn4CuBWzCoKdHRblpI4byRyEfmUJo9PDEVk4RysQGeCUCiGp524SKlSclEGnfp3wNuPgn5qzMp9/AOwKWpDfHJ5yiEaN/fQLPMJSFHjg66CIZzl4J3KMQEQGd2xInAl22O0acWnr2E4qjeyLtX433wCbxDhuvCfCkZYlupsS9pcExpcY4you/qQs242FY4+H/UQ9nC5uJcOxV5w/HIjmABaC4iTruHmlVN1tf+DoPQRBlYqblsdKwuUrvpzj2aD/zd5gBNbXDdsxTKIN4yjvLjF1OaMwYp3CkZF6NLccRcXLolUa0q4Mpdi1LJJAqXqf3hL+dT/sqMg1VLu92wgEIIuGz2Yy/a27uCSyQKxlcxY4GeGpsWgB8Bo2yOc9VE5PdOpeT5T+KnNiG+tJDCs1ucPaFliO2k5r5cKBrdc41TsbjoiGlUMs7A4gm4ZSbyfZOQXoV7891FFD6/IJQQ+H/oD0s3SSk3uLzJUYVKt2luV0J/mco32K+WI+ZuPHBjTxuOfOBCit87hbI/hV0k2FmieAraZsTaqJsorpGporF5L0ol48yG1sNd51J+/yTKleCyvQUREi4vGsDFpN8mCxgp5V5gN3qBwL8Ar9ge6wsvUNhfOrghvOcIygsvpfThKaGf2DY5HS5cJrDP2nW9rnRY1yhqFynoGrr8X9g2Qq8CXH808oW3Uj5zROX2WQZxzdOhgrqtwI/RD8jv9hdYTD9gfNuC3vIlbcBNWE4HX7gNblr4xu8xpCfy6ydS+tnpyMF1iUr/KJPpwqqBsNAIo4aiVDNhpw5EolwuHI188a2UP3sc5Y7Dz53Zz5ci/rY21Hn8L7DKwMXfFklniCIG0yEW0w8Yobn5mcD1NscpCLj1VEpXHt75jO3mIuK2JYhbX0Vs2hdLTMYktuJyBMkmzhJHXCbqOsYu4i9RnCcApwyFjx9N+ZyRSKHxiWe24F3+MIWmNuvr/QxqhFb33m6UUu7OHGB8yBxpoJS+BMywbcH3XEBp9rDKZSFay/DNV/BueQnRWo4cMFEDJeqgrowBJKaftY1NuYaL0N3ophnIf59CWWjufUUTYtZfqdlrD5cW4APoJ77ukVKujaz/xwCYnsBYTcgMAD4DTLU51pB6+NbJlN48tnrtmS37EM9thduW4j22MfOgMT2nNIwkuRqZiUrJhDr34wbBB49EnjwMeXgf/eu9cDviPXOpWW0/JC195fKswWdW+Umy2QSMD5kBBq5SPXAzMMG25d42m/IVE/SWTHlwPeJny/DuX2tcEUtaNgAXQJExnVvcrlEYqEQNlqqfqfPgojHID01WYDHd8VOb8d72EIV9pVBw+QZmq6pulFLujLTvxwEYHzJjgQbNzQ9H1aywiqLXF+De8ynNGKLPjDV7EDe9iPe7FcY9zVXMozvkvkThHrlykayPf9YI+NbJlCf0sbvW65oRZ95LzdZwOuJeVJU6XdsjpVwT+Y2NETA1virRXWThVOCTtpDpUwt3nkPplKFmwuT1PYjfrkD8fJlRQDhqNeNatciUwyROF8nqHDwBF4yGTx1D+diBesHbzmx5I+LSB6lZG27e8go/tKC7l/bpAK1dBjA+ZPoCYww+chVwpe3xhtTDkrdTrLHoUK1lxJ0rETe+oA0al25JV3CPsuAmGZ9HQcC7Dkd+8ljk6N7hr9tJd1O7NNz4zS7gGswmD6+RUjbF0ufjBEwHV6mP5ua1qKkEQ2yP9+4jkN89maJn+YTZU0Q8sA7++Dreg+tAowaq6w6eu0juXSTjc5rSD95/JPKtE5CD69xc05tfpvCVF0Lnot0MzDXYfqfr6QBpA0wNcAT6Q9fDge8AvWyP+a6JyO+fYg+ZdtvRirh9GeL7ixHb9kfSqePIfcnSKFIUbpLR8S4cDR+bRnnmUHs3qDP73iIKn1sQGi4LUKkduve0CLzmcjJj6gDjQ6Y3MN6gEcwEPk2IzOOwSqajtZQQT2yGv6xWbtTekvOOnIRqScsoUlQukvZxp/WHi8chLxmLnNbfLVgAvvEyhS+HVy5Lgc+jFk4zcY0aY+3rSQDGh0wvVNBX9/ZN9mnd0/aYQ+rhV2dSOnkoTgne1IZ4dAM8sB7xwHrE5n2xwcZk32l0lUQMwAn84PTBiPNGIM8fg5wxyD1Q2m15I+Kdj1KzNHzO7AvAjYDuoHYZle+yL/YbnBRgfMj0xyzoO9W/sNbLffethbvPp3T8ICKRiUUQz21RI1F3vQ6Nbc46eBanCIQFQWRgGVQHbxuP/NjRMLJX9NdifTPigvtDjxaBqu/yn+itDd9uG6SUiawRnyhgfMiMRz/oCzDbv8DWErNnAW6dRemycUTqixbLMHcTYu4mxJObEQu24sL5jVOxyAjhYbsPYXvPjx8Ms4Yh3zQGjh2I9GIqWPH0Zrz3Pk5hS/h82Y3AZ9Ev6gYqqLsusf6dAsDUYRb0BTgDuC5Mo/YE/OZMSm8aQ2wBr+0tiAfXw9/XIh7coCrzZQg2aXeT3mA9PHjLeLhsLPLMkdC7Jv7r8MIOvDl/p7A3/L1uAT6OWX2XkpRyUaI3N2nA+JBpQAV9TSBzMWpSl7X1LMCfz6Vok9rtQt0s2oWYu1GtlvDMVtiwNxbYJAUeEfVnxjWoeUDHDUKeOhyOHQB1heTgurIJcelDoeYWtVujHxpYbvi51VHNks4UYHzIDMK8dOYcVElAa/ME/GQ2pbeNj0/JVNS/exHztsCTmxBPbYYlu2OFjavPu6jpq2XDe8JFY1Qlw1nDYFjP9Ci1Z7fgXfaw9fKuHa0M3IB5UbYNUsptiffrtADGh8w4oL/hx64Bzg1z3FoPrptG+RPHUE7yiXeo7SkiXtwOL+2AV3chljfC601K6ch4gZOoshlcBxP7wRF94Yi+yMkD4Mh+MK53dCM+1jSQ8H/LKXxuPp4DFxjgC8BLhp/ZJqVcn4qbmzLAeKjSDv0MPlYAPooK/oayE4cgfzyL0mF90p392lxErG6ClU2weJeaLLd+L6zeA5v2Gsd2Ei84VV9Q6y+P7AWjG2Bsb+TY3jCuj3J5+tZmIhuZHS2qzOV9a51VxLsVeMDUnZJSrkpNn04TYDqAZiQw1PBjs1CB39BlQD84ifLNMyml7eloaq1lxOo9sHGvUj0bmmHLfsS2Fti6H7bvgy37YXcr7C+5OWatgIYeKh1gUD2M7Kl+Du8FI3oiR/aCUb0VUAbVZQMcOvb9xRQ+O99ZCdoyKufrZcPPbY+yeFRXAoyHyo8ZYPjRU4H/AHqEPYdLxiK/eQqlIV2oE1SzIoj9RdjXBvvKKgjdJqGtpH5vvwieUJJRCOhRUO5lDw/qCtBQQNbV0K2suYj40vMUfrTEmWrZjZpftNjwc7uklK+nri+nETAdQDPB0F0CNeR9A9A77PH794C/X0hxcv/uAZnczOEy66/UrHSXfL8f+Byw0vRUgBVxzjHSNS/l93ANKh3apLr9cl9e7gh78F2tcNlD1Px+FV45/nWEckuxPb4J7+z7nMJlParo/SrD9t6Mw6Veu5WC8VVMHXAk5oWn+qByB8a6OI+3jUfeehqlNI0y5Ra/SRBffB7v2684fThvQE1c3GV+OiyJsqZulweMD5kGVBlNG8h8B+jr4jzG9IYvn0DpshTkzOQWvz21Ge9Tz+G9tNOpmp3vt1HTiYhFX7nsSXXfzQJgQkJmCPARLFcq6MzePBZ54wnpH87OzY1tbUH890IKP1uKcHzDFwNfxLjePEVgub+Carr7bVYA40OmHpgEmI5VCB8yp7s6l4KAG0+gfO1USnkX7Lr259V4H5lHodF99dp5wHdRK5uaukWvpV25ZBIwHSBjUnazI2SOB96N+ZSEijZzKPKqicirJlZexDy3bJkE7l2L95MlePO2IPa7fYRsA34OPGfx2SZU0aj9memvWQNMB9BMxHwIGx9M16MKWDmzaQPguyebLZWSW/psZRPiunkUHt8Uyajhq8DXABvXZg8xl7vs7oBpn1Yw2ObjwBXA23A4/FwQ8L4jKF93FOWxDbmayZLtaEX8cBHeDxbj7XXv9JaAvwB/BGycre2omdGZe3hlFjCHKJn+lh8/HbjW9Tl5Aq6dSvmz0ynX58PaqbayhFtfVdX990YTTSuiMnNfsPz8ljgWSMsBUxkwBdToku1Q9CnA+zCflhBoA+rUwlz/Oilds7RzU2D56xq8z86nsKY5ssM0o5ZztS36tFNKuSLT/TPrgOngLo3wXzYuTx/UAm/nEEF284A6eOfhlK+dSjmO+q+5VbZdrYifLsP72VK8dc2RHuox4JeY1c7taJvSNnGx2wKmA2gGAYeF2MV01IzsnlGcX30B3j2R8seOpjwqB02strsN8aNXVYxlV7QLpjYDP0Ql0NmYBF5PQ7GoHDCdQ6aPD5k6y130B96Jw5yZN4DGgzljkW+fQDnOmsDd0RZsx7t9GeLu1ZGDBeAZ4NfAVsvPt6Gyc3d3mf7Y1QDTATRjfJfJ1ob5amZClOfpCbhiPPL6YylN7JurGhe2ZR/im4so/Hyp8xyWSrYK+B9gZ4h9bJZSru5y/bCrAqaDy3R4mF2gYjOXEPHMcw84cahaTXDOGMr5NAQz29aCuHcN3j1rEHM3Ilri0YVF4FfAw5hn5Hbcx5qu4hJ1K8D4kBmGWrEgjI1EDWdPiOu8T1EZwuXLxiOTWG4jCyYl/G0d3s9fw3twnfN5QkG2Cfge5rVbDrWXklhxMQeMW8g0oOIyYYK3Nai4zGXYJfdZ2dCecNFoymeMQM4egRxc171h09SGmLcZ8fgmxL3r8FY1xn4Ku4C7gIcgVPysBbWc6+4u3fe6A2B8yHi+EhkZ0t2pBd4EXIT5fKhwbpRQC7OfNITyKcOQpw5FjurdtYGzrUUtxTvPf724HdGaTFh8DyoT9yEINcFVolZoXJfFzNwcMMGg6YOakV0bcld1qNGm85L8PrOGIS8YjZw9nPL0gelbxsPGVjQiHtmE98h6xN/Wxu76dAaEx4DfoiYbhrE2YJmUsqnb9LfuBhgfMjWoeUxDHezuWNQqk9OS/l69CnD0IOTU/sgj+8Gxg5DHDkxvDKelhFi8G/HydnhlF2LJTsTiXYit6ZkrvAT4DeYrKnZmW4G1UsrWbtXXuiNgOoBmKOFGmTrakcB7gXFp+54T+sC0AcjJ/ZBHKvjIiX3jW6u5pYRY0QjLmxArGhGv7FSvZbtIaxLQRuB2zJcN6czKqFnQO7plH+vOgPEh0+ArmWEuwiS++3UscAZ25STi+d6oKQyjer9xYbOeNdBQA/U10LOA7FGAGuEHroSax1OUUCzBvjJiXxGai3DoMqnNbbBhL2LbfrKQTdgMPA78A3gNN7V9tvqxlv3dtn91d8AcAppJQL2jXdYCFwBvxsESKrlFZvuBe4B7UTkpLqzVVy27u32/ygFzEGRqUNm/IzGv/VvJBqBWnTwDGJ5f5dTYFuAJHyyu4iJlDowQ5aVUc8BUBE2tH0sZitv1kKYApwEnAr3yKx27tfou0EO4Cdy2m0Ql3q2VUrbllzkHjInbNBn7iZOVrIcPmgtwWB84t4q2GXgQldJfdLzvfagK/435Zc4BY6tm2mvNuF55WaBKRBzvq5o8VuPOGoEXfTdoCe4LspeBjWlcDzoHTDZB0wOVOzOMaJaRrQFOAGYDx+RX3NoWA3NRpROiGrzaiiqrkLtDOWCcg6Y3Kj4zMMLD9EYNdU/2odMnv/IVbQeqJOUiHy67IjzWNlQAd09+2XPAxAGbkahJlFEn6BeAoxTauBQAAAIoSURBVIDjfFeqoRtf9ibf9Znv/4w6xaYIrAU2dIe5Qzlg0geZelR8ZjjuYzSVbBiqdMRE1JK4XTlQvBxVEmGN/3MD8SxwV0QFh9dLKVvylp4DJmnQeKgyDqMSUBg1PnBG+/BpH2IfnKFLuN3v0GtRuSQbgNWoRLg4rRE15Lwtz2XJAZNW2PRFFbnqn/Cp1KICxkN9AA2KyaWrZmVUicnt/s/1qFGepCcBNqIWN9uZt+AcMFkBTW9fVQwh4pKbFuAZiUr26++fXw0q36cPKvtY+K8e/nseKhZU8N0HiaqL0ub/XfZfu1C1U/b7721CzfNp9hVKmubllHy1tLU7lVDIAdP1QFNAxWnGEL4OTW7hrcV3wTblQ805YLoSaDxfHQz23ZUcNvFZ0XfLtgE78hGhHDDdATiDULGRPIM3OtuNivNsz6GSA6a7gqYXqkxEP1RMpC/JBmKzahKVJ7MTFQtqlVI255clB0xuBwOn4IOmn+9K5QqnsjX5MNkN7M5jKjlgcrNTOAP91wDSNSIVt5V9mOwAtnTnanE5YHKLAjYeKpGvATWkPBB3VfjSaHv8V5P/2pMnwOWAyS1+l6qf/+rjw6cug1+lzYfJbh8mucuTAya3lEKnFhW76em/6n3o1HEgeS4J96alw2s/sLf9lcMkB0xuXQdAPXzY1HeATm2HV3vWbg0HsnrbX7LDq4zKiC2hck2KvhJpf+1rh0kOkBwwueWWW27O7P8DTO3EsdwMe5IAAAAASUVORK5CYII=;" vertex="1" parent="1">
          <mxGeometry x="629" y="265" width="52" height="52" as="geometry"/>
        </mxCell>
        <mxCell id="GPzBYBWvHa93N3hvbvar-47" value="Canarie API" style="shape=component;align=left;spacingLeft=36;rounded=1;shadow=0;glass=1;comic=0;labelBackgroundColor=none;strokeColor=#666666;strokeWidth=2;fillColor=#FCFCFC;fontSize=18;fontColor=#000000;html=1;" vertex="1" parent="1">
          <mxGeometry x="999" y="270.5" width="157" height="76" as="geometry"/>
        </mxCell>
        <mxCell id="GPzBYBWvHa93N3hvbvar-48" style="edgeStyle=orthogonalEdgeStyle;rounded=1;comic=0;orthogonalLoop=1;jettySize=auto;html=1;shadow=0;endArrow=none;endFill=0;strokeColor=#666666;fontSize=18;fontColor=#D72B32;entryX=0.75;entryY=1;entryDx=0;entryDy=0;" edge="1" parent="1" source="GPzBYBWvHa93N3hvbvar-49" target="GPzBYBWvHa93N3hvbvar-2">
          <mxGeometry relative="1" as="geometry">
            <Array as="points">
              <mxPoint x="622" y="369"/>
            </Array>
          </mxGeometry>
        </mxCell>
        <mxCell id="GPzBYBWvHa93N3hvbvar-49" value="Widgets" style="shape=component;align=center;spacingLeft=36;rounded=1;fontSize=18;html=1;verticalAlign=top;strokeColor=#D72B32;strokeWidth=2;" vertex="1" parent="1">
          <mxGeometry x="674" y="337.5" width="120" height="54" as="geometry"/>
        </mxCell>
        <mxCell id="GPzBYBWvHa93N3hvbvar-50" style="edgeStyle=orthogonalEdgeStyle;rounded=1;comic=0;orthogonalLoop=1;jettySize=auto;html=1;shadow=0;endArrow=none;endFill=0;strokeColor=#666666;fontSize=18;fontColor=#D72B32;" edge="1" parent="1" source="GPzBYBWvHa93N3hvbvar-51" target="GPzBYBWvHa93N3hvbvar-2">
          <mxGeometry relative="1" as="geometry">
            <Array as="points">
              <mxPoint x="744" y="330"/>
              <mxPoint x="744" y="330"/>
            </Array>
          </mxGeometry>
        </mxCell>
        <mxCell id="GPzBYBWvHa93N3hvbvar-51" value="Tutorials" style="shape=component;align=left;spacingLeft=36;rounded=1;shadow=0;glass=1;comic=0;labelBackgroundColor=none;strokeColor=#D72B32;strokeWidth=2;fillColor=#FCFCFC;fontSize=18;fontColor=#000000;html=1;" vertex="1" parent="1">
          <mxGeometry x="824" y="320" width="122" height="60" as="geometry"/>
        </mxCell>
      </root>
    </mxGraphModel>
  </diagram>
</mxfile>
